#autumn_log_(7)_786_80.obj

v 1.544136 -0.7851977 -0.01450893
v 1.567615 -0.7939529 -0.4861538
v 3.178187 -2.299176 -0.3953509
v 3.136428 -2.271795 0.03672573
v -2.326113 1.447997 -0.4861538
v -1.821264 2.049653 -0.4861538
v -1.772386 1.997695 0.2306257
v -2.266457 1.408884 0.1905866
v 2.790577 -2.683963 0.0199149
v 3.136428 -2.271795 0.03672573
v 3.178187 -2.299176 -0.3953509
v 2.824792 -2.720334 -0.3953509
v 1.050065 -1.374008 -0.04385812
v 1.544136 -0.7851977 -0.01450893
v 3.136428 -2.271795 0.03672573
v 2.790577 -2.683963 0.0199149
v 0.1848837 -0.1079221 0.9019078
v 0.1537149 -0.1490958 0.8982108
v -0.1721431 0.2272884 -0.5464739
v 0.2356415 -0.04087612 0.9079241
v -0.09021705 0.3355081 -0.5367606
v 0.03379277 0.05448696 -0.3582415
v -0.1721431 0.2272884 -0.5464739
v 0.1537149 -0.1490958 0.8982108
v 0.2727988 -0.2215772 0.7013811
v 1.062765 -1.39561 -0.4861538
v 1.050065 -1.374008 -0.04385812
v 2.790577 -2.683963 0.0199149
v 2.824792 -2.720334 -0.3953509
v 1.062765 -1.39561 -0.4861538
v 2.824792 -2.720334 -0.3953509
v 3.178187 -2.299176 -0.3953509
v 1.567615 -0.7939529 -0.4861538
v 0.789371 -1.166205 -0.4861538
v 1.294221 -0.564548 -0.4861538
v 0.2356415 -0.04087612 0.9079241
v -0.09021705 0.3355081 -0.5367606
v -0.06067385 0.310718 -0.5097656
v 0.1157194 0.1627066 -0.3485282
v 0.3547254 -0.1133586 0.7111119
v 0.2727988 -0.2215772 0.7013811
v 0.3547254 -0.1133586 0.7111119
v 0.1157194 0.1627066 -0.3485282
v 0.03379277 0.05448696 -0.3582415
v 0.3547254 -0.1133586 0.7111119
v 0.2727988 -0.2215772 0.7013811
v 0.1537149 -0.1490958 0.8982108
v 0.2356415 -0.04087612 0.9079241
v -1.096444 0.4161813 -0.6122175
v 0.789371 -1.166205 -0.4861538
v 1.294221 -0.564548 -0.4861538
v -0.5915942 1.017839 -0.6122175
v -1.096444 0.4161813 -0.6122175
v -1.051067 0.3890501 -0.01703753
v 0.8128499 -1.17496 -0.01602609
v 0.789371 -1.166205 -0.4861538
v 1.050065 -1.374008 -0.04385812
v 1.062765 -1.39561 -0.4861538
v -2.326113 1.447997 -0.4861538
v -2.266457 1.408884 0.1905866
v -1.051067 0.3890501 -0.01703753
v -0.5569959 0.9778617 0.02089146
v 1.306921 -0.5861501 0.01865932
v 0.8128499 -1.17496 -0.01602609
v 0.8128499 -1.17496 -0.01602609
v 1.306921 -0.5861501 0.01865932
v 1.544136 -0.7851977 -0.01450893
v 1.050065 -1.374008 -0.04385812
v -0.5569959 0.9778617 0.02089146
v -0.5915942 1.017839 -0.6122175
v 1.294221 -0.564548 -0.4861538
v 1.306921 -0.5861501 0.01865932
v 1.567615 -0.7939529 -0.4861538
v 1.544136 -0.7851977 -0.01450893
v -1.772386 1.997695 0.2306257
v -1.821264 2.049653 -0.4861538
v -2.266457 1.408884 0.1905866
v -1.772386 1.997695 0.2306257
v -0.5569959 0.9778617 0.02089146
v -1.051067 0.3890501 -0.01703753
v -2.326113 1.447997 -0.4861538
v -1.096444 0.4161813 -0.6122175
v -0.5915942 1.017839 -0.6122175
v -1.821264 2.049653 -0.4861538
v -1.312309 1.221355 0.920602
v -0.9857734 0.6754237 -0.9253976
v -1.112879 0.5574232 -0.9129813
v -1.439414 1.103353 0.9330183
v -1.360666 1.17646 0.9253278
v -1.206575 0.9385648 -0.6848668
v -0.9857734 0.6754237 -0.9253976
v -1.312309 1.221355 0.920602
v -1.446078 1.338986 0.6691023
v -1.439414 1.103353 0.9330183
v -1.112879 0.5574232 -0.9129813
v -1.144555 0.5951723 -0.8784703
v -1.33368 0.8205632 -0.6724505
v -1.573183 1.220985 0.6815186
v -1.446078 1.338986 0.6691023
v -1.573183 1.220985 0.6815186
v -1.33368 0.8205632 -0.6724505
v -1.206575 0.9385648 -0.6848668
v -1.573183 1.220985 0.6815186
v -1.446078 1.338986 0.6691023
v -1.312309 1.221355 0.920602
v -1.439414 1.103353 0.9330183
v 2.399776 -1.71127 0.895595
v 2.019998 -1.938425 -0.3885672
v 1.93791 -1.850005 -0.3799351
v 2.317688 -1.62285 0.9042445
v 2.368544 -1.677631 0.8988909
v 2.203052 -1.784826 -0.2212437
v 2.019998 -1.938425 -0.3885672
v 2.399776 -1.71127 0.895595
v 2.481607 -1.618213 0.7206508
v 2.317688 -1.62285 0.9042445
v 1.93791 -1.850005 -0.3799351
v 1.96417 -1.827969 -0.3559222
v 2.120964 -1.696404 -0.2126116
v 2.399519 -1.529793 0.7292829
v 2.481607 -1.618213 0.7206508
v 2.399519 -1.529793 0.7292829
v 2.120964 -1.696404 -0.2126116
v 2.203052 -1.784826 -0.2212437
v 2.399519 -1.529793 0.7292829
v 2.481607 -1.618213 0.7206508
v 2.399776 -1.71127 0.895595
v 2.317688 -1.62285 0.9042445

vn 0.6820103 -0.02000282 0.7310692
vn 0.6820103 -0.02000282 0.7310692
vn 0.6820103 -0.02000282 0.7310692
vn 0.6820103 -0.02000282 0.7310692
vn -0.7637879 -0.1011519 0.6374924
vn -0.7637879 -0.1011519 0.6374924
vn -0.7637879 -0.1011519 0.6374924
vn -0.7637879 -0.1011519 0.6374924
vn 0.7596946 -0.1162512 -0.6398047
vn 0.7596946 -0.1162512 -0.6398047
vn 0.7596946 -0.1162512 -0.6398047
vn 0.7596946 -0.1162512 -0.6398047
vn -0.04291748 -0.9990282 -0.01006401
vn -0.04291748 -0.9990282 -0.01006401
vn -0.04291748 -0.9990282 -0.01006401
vn -0.04291748 -0.9990282 -0.01006401
vn -0.7694576 -0.3178818 0.5539733
vn -0.7694576 -0.3178818 0.5539733
vn -0.7694576 -0.3178818 0.5539733
vn -0.7694576 -0.3178818 0.5539733
vn -0.7694576 -0.3178818 0.5539733
vn -0.6020465 0.07139391 -0.795263
vn -0.6020465 0.07139391 -0.795263
vn -0.6020465 0.07139391 -0.795263
vn -0.6020465 0.07139391 -0.795263
vn -0.6015949 -0.02107075 -0.7985235
vn -0.6015949 -0.02107075 -0.7985235
vn -0.6015949 -0.02107075 -0.7985235
vn -0.6015949 -0.02107075 -0.7985235
vn 0.03156652 0.9991509 -0.02648731
vn 0.03156652 0.9991509 -0.02648731
vn 0.03156652 0.9991509 -0.02648731
vn 0.03156652 0.9991509 -0.02648731
vn 0 1 1.192093E-07
vn 0 1 1.192093E-07
vn 0.6020464 -0.07139389 0.7952631
vn 0.6020464 -0.07139389 0.7952631
vn 0.6020464 -0.07139389 0.7952631
vn 0.6020464 -0.07139389 0.7952631
vn 0.6020464 -0.07139389 0.7952631
vn 0.7694578 0.3178819 -0.5539729
vn 0.7694578 0.3178819 -0.5539729
vn 0.7694578 0.3178819 -0.5539729
vn 0.7694578 0.3178819 -0.5539729
vn 0.6275073 -0.5735756 -0.5265414
vn 0.6275073 -0.5735756 -0.5265414
vn 0.6275073 -0.5735756 -0.5265414
vn 0.6275073 -0.5735756 -0.5265414
vn 0.03917829 0.9986916 -0.03287435
vn 0.03917829 0.9986916 -0.03287435
vn 0.03917829 0.9986916 -0.03287435
vn 0.03917829 0.9986916 -0.03287435
vn -0.6430211 -0.01576859 -0.7656863
vn -0.6430211 -0.01576859 -0.7656863
vn -0.6430211 -0.01576859 -0.7656863
vn -0.6430211 -0.01576859 -0.7656863
vn -0.6420912 -0.0183763 -0.7664082
vn -0.6420912 -0.0183763 -0.7664082
vn -0.641687 -0.01305135 -0.7668558
vn -0.641687 -0.01305135 -0.7668558
vn -0.03013421 -0.9988865 -0.03630643
vn -0.03013421 -0.9988865 -0.03630643
vn -0.03013421 -0.9988865 -0.03630643
vn -0.03013421 -0.9988865 -0.03630643
vn 0.04839862 -0.99433 -0.09468821
vn 0.04839862 -0.99433 -0.09468821
vn 0.04839862 -0.99433 -0.09468821
vn 0.04839862 -0.99433 -0.09468821
vn 0.6424313 -0.01476034 0.7662013
vn 0.6424313 -0.01476034 0.7662013
vn 0.6424313 -0.01476034 0.7662013
vn 0.6424313 -0.01476034 0.7662013
vn 0.6433471 -0.01717154 0.7653822
vn 0.6433471 -0.01717154 0.7653822
vn 0.6437298 -0.01230381 0.7651541
vn 0.6437298 -0.01230381 0.7651541
vn 0.06749307 -0.990211 -0.1221782
vn 0.06749307 -0.990211 -0.1221782
vn 0.06749307 -0.990211 -0.1221782
vn 0.06749307 -0.990211 -0.1221782
vn -0.05997766 0.9969304 0.05032736
vn -0.05997766 0.9969304 0.05032736
vn -0.05997766 0.9969304 0.05032736
vn -0.05997766 0.9969304 0.05032736
vn 0.6615701 -0.3178814 -0.6791735
vn 0.6615701 -0.3178814 -0.6791735
vn 0.6615701 -0.3178814 -0.6791735
vn 0.6615701 -0.3178814 -0.6791735
vn 0.6615701 -0.3178814 -0.6791735
vn 0.7309961 0.07139377 0.6786368
vn 0.7309961 0.07139377 0.6786368
vn 0.7309961 0.07139377 0.6786368
vn 0.7309961 0.07139377 0.6786368
vn -0.7309964 -0.07139387 -0.6786365
vn -0.7309964 -0.07139387 -0.6786365
vn -0.7309964 -0.07139387 -0.6786365
vn -0.7309964 -0.07139387 -0.6786365
vn -0.7309964 -0.07139387 -0.6786365
vn -0.6615707 0.3178817 0.6791729
vn -0.6615707 0.3178817 0.6791729
vn -0.6615707 0.3178817 0.6791729
vn -0.6615707 0.3178817 0.6791729
vn -0.5265411 -0.5735756 0.6275076
vn -0.5265411 -0.5735756 0.6275076
vn -0.5265411 -0.5735756 0.6275076
vn -0.5265411 -0.5735756 0.6275076
vn -0.6791715 -0.3178814 -0.6615722
vn -0.6791715 -0.3178814 -0.6615722
vn -0.6791715 -0.3178814 -0.6615722
vn -0.6791715 -0.3178814 -0.6615722
vn -0.6791715 -0.3178814 -0.6615722
vn 0.6786373 0.07139436 -0.7309956
vn 0.6786373 0.07139436 -0.7309956
vn 0.6786373 0.07139436 -0.7309956
vn 0.6786373 0.07139436 -0.7309956
vn -0.6786376 -0.07139376 0.7309954
vn -0.6786376 -0.07139376 0.7309954
vn -0.6786376 -0.07139376 0.7309954
vn -0.6786376 -0.07139376 0.7309954
vn -0.6786376 -0.07139376 0.7309954
vn 0.6791719 0.3178819 0.6615716
vn 0.6791719 0.3178819 0.6615716
vn 0.6791719 0.3178819 0.6615716
vn 0.6791719 0.3178819 0.6615716
vn 0.6275063 -0.5735753 0.5265431
vn 0.6275063 -0.5735753 0.5265431
vn 0.6275063 -0.5735753 0.5265431
vn 0.6275063 -0.5735753 0.5265431

vt 0.6040039 0.3261719
vt 0.5737305 0.3283691
vt 0.5834961 0.46875
vt 0.6108398 0.4648438
vt 0.8740234 0.3796387
vt 0.8740234 0.3295898
vt 0.828125 0.3303223
vt 0.8305664 0.3793945
vt 0.8286133 0.3977051
vt 0.828125 0.4318848
vt 0.855957 0.4318848
vt 0.8554688 0.3969727
vt 0.7617188 0.1848145
vt 0.8110352 0.1849365
vt 0.8041992 0.04647827
vt 0.7695313 0.04641724
vt 0.9243164 0.2841797
vt 0.9277344 0.2841797
vt 0.9277344 0.1879883
vt 0.9189453 0.2841797
vt 0.9189453 0.1882324
vt 0.890625 0.1265869
vt 0.902832 0.1434326
vt 0.902832 0.04641724
vt 0.890625 0.05535889
vt 0.7080078 0.1865234
vt 0.7363281 0.1887207
vt 0.7441406 0.05023193
vt 0.7177734 0.04641724
vt 0.628418 0.3286133
vt 0.6357422 0.4692383
vt 0.6708984 0.4692383
vt 0.6782227 0.3286133
vt 0.628418 0.3059082
vt 0.6782227 0.3059082
vt 0.8896484 0.1879883
vt 0.8896484 0.2851563
vt 0.8911133 0.2827148
vt 0.9018555 0.2683105
vt 0.9018555 0.1970215
vt 0.8999023 0.3425293
vt 0.8911133 0.3425293
vt 0.8920898 0.4099121
vt 0.9008789 0.4099121
vt 0.8911133 0.3425293
vt 0.8999023 0.3425293
vt 0.9008789 0.329834
vt 0.8920898 0.3295898
vt 0.628418 0.1488037
vt 0.628418 0.3059082
vt 0.6782227 0.3059082
vt 0.6782227 0.1488037
vt 0.6958008 0.3662109
vt 0.7338867 0.3637695
vt 0.737793 0.2084961
vt 0.7075195 0.2093506
vt 0.7363281 0.1887207
vt 0.7080078 0.1865234
vt 0.7011719 0.46875
vt 0.7441406 0.465332
vt 0.7617188 0.3596191
vt 0.8105469 0.3598633
vt 0.8110352 0.204834
vt 0.7617188 0.2047119
vt 0.7617188 0.2047119
vt 0.8110352 0.204834
vt 0.8110352 0.1849365
vt 0.7617188 0.1848145
vt 0.6005859 0.151123
vt 0.5605469 0.1490479
vt 0.5732422 0.3056641
vt 0.6054688 0.3061523
vt 0.5737305 0.3283691
vt 0.6040039 0.3261719
vt 0.6108398 0.04962158
vt 0.5654297 0.04641724
vt 0.7617188 0.4614258
vt 0.8110352 0.4616699
vt 0.8105469 0.3598633
vt 0.7617188 0.3596191
vt 0.628418 0.04641724
vt 0.628418 0.1488037
vt 0.6782227 0.1488037
vt 0.6782227 0.04641724
vt 0.8720703 0.3071289
vt 0.8720703 0.1883545
vt 0.8613281 0.1879883
vt 0.8613281 0.3068848
vt 0.8681641 0.3071289
vt 0.828125 0.149292
vt 0.8442383 0.1707764
vt 0.8442383 0.04641724
vt 0.828125 0.05813599
vt 0.828125 0.1879883
vt 0.828125 0.3125
vt 0.8305664 0.3093262
vt 0.8442383 0.2910156
vt 0.8442383 0.199707
vt 0.8613281 0.1279297
vt 0.8725586 0.1276855
vt 0.8735352 0.04641724
vt 0.8623047 0.04669189
vt 0.8725586 0.1276855
vt 0.8613281 0.1279297
vt 0.8623047 0.1455078
vt 0.8735352 0.1452637
vt 0.9448242 0.1879883
vt 0.9448242 0.2717285
vt 0.9526367 0.2719727
vt 0.9526367 0.1882324
vt 0.9477539 0.1881104
vt 0.9204102 0.1177368
vt 0.9311523 0.1325684
vt 0.9311523 0.04641724
vt 0.9204102 0.05453491
vt 0.9301758 0.388916
vt 0.9301758 0.3024902
vt 0.9287109 0.3046875
vt 0.9189453 0.3173828
vt 0.9189453 0.3808594
vt 0.9472656 0.3635254
vt 0.9550781 0.3635254
vt 0.9560547 0.3024902
vt 0.9482422 0.3024902
vt 0.9550781 0.3635254
vt 0.9472656 0.3635254
vt 0.9482422 0.3745117
vt 0.9560547 0.3742676

g autumn_log_(7)_786_80
usemtl autumn_log_(7)_786_80
usemap autumn_log_(7)_786_80
f 1/1/1 3/3/3 2/2/2
f 1/1/1 4/4/4 3/3/3
f 5/5/5 7/7/7 6/6/6
f 5/5/5 8/8/8 7/7/7
f 9/9/9 11/11/11 10/10/10
f 9/9/9 12/12/12 11/11/11
f 13/13/13 15/15/15 14/14/14
f 13/13/13 16/16/16 15/15/15
f 17/17/17 19/19/19 18/18/18
f 19/19/19 17/17/17 20/20/20
f 19/19/19 20/20/20 21/21/21
f 22/22/22 24/24/24 23/23/23
f 22/22/22 25/25/25 24/24/24
f 26/26/26 28/28/28 27/27/27
f 26/26/26 29/29/29 28/28/28
f 30/30/30 32/32/32 31/31/31
f 30/30/30 33/33/33 32/32/32
f 34/34/34 33/33/33 30/30/30
f 34/34/34 35/35/35 33/33/33
f 36/36/36 38/38/38 37/37/37
f 38/38/38 36/36/36 39/39/39
f 39/39/39 36/36/36 40/40/40
f 41/41/41 43/43/43 42/42/42
f 41/41/41 44/44/44 43/43/43
f 45/45/45 47/47/47 46/46/46
f 45/45/45 48/48/48 47/47/47
f 49/49/49 51/51/51 50/50/50
f 49/49/49 52/52/52 51/51/51
f 53/53/53 55/55/55 54/54/54
f 53/53/53 56/56/56 55/55/55
f 56/56/56 57/57/57 55/55/55
f 56/56/56 58/58/58 57/57/57
f 59/59/59 53/53/53 54/54/54
f 59/59/59 54/54/54 60/60/60
f 61/61/61 63/63/63 62/62/62
f 61/61/61 64/64/64 63/63/63
f 65/65/65 67/67/67 66/66/66
f 65/65/65 68/68/68 67/67/67
f 69/69/69 71/71/71 70/70/70
f 69/69/69 72/72/72 71/71/71
f 72/72/72 73/73/73 71/71/71
f 72/72/72 74/74/74 73/73/73
f 75/75/75 69/69/69 70/70/70
f 75/75/75 70/70/70 76/76/76
f 77/77/77 79/79/79 78/78/78
f 77/77/77 80/80/80 79/79/79
f 81/81/81 83/83/83 82/82/82
f 81/81/81 84/84/84 83/83/83
f 85/85/85 87/87/87 86/86/86
f 87/87/87 85/85/85 88/88/88
f 88/88/88 85/85/85 89/89/89
f 90/90/90 92/92/92 91/91/91
f 90/90/90 93/93/93 92/92/92
f 94/94/94 96/96/96 95/95/95
f 96/96/96 94/94/94 97/97/97
f 97/97/97 94/94/94 98/98/98
f 99/99/99 101/101/101 100/100/100
f 99/99/99 102/102/102 101/101/101
f 103/103/103 105/105/105 104/104/104
f 103/103/103 106/106/106 105/105/105
f 107/107/107 109/109/109 108/108/108
f 109/109/109 107/107/107 110/110/110
f 110/110/110 107/107/107 111/111/111
f 112/112/112 114/114/114 113/113/113
f 112/112/112 115/115/115 114/114/114
f 116/116/116 118/118/118 117/117/117
f 118/118/118 116/116/116 119/119/119
f 119/119/119 116/116/116 120/120/120
f 121/121/121 123/123/123 122/122/122
f 121/121/121 124/124/124 123/123/123
f 125/125/125 127/127/127 126/126/126
f 125/125/125 128/128/128 127/127/127
