#IceCube_(18)_775_48.obj

v -5.439287 -5.396631 -5.417995
v -5.396625 5.439294 -5.417998
v -5.396624 5.439294 5.418003
v -5.439286 -5.396631 5.418006
v -5.396625 5.439294 -5.417998
v 5.439291 5.396631 -5.417996
v 5.439292 5.396631 5.418005
v -5.396624 5.439294 5.418003
v 5.439291 5.396631 -5.417996
v 5.396629 -5.439294 -5.417993
v 5.39663 -5.439294 5.418008
v 5.439292 5.396631 5.418005
v 5.396629 -5.439294 -5.417993
v -5.439287 -5.396631 -5.417995
v -5.439286 -5.396631 5.418006
v 5.39663 -5.439294 5.418008
v -5.396625 5.439294 -5.417998
v -5.439287 -5.396631 -5.417995
v 5.396629 -5.439294 -5.417993
v 5.439291 5.396631 -5.417996
v 5.439292 5.396631 5.418005
v 5.39663 -5.439294 5.418008
v -5.439286 -5.396631 5.418006
v -5.396624 5.439294 5.418003

vn -0.7138539 0.004724209 -0.7002786
vn -0.7138539 0.004724209 -0.7002786
vn -0.7138539 0.004724209 -0.7002786
vn -0.7138539 0.004724209 -0.7002786
vn 0.002342033 0.9999946 0.002297495
vn 0.002342033 0.9999946 0.002297495
vn 0.002342033 0.9999946 0.002297495
vn 0.002342033 0.9999946 0.002297495
vn 0.7138539 -0.004724248 0.7002786
vn 0.7138539 -0.004724248 0.7002786
vn 0.7138539 -0.004724248 0.7002786
vn 0.7138539 -0.004724248 0.7002786
vn -0.002342059 -0.9999946 -0.002297521
vn -0.002342059 -0.9999946 -0.002297521
vn -0.002342059 -0.9999946 -0.002297521
vn -0.002342059 -0.9999946 -0.002297521
vn 0.7002866 0 -0.7138619
vn 0.7002866 0 -0.7138619
vn 0.7002866 0 -0.7138619
vn 0.7002866 0 -0.7138619
vn -0.7002866 0 0.7138619
vn -0.7002866 0 0.7138619
vn -0.7002866 0 0.7138619
vn -0.7002866 0 0.7138619

vt 0.1268311 0.6103516
vt 0.1268311 0.9106445
vt 0.4267578 0.9106445
vt 0.4267578 0.6103516
vt 0.1268311 0.6103516
vt 0.1268311 0.9106445
vt 0.4267578 0.9106445
vt 0.4267578 0.6103516
vt 0.1268311 0.6103516
vt 0.1268311 0.9106445
vt 0.4267578 0.9106445
vt 0.4267578 0.6103516
vt 0.1268311 0.6103516
vt 0.1268311 0.9106445
vt 0.4267578 0.9106445
vt 0.4267578 0.6103516
vt 0.1268311 0.6103516
vt 0.1268311 0.9106445
vt 0.4267578 0.9106445
vt 0.4267578 0.6103516
vt 0.1268311 0.6103516
vt 0.1268311 0.9106445
vt 0.4267578 0.9106445
vt 0.4267578 0.6103516

g IceCube_(18)_775_48
usemtl IceCube_(18)_775_48
usemap IceCube_(18)_775_48
f 1/1/1 3/3/3 2/2/2
f 1/1/1 4/4/4 3/3/3
f 5/5/5 7/7/7 6/6/6
f 5/5/5 8/8/8 7/7/7
f 9/9/9 11/11/11 10/10/10
f 9/9/9 12/12/12 11/11/11
f 13/13/13 15/15/15 14/14/14
f 13/13/13 16/16/16 15/15/15
f 17/17/17 19/19/19 18/18/18
f 17/17/17 20/20/20 19/19/19
f 21/21/21 23/23/23 22/22/22
f 21/21/21 24/24/24 23/23/23
