#IceCube_(22)_902_27.obj

v -5.439295 -5.396729 -5.41797
v -5.396642 5.439454 -5.417981
v -5.396648 5.439454 5.418032
v -5.439312 -5.396729 5.418032
v -5.396642 5.439454 -5.417981
v 5.439285 5.396729 -5.417976
v 5.439273 5.396729 5.418032
v -5.396648 5.439454 5.418032
v 5.439285 5.396729 -5.417976
v 5.396621 -5.439454 -5.417975
v 5.396609 -5.439454 5.418032
v 5.439273 5.396729 5.418032
v 5.396621 -5.439454 -5.417975
v -5.439295 -5.396729 -5.41797
v -5.439312 -5.396729 5.418032
v 5.396609 -5.439454 5.418032
v -5.396642 5.439454 -5.417981
v -5.439295 -5.396729 -5.41797
v 5.396621 -5.439454 -5.417975
v 5.439285 5.396729 -5.417976
v 5.439273 5.396729 5.418032
v 5.396609 -5.439454 5.418032
v -5.439312 -5.396729 5.418032
v -5.396648 5.439454 5.418032

vn -0.7137237 0.01968061 -0.7001508
vn -0.7137237 0.01968061 -0.7001508
vn -0.7137237 0.01968061 -0.7001508
vn -0.7137237 0.01968061 -0.7001508
vn 0.0005620907 0.9999997 0.0005514015
vn 0.0005620907 0.9999997 0.0005514015
vn 0.0005620907 0.9999997 0.0005514015
vn 0.0005620907 0.9999997 0.0005514015
vn 0.7137237 -0.01968077 0.7001508
vn 0.7137237 -0.01968077 0.7001508
vn 0.7137237 -0.01968077 0.7001508
vn 0.7137237 -0.01968077 0.7001508
vn -0.0005620971 -0.9999997 -0.0005514077
vn -0.0005620971 -0.9999997 -0.0005514077
vn -0.0005620971 -0.9999997 -0.0005514077
vn -0.0005620971 -0.9999997 -0.0005514077
vn 0.7002865 0 -0.7138619
vn 0.7002865 0 -0.7138619
vn 0.7002865 0 -0.7138619
vn 0.7002865 0 -0.7138619
vn -0.7002865 0 0.7138619
vn -0.7002865 0 0.7138619
vn -0.7002865 0 0.7138619
vn -0.7002865 0 0.7138619

vt 0.1268311 0.6103516
vt 0.1268311 0.9106445
vt 0.4267578 0.9106445
vt 0.4267578 0.6103516
vt 0.1268311 0.6103516
vt 0.1268311 0.9106445
vt 0.4267578 0.9106445
vt 0.4267578 0.6103516
vt 0.1268311 0.6103516
vt 0.1268311 0.9106445
vt 0.4267578 0.9106445
vt 0.4267578 0.6103516
vt 0.1268311 0.6103516
vt 0.1268311 0.9106445
vt 0.4267578 0.9106445
vt 0.4267578 0.6103516
vt 0.1268311 0.6103516
vt 0.1268311 0.9106445
vt 0.4267578 0.9106445
vt 0.4267578 0.6103516
vt 0.1268311 0.6103516
vt 0.1268311 0.9106445
vt 0.4267578 0.9106445
vt 0.4267578 0.6103516

g IceCube_(22)_902_27
usemtl IceCube_(22)_902_27
usemap IceCube_(22)_902_27
f 1/1/1 3/3/3 2/2/2
f 1/1/1 4/4/4 3/3/3
f 5/5/5 7/7/7 6/6/6
f 5/5/5 8/8/8 7/7/7
f 9/9/9 11/11/11 10/10/10
f 9/9/9 12/12/12 11/11/11
f 13/13/13 15/15/15 14/14/14
f 13/13/13 16/16/16 15/15/15
f 17/17/17 19/19/19 18/18/18
f 17/17/17 20/20/20 19/19/19
f 21/21/21 23/23/23 22/22/22
f 21/21/21 24/24/24 23/23/23
