#IceCube_(27)_761_115.obj

v -5.439224 -5.396729 -5.418009
v -5.396615 5.43925 -5.417977
v -5.396577 5.43925 5.417993
v -5.439198 -5.396729 5.41795
v -5.396615 5.43925 -5.417977
v 5.439312 5.396729 -5.417972
v 5.439339 5.396729 5.417987
v -5.396577 5.43925 5.417993
v 5.439312 5.396729 -5.417972
v 5.396692 -5.43925 -5.418015
v 5.396729 -5.43925 5.417956
v 5.439339 5.396729 5.417987
v 5.396692 -5.43925 -5.418015
v -5.439224 -5.396729 -5.418009
v -5.439198 -5.396729 5.41795
v 5.396729 -5.43925 5.417956
v -5.396615 5.43925 -5.417977
v -5.439224 -5.396729 -5.418009
v 5.396692 -5.43925 -5.418015
v 5.439312 5.396729 -5.417972
v 5.439339 5.396729 5.417987
v 5.396729 -5.43925 5.417956
v -5.439198 -5.396729 5.41795
v -5.396577 5.43925 5.417993

vn -0.7138581 0.003280719 -0.7002827
vn -0.7138581 0.003280719 -0.7002827
vn -0.7138581 0.003280719 -0.7002827
vn -0.7138581 0.003280719 -0.7002827
vn 0.003372508 0.9999888 0.003308373
vn 0.003372508 0.9999888 0.003308373
vn 0.003372508 0.9999888 0.003308373
vn 0.003372508 0.9999888 0.003308373
vn 0.7138581 -0.003280746 0.7002827
vn 0.7138581 -0.003280746 0.7002827
vn 0.7138581 -0.003280746 0.7002827
vn 0.7138581 -0.003280746 0.7002827
vn -0.003372546 -0.9999888 -0.003308411
vn -0.003372546 -0.9999888 -0.003308411
vn -0.003372546 -0.9999888 -0.003308411
vn -0.003372546 -0.9999888 -0.003308411
vn 0.7002865 0 -0.7138619
vn 0.7002865 0 -0.7138619
vn 0.7002865 0 -0.7138619
vn 0.7002865 0 -0.7138619
vn -0.7002865 0 0.7138619
vn -0.7002865 0 0.7138619
vn -0.7002865 0 0.7138619
vn -0.7002865 0 0.7138619

vt 0.1268311 0.6103516
vt 0.1268311 0.9106445
vt 0.4267578 0.9106445
vt 0.4267578 0.6103516
vt 0.1268311 0.6103516
vt 0.1268311 0.9106445
vt 0.4267578 0.9106445
vt 0.4267578 0.6103516
vt 0.1268311 0.6103516
vt 0.1268311 0.9106445
vt 0.4267578 0.9106445
vt 0.4267578 0.6103516
vt 0.1268311 0.6103516
vt 0.1268311 0.9106445
vt 0.4267578 0.9106445
vt 0.4267578 0.6103516
vt 0.1268311 0.6103516
vt 0.1268311 0.9106445
vt 0.4267578 0.9106445
vt 0.4267578 0.6103516
vt 0.1268311 0.6103516
vt 0.1268311 0.9106445
vt 0.4267578 0.9106445
vt 0.4267578 0.6103516

g IceCube_(27)_761_115
usemtl IceCube_(27)_761_115
usemap IceCube_(27)_761_115
f 1/1/1 3/3/3 2/2/2
f 1/1/1 4/4/4 3/3/3
f 5/5/5 7/7/7 6/6/6
f 5/5/5 8/8/8 7/7/7
f 9/9/9 11/11/11 10/10/10
f 9/9/9 12/12/12 11/11/11
f 13/13/13 15/15/15 14/14/14
f 13/13/13 16/16/16 15/15/15
f 17/17/17 19/19/19 18/18/18
f 17/17/17 20/20/20 19/19/19
f 21/21/21 23/23/23 22/22/22
f 21/21/21 24/24/24 23/23/23
