#IceCube_(17)_800_103.obj

v -5.439288 -5.396597 -5.417989
v -5.396632 5.439322 -5.417986
v -5.396618 5.439322 5.418018
v -5.439274 -5.396597 5.418015
v -5.396632 5.439322 -5.417986
v 5.439284 5.396597 -5.417982
v 5.439299 5.396597 5.418022
v -5.396618 5.439322 5.418018
v 5.439284 5.396597 -5.417982
v 5.396628 -5.439322 -5.417985
v 5.396643 -5.439322 5.418018
v 5.439299 5.396597 5.418022
v 5.396628 -5.439322 -5.417985
v -5.439288 -5.396597 -5.417989
v -5.439274 -5.396597 5.418015
v 5.396643 -5.439322 5.418018
v -5.396632 5.439322 -5.417986
v -5.439288 -5.396597 -5.417989
v 5.396628 -5.439322 -5.417985
v 5.439284 5.396597 -5.417982
v 5.439299 5.396597 5.418022
v 5.396643 -5.439322 5.418018
v -5.439274 -5.396597 5.418015
v -5.396618 5.439322 5.418018

vn -0.9683468 0.006256713 0.2495303
vn -0.9683468 0.006256713 0.2495303
vn -0.9683468 0.006256713 0.2495303
vn -0.9683468 0.006256713 0.2495303
vn 0.002398824 0.9999969 -0.0006181455
vn 0.002398824 0.9999969 -0.0006181455
vn 0.002398824 0.9999969 -0.0006181455
vn 0.002398824 0.9999969 -0.0006181455
vn 0.9683468 -0.006256765 -0.2495303
vn 0.9683468 -0.006256765 -0.2495303
vn 0.9683468 -0.006256765 -0.2495303
vn 0.9683468 -0.006256765 -0.2495303
vn -0.002398851 -0.9999969 0.0006181526
vn -0.002398851 -0.9999969 0.0006181526
vn -0.002398851 -0.9999969 0.0006181526
vn -0.002398851 -0.9999969 0.0006181526
vn -0.2495352 0 -0.9683657
vn -0.2495352 0 -0.9683657
vn -0.2495352 0 -0.9683657
vn -0.2495352 0 -0.9683657
vn 0.2495352 0 0.9683657
vn 0.2495352 0 0.9683657
vn 0.2495352 0 0.9683657
vn 0.2495352 0 0.9683657

vt 0.1268311 0.6103516
vt 0.1268311 0.9106445
vt 0.4267578 0.9106445
vt 0.4267578 0.6103516
vt 0.1268311 0.6103516
vt 0.1268311 0.9106445
vt 0.4267578 0.9106445
vt 0.4267578 0.6103516
vt 0.1268311 0.6103516
vt 0.1268311 0.9106445
vt 0.4267578 0.9106445
vt 0.4267578 0.6103516
vt 0.1268311 0.6103516
vt 0.1268311 0.9106445
vt 0.4267578 0.9106445
vt 0.4267578 0.6103516
vt 0.1268311 0.6103516
vt 0.1268311 0.9106445
vt 0.4267578 0.9106445
vt 0.4267578 0.6103516
vt 0.1268311 0.6103516
vt 0.1268311 0.9106445
vt 0.4267578 0.9106445
vt 0.4267578 0.6103516

g IceCube_(17)_800_103
usemtl IceCube_(17)_800_103
usemap IceCube_(17)_800_103
f 1/1/1 3/3/3 2/2/2
f 1/1/1 4/4/4 3/3/3
f 5/5/5 7/7/7 6/6/6
f 5/5/5 8/8/8 7/7/7
f 9/9/9 11/11/11 10/10/10
f 9/9/9 12/12/12 11/11/11
f 13/13/13 15/15/15 14/14/14
f 13/13/13 16/16/16 15/15/15
f 17/17/17 19/19/19 18/18/18
f 17/17/17 20/20/20 19/19/19
f 21/21/21 23/23/23 22/22/22
f 21/21/21 24/24/24 23/23/23
