#IceCube_(13)_708_60.obj

v -5.439278 -5.396606 -5.417994
v -5.396608 5.43927 -5.417993
v -5.396621 5.43927 5.418006
v -5.439291 -5.396606 5.418003
v -5.396608 5.43927 -5.417993
v 5.439312 5.396606 -5.417993
v 5.439299 5.396606 5.418006
v -5.396621 5.43927 5.418006
v 5.439312 5.396606 -5.417993
v 5.396641 -5.43927 -5.417994
v 5.396629 -5.43927 5.418004
v 5.439299 5.396606 5.418006
v 5.396641 -5.43927 -5.417994
v -5.439278 -5.396606 -5.417994
v -5.439291 -5.396606 5.418003
v 5.396629 -5.43927 5.418004
v -5.396608 5.43927 -5.417993
v -5.439278 -5.396606 -5.417994
v 5.396641 -5.43927 -5.417994
v 5.439312 5.396606 -5.417993
v 5.439299 5.396606 5.418006
v 5.396629 -5.43927 5.418004
v -5.439291 -5.396606 5.418003
v -5.396621 5.43927 5.418006

vn -0.9683583 0.003936854 0.2495331
vn -0.9683583 0.003936854 0.2495331
vn -0.9683583 0.003936854 0.2495331
vn -0.9683583 0.003936854 0.2495331
vn 0.0038124 0.9999923 -0.0009824049
vn 0.0038124 0.9999923 -0.0009824049
vn 0.0038124 0.9999923 -0.0009824049
vn 0.0038124 0.9999923 -0.0009824049
vn 0.9683583 -0.003936887 -0.2495331
vn 0.9683583 -0.003936887 -0.2495331
vn 0.9683583 -0.003936887 -0.2495331
vn 0.9683583 -0.003936887 -0.2495331
vn -0.003812443 -0.9999923 0.0009824161
vn -0.003812443 -0.9999923 0.0009824161
vn -0.003812443 -0.9999923 0.0009824161
vn -0.003812443 -0.9999923 0.0009824161
vn -0.2495351 0 -0.9683658
vn -0.2495351 0 -0.9683658
vn -0.2495351 0 -0.9683658
vn -0.2495351 0 -0.9683658
vn 0.2495351 0 0.9683658
vn 0.2495351 0 0.9683658
vn 0.2495351 0 0.9683658
vn 0.2495351 0 0.9683658

vt 0.1268311 0.6103516
vt 0.1268311 0.9106445
vt 0.4267578 0.9106445
vt 0.4267578 0.6103516
vt 0.1268311 0.6103516
vt 0.1268311 0.9106445
vt 0.4267578 0.9106445
vt 0.4267578 0.6103516
vt 0.1268311 0.6103516
vt 0.1268311 0.9106445
vt 0.4267578 0.9106445
vt 0.4267578 0.6103516
vt 0.1268311 0.6103516
vt 0.1268311 0.9106445
vt 0.4267578 0.9106445
vt 0.4267578 0.6103516
vt 0.1268311 0.6103516
vt 0.1268311 0.9106445
vt 0.4267578 0.9106445
vt 0.4267578 0.6103516
vt 0.1268311 0.6103516
vt 0.1268311 0.9106445
vt 0.4267578 0.9106445
vt 0.4267578 0.6103516

g IceCube_(13)_708_60
usemtl IceCube_(13)_708_60
usemap IceCube_(13)_708_60
f 1/1/1 3/3/3 2/2/2
f 1/1/1 4/4/4 3/3/3
f 5/5/5 7/7/7 6/6/6
f 5/5/5 8/8/8 7/7/7
f 9/9/9 11/11/11 10/10/10
f 9/9/9 12/12/12 11/11/11
f 13/13/13 15/15/15 14/14/14
f 13/13/13 16/16/16 15/15/15
f 17/17/17 19/19/19 18/18/18
f 17/17/17 20/20/20 19/19/19
f 21/21/21 23/23/23 22/22/22
f 21/21/21 24/24/24 23/23/23
