#IceCube_(4)_797_124.obj

v -5.439289 -5.396637 -5.417994
v -5.396631 5.439301 -5.417994
v -5.396628 5.439301 5.418007
v -5.439287 -5.396637 5.418008
v -5.396631 5.439301 -5.417994
v 5.439285 5.396637 -5.418
v 5.439288 5.396637 5.418003
v -5.396628 5.439301 5.418007
v 5.439285 5.396637 -5.418
v 5.396626 -5.439301 -5.417997
v 5.396625 -5.439301 5.418
v 5.439288 5.396637 5.418003
v 5.396626 -5.439301 -5.417997
v -5.439289 -5.396637 -5.417994
v -5.439287 -5.396637 5.418008
v 5.396625 -5.439301 5.418
v -5.396631 5.439301 -5.417994
v -5.439289 -5.396637 -5.417994
v 5.396626 -5.439301 -5.417997
v 5.439285 5.396637 -5.418
v 5.439288 5.396637 5.418003
v 5.396625 -5.439301 5.418
v -5.439287 -5.396637 5.418008
v -5.396628 5.439301 5.418007

vn -0.8711717 0.009841735 0.4908799
vn -0.8711717 0.009841735 0.4908799
vn -0.8711717 0.009841735 0.4908799
vn -0.8711717 0.009841735 0.4908799
vn 0.001371976 0.9999987 -0.0007730686
vn 0.001371976 0.9999987 -0.0007730686
vn 0.001371976 0.9999987 -0.0007730686
vn 0.001371976 0.9999987 -0.0007730686
vn 0.8711717 -0.009841817 -0.4908799
vn 0.8711717 -0.009841817 -0.4908799
vn 0.8711717 -0.009841817 -0.4908799
vn 0.8711717 -0.009841817 -0.4908799
vn -0.001371992 -0.9999987 0.0007730774
vn -0.001371992 -0.9999987 0.0007730774
vn -0.001371992 -0.9999987 0.0007730774
vn -0.001371992 -0.9999987 0.0007730774
vn -0.4909036 0 -0.8712139
vn -0.4909036 0 -0.8712139
vn -0.4909036 0 -0.8712139
vn -0.4909036 0 -0.8712139
vn 0.4909036 0 0.8712139
vn 0.4909036 0 0.8712139
vn 0.4909036 0 0.8712139
vn 0.4909036 0 0.8712139

vt 0.1268311 0.6103516
vt 0.1268311 0.9106445
vt 0.4267578 0.9106445
vt 0.4267578 0.6103516
vt 0.1268311 0.6103516
vt 0.1268311 0.9106445
vt 0.4267578 0.9106445
vt 0.4267578 0.6103516
vt 0.1268311 0.6103516
vt 0.1268311 0.9106445
vt 0.4267578 0.9106445
vt 0.4267578 0.6103516
vt 0.1268311 0.6103516
vt 0.1268311 0.9106445
vt 0.4267578 0.9106445
vt 0.4267578 0.6103516
vt 0.1268311 0.6103516
vt 0.1268311 0.9106445
vt 0.4267578 0.9106445
vt 0.4267578 0.6103516
vt 0.1268311 0.6103516
vt 0.1268311 0.9106445
vt 0.4267578 0.9106445
vt 0.4267578 0.6103516

g IceCube_(4)_797_124
usemtl IceCube_(4)_797_124
usemap IceCube_(4)_797_124
f 1/1/1 3/3/3 2/2/2
f 1/1/1 4/4/4 3/3/3
f 5/5/5 7/7/7 6/6/6
f 5/5/5 8/8/8 7/7/7
f 9/9/9 11/11/11 10/10/10
f 9/9/9 12/12/12 11/11/11
f 13/13/13 15/15/15 14/14/14
f 13/13/13 16/16/16 15/15/15
f 17/17/17 19/19/19 18/18/18
f 17/17/17 20/20/20 19/19/19
f 21/21/21 23/23/23 22/22/22
f 21/21/21 24/24/24 23/23/23
