#IceCube_(12)_740_63.obj

v -5.439313 -5.396606 -5.417979
v -5.39665 5.439331 -5.41798
v -5.396652 5.439331 5.41802
v -5.439315 -5.396606 5.418021
v -5.39665 5.439331 -5.41798
v 5.439304 5.396606 -5.417991
v 5.439302 5.396606 5.418011
v -5.396652 5.439331 5.41802
v 5.439304 5.396606 -5.417991
v 5.396641 -5.439331 -5.41799
v 5.396639 -5.439331 5.418012
v 5.439302 5.396606 5.418011
v 5.396641 -5.439331 -5.41799
v -5.439313 -5.396606 -5.417979
v -5.439315 -5.396606 5.418021
v 5.396639 -5.439331 5.418012
v -5.39665 5.439331 -5.41798
v -5.439313 -5.396606 -5.417979
v 5.396641 -5.439331 -5.41799
v 5.439304 5.396606 -5.417991
v 5.439302 5.396606 5.418011
v 5.396639 -5.439331 5.418012
v -5.439315 -5.396606 5.418021
v -5.396652 5.439331 5.41802

vn -0.9756802 0.003936854 -0.2191635
vn -0.9756802 0.003936854 -0.2191635
vn -0.9756802 0.003936854 -0.2191635
vn -0.9756802 0.003936854 -0.2191635
vn 0.003841226 0.9999923 0.0008628405
vn 0.003841226 0.9999923 0.0008628405
vn 0.003841226 0.9999923 0.0008628405
vn 0.003841226 0.9999923 0.0008628405
vn 0.9756802 -0.003936887 0.2191635
vn 0.9756802 -0.003936887 0.2191635
vn 0.9756802 -0.003936887 0.2191635
vn 0.9756802 -0.003936887 0.2191635
vn -0.003841269 -0.9999923 -0.0008628503
vn -0.003841269 -0.9999923 -0.0008628503
vn -0.003841269 -0.9999923 -0.0008628503
vn -0.003841269 -0.9999923 -0.0008628503
vn 0.2191652 0 -0.9756877
vn 0.2191652 0 -0.9756877
vn 0.2191652 0 -0.9756877
vn 0.2191652 0 -0.9756877
vn -0.2191652 0 0.9756877
vn -0.2191652 0 0.9756877
vn -0.2191652 0 0.9756877
vn -0.2191652 0 0.9756877

vt 0.1268311 0.6103516
vt 0.1268311 0.9106445
vt 0.4267578 0.9106445
vt 0.4267578 0.6103516
vt 0.1268311 0.6103516
vt 0.1268311 0.9106445
vt 0.4267578 0.9106445
vt 0.4267578 0.6103516
vt 0.1268311 0.6103516
vt 0.1268311 0.9106445
vt 0.4267578 0.9106445
vt 0.4267578 0.6103516
vt 0.1268311 0.6103516
vt 0.1268311 0.9106445
vt 0.4267578 0.9106445
vt 0.4267578 0.6103516
vt 0.1268311 0.6103516
vt 0.1268311 0.9106445
vt 0.4267578 0.9106445
vt 0.4267578 0.6103516
vt 0.1268311 0.6103516
vt 0.1268311 0.9106445
vt 0.4267578 0.9106445
vt 0.4267578 0.6103516

g IceCube_(12)_740_63
usemtl IceCube_(12)_740_63
usemap IceCube_(12)_740_63
f 1/1/1 3/3/3 2/2/2
f 1/1/1 4/4/4 3/3/3
f 5/5/5 7/7/7 6/6/6
f 5/5/5 8/8/8 7/7/7
f 9/9/9 11/11/11 10/10/10
f 9/9/9 12/12/12 11/11/11
f 13/13/13 15/15/15 14/14/14
f 13/13/13 16/16/16 15/15/15
f 17/17/17 19/19/19 18/18/18
f 17/17/17 20/20/20 19/19/19
f 21/21/21 23/23/23 22/22/22
f 21/21/21 24/24/24 23/23/23
