#IceCube_(6)_921_82.obj

v -5.439286 -5.396606 -5.417994
v -5.396623 5.439331 -5.417995
v -5.396624 5.439331 5.418008
v -5.439288 -5.396606 5.418005
v -5.396623 5.439331 -5.417995
v 5.439292 5.396606 -5.417995
v 5.439291 5.396606 5.418008
v -5.396624 5.439331 5.418008
v 5.439292 5.396606 -5.417995
v 5.396628 -5.439331 -5.417998
v 5.396627 -5.439331 5.418005
v 5.439291 5.396606 5.418008
v 5.396628 -5.439331 -5.417998
v -5.439286 -5.396606 -5.417994
v -5.439288 -5.396606 5.418005
v 5.396627 -5.439331 5.418005
v -5.396623 5.439331 -5.417995
v -5.439286 -5.396606 -5.417994
v 5.396628 -5.439331 -5.417998
v 5.439292 5.396606 -5.417995
v 5.439291 5.396606 5.418008
v 5.396627 -5.439331 5.418005
v -5.439288 -5.396606 5.418005
v -5.396624 5.439331 5.418008

vn -0.9756197 0.01180983 -0.21915
vn -0.9756197 0.01180983 -0.21915
vn -0.9756197 0.01180983 -0.21915
vn -0.9756197 0.01180983 -0.21915
vn 0.001280417 0.9999992 0.0002876155
vn 0.001280417 0.9999992 0.0002876155
vn 0.001280417 0.9999992 0.0002876155
vn 0.001280417 0.9999992 0.0002876155
vn 0.9756197 -0.01180993 0.21915
vn 0.9756197 -0.01180993 0.21915
vn 0.9756197 -0.01180993 0.21915
vn 0.9756197 -0.01180993 0.21915
vn -0.001280432 -0.9999992 -0.0002876188
vn -0.001280432 -0.9999992 -0.0002876188
vn -0.001280432 -0.9999992 -0.0002876188
vn -0.001280432 -0.9999992 -0.0002876188
vn 0.2191652 0 -0.9756877
vn 0.2191652 0 -0.9756877
vn 0.2191652 0 -0.9756877
vn 0.2191652 0 -0.9756877
vn -0.2191652 0 0.9756877
vn -0.2191652 0 0.9756877
vn -0.2191652 0 0.9756877
vn -0.2191652 0 0.9756877

vt 0.1268311 0.6103516
vt 0.1268311 0.9106445
vt 0.4267578 0.9106445
vt 0.4267578 0.6103516
vt 0.1268311 0.6103516
vt 0.1268311 0.9106445
vt 0.4267578 0.9106445
vt 0.4267578 0.6103516
vt 0.1268311 0.6103516
vt 0.1268311 0.9106445
vt 0.4267578 0.9106445
vt 0.4267578 0.6103516
vt 0.1268311 0.6103516
vt 0.1268311 0.9106445
vt 0.4267578 0.9106445
vt 0.4267578 0.6103516
vt 0.1268311 0.6103516
vt 0.1268311 0.9106445
vt 0.4267578 0.9106445
vt 0.4267578 0.6103516
vt 0.1268311 0.6103516
vt 0.1268311 0.9106445
vt 0.4267578 0.9106445
vt 0.4267578 0.6103516

g IceCube_(6)_921_82
usemtl IceCube_(6)_921_82
usemap IceCube_(6)_921_82
f 1/1/1 3/3/3 2/2/2
f 1/1/1 4/4/4 3/3/3
f 5/5/5 7/7/7 6/6/6
f 5/5/5 8/8/8 7/7/7
f 9/9/9 11/11/11 10/10/10
f 9/9/9 12/12/12 11/11/11
f 13/13/13 15/15/15 14/14/14
f 13/13/13 16/16/16 15/15/15
f 17/17/17 19/19/19 18/18/18
f 17/17/17 20/20/20 19/19/19
f 21/21/21 23/23/23 22/22/22
f 21/21/21 24/24/24 23/23/23
