#IceCube_(24)_718_179.obj

v -5.439289 -5.396627 -5.417995
v -5.396636 5.439301 -5.417989
v -5.396635 5.439301 5.418014
v -5.439291 -5.396627 5.418005
v -5.396636 5.439301 -5.417989
v 5.439285 5.396627 -5.41799
v 5.439283 5.396627 5.41801
v -5.396635 5.439301 5.418014
v 5.439285 5.396627 -5.41799
v 5.396629 -5.439301 -5.417998
v 5.39663 -5.439301 5.418004
v 5.439283 5.396627 5.41801
v 5.396629 -5.439301 -5.417998
v -5.439289 -5.396627 -5.417995
v -5.439291 -5.396627 5.418005
v 5.39663 -5.439301 5.418004
v -5.396636 5.439301 -5.417989
v -5.439289 -5.396627 -5.417995
v 5.396629 -5.439301 -5.417998
v 5.439285 5.396627 -5.41799
v 5.439283 5.396627 5.41801
v 5.39663 -5.439301 5.418004
v -5.439291 -5.396627 5.418005
v -5.396635 5.439301 5.418014

vn -0.7138379 0.008201567 -0.700263
vn -0.7138379 0.008201567 -0.700263
vn -0.7138379 0.008201567 -0.700263
vn -0.7138379 0.008201567 -0.700263
vn 0.001349016 0.9999982 0.001323362
vn 0.001349016 0.9999982 0.001323362
vn 0.001349016 0.9999982 0.001323362
vn 0.001349016 0.9999982 0.001323362
vn 0.7138379 -0.008201635 0.700263
vn 0.7138379 -0.008201635 0.700263
vn 0.7138379 -0.008201635 0.700263
vn 0.7138379 -0.008201635 0.700263
vn -0.001349031 -0.9999982 -0.001323377
vn -0.001349031 -0.9999982 -0.001323377
vn -0.001349031 -0.9999982 -0.001323377
vn -0.001349031 -0.9999982 -0.001323377
vn 0.7002865 0 -0.7138619
vn 0.7002865 0 -0.7138619
vn 0.7002865 0 -0.7138619
vn 0.7002865 0 -0.7138619
vn -0.7002865 0 0.7138619
vn -0.7002865 0 0.7138619
vn -0.7002865 0 0.7138619
vn -0.7002865 0 0.7138619

vt 0.1268311 0.6103516
vt 0.1268311 0.9106445
vt 0.4267578 0.9106445
vt 0.4267578 0.6103516
vt 0.1268311 0.6103516
vt 0.1268311 0.9106445
vt 0.4267578 0.9106445
vt 0.4267578 0.6103516
vt 0.1268311 0.6103516
vt 0.1268311 0.9106445
vt 0.4267578 0.9106445
vt 0.4267578 0.6103516
vt 0.1268311 0.6103516
vt 0.1268311 0.9106445
vt 0.4267578 0.9106445
vt 0.4267578 0.6103516
vt 0.1268311 0.6103516
vt 0.1268311 0.9106445
vt 0.4267578 0.9106445
vt 0.4267578 0.6103516
vt 0.1268311 0.6103516
vt 0.1268311 0.9106445
vt 0.4267578 0.9106445
vt 0.4267578 0.6103516

g IceCube_(24)_718_179
usemtl IceCube_(24)_718_179
usemap IceCube_(24)_718_179
f 1/1/1 3/3/3 2/2/2
f 1/1/1 4/4/4 3/3/3
f 5/5/5 7/7/7 6/6/6
f 5/5/5 8/8/8 7/7/7
f 9/9/9 11/11/11 10/10/10
f 9/9/9 12/12/12 11/11/11
f 13/13/13 15/15/15 14/14/14
f 13/13/13 16/16/16 15/15/15
f 17/17/17 19/19/19 18/18/18
f 17/17/17 20/20/20 19/19/19
f 21/21/21 23/23/23 22/22/22
f 21/21/21 24/24/24 23/23/23
