#IceCube_(8)_745_50.obj

v -5.439274 -5.396619 -5.417989
v -5.39663 5.43931 -5.41799
v -5.396617 5.43931 5.418007
v -5.439282 -5.396619 5.418007
v -5.39663 5.43931 -5.41799
v 5.439296 5.396619 -5.417984
v 5.439289 5.396619 5.418014
v -5.396617 5.43931 5.418007
v 5.439296 5.396619 -5.417984
v 5.396631 -5.43931 -5.417983
v 5.396644 -5.43931 5.418015
v 5.439289 5.396619 5.418014
v 5.396631 -5.43931 -5.417983
v -5.439274 -5.396619 -5.417989
v -5.439282 -5.396619 5.418007
v 5.396644 -5.43931 5.418015
v -5.39663 5.43931 -5.41799
v -5.439274 -5.396619 -5.417989
v 5.396631 -5.43931 -5.417983
v 5.439296 5.396619 -5.417984
v 5.439289 5.396619 5.418014
v 5.396644 -5.43931 5.418015
v -5.439282 -5.396619 5.418007
v -5.396617 5.43931 5.418007

vn -0.9999318 0.008640776 0.00785389
vn -0.9999318 0.008640776 0.00785389
vn -0.9999318 0.008640776 0.00785389
vn -0.9999318 0.008640776 0.00785389
vn 0.001793626 0.9999984 -1.40879E-05
vn 0.001793626 0.9999984 -1.40879E-05
vn 0.001793626 0.9999984 -1.40879E-05
vn 0.001793626 0.9999984 -1.40879E-05
vn 0.9999318 -0.008640848 -0.00785389
vn 0.9999318 -0.008640848 -0.00785389
vn 0.9999318 -0.008640848 -0.00785389
vn 0.9999318 -0.008640848 -0.00785389
vn -0.001793646 -0.9999984 1.408806E-05
vn -0.001793646 -0.9999984 1.408806E-05
vn -0.001793646 -0.9999984 1.408806E-05
vn -0.001793646 -0.9999984 1.408806E-05
vn -0.007854183 0 -0.9999692
vn -0.007854183 0 -0.9999692
vn -0.007854183 0 -0.9999692
vn -0.007854183 0 -0.9999692
vn 0.007854183 0 0.9999692
vn 0.007854183 0 0.9999692
vn 0.007854183 0 0.9999692
vn 0.007854183 0 0.9999692

vt 0.1268311 0.6103516
vt 0.1268311 0.9106445
vt 0.4267578 0.9106445
vt 0.4267578 0.6103516
vt 0.1268311 0.6103516
vt 0.1268311 0.9106445
vt 0.4267578 0.9106445
vt 0.4267578 0.6103516
vt 0.1268311 0.6103516
vt 0.1268311 0.9106445
vt 0.4267578 0.9106445
vt 0.4267578 0.6103516
vt 0.1268311 0.6103516
vt 0.1268311 0.9106445
vt 0.4267578 0.9106445
vt 0.4267578 0.6103516
vt 0.1268311 0.6103516
vt 0.1268311 0.9106445
vt 0.4267578 0.9106445
vt 0.4267578 0.6103516
vt 0.1268311 0.6103516
vt 0.1268311 0.9106445
vt 0.4267578 0.9106445
vt 0.4267578 0.6103516

g IceCube_(8)_745_50
usemtl IceCube_(8)_745_50
usemap IceCube_(8)_745_50
f 1/1/1 3/3/3 2/2/2
f 1/1/1 4/4/4 3/3/3
f 5/5/5 7/7/7 6/6/6
f 5/5/5 8/8/8 7/7/7
f 9/9/9 11/11/11 10/10/10
f 9/9/9 12/12/12 11/11/11
f 13/13/13 15/15/15 14/14/14
f 13/13/13 16/16/16 15/15/15
f 17/17/17 19/19/19 18/18/18
f 17/17/17 20/20/20 19/19/19
f 21/21/21 23/23/23 22/22/22
f 21/21/21 24/24/24 23/23/23
