#IceCube_(3)_815_166.obj

v -5.439285 -5.396624 -5.418004
v -5.396628 5.439288 -5.418005
v -5.396628 5.439288 5.417999
v -5.439287 -5.396624 5.417998
v -5.396628 5.439288 -5.418005
v 5.43929 5.396624 -5.418002
v 5.439291 5.396624 5.417997
v -5.396628 5.439288 5.417999
v 5.43929 5.396624 -5.418002
v 5.396631 -5.439288 -5.418003
v 5.396629 -5.439288 5.417999
v 5.439291 5.396624 5.417997
v 5.396631 -5.439288 -5.418003
v -5.439285 -5.396624 -5.418004
v -5.439287 -5.396624 5.417998
v 5.396629 -5.439288 5.417999
v -5.396628 5.439288 -5.418005
v -5.439285 -5.396624 -5.418004
v 5.396631 -5.439288 -5.418003
v 5.43929 5.396624 -5.418002
v 5.439291 5.396624 5.417997
v 5.396629 -5.439288 5.417999
v -5.439287 -5.396624 5.417998
v -5.396628 5.439288 5.417999

vn -0.7138578 0.003374454 -0.7002826
vn -0.7138578 0.003374454 -0.7002826
vn -0.7138578 0.003374454 -0.7002826
vn -0.7138578 0.003374454 -0.7002826
vn 0.003278828 0.9999894 0.003216476
vn 0.003278828 0.9999894 0.003216476
vn 0.003278828 0.9999894 0.003216476
vn 0.003278828 0.9999894 0.003216476
vn 0.7138578 -0.003374482 0.7002826
vn 0.7138578 -0.003374482 0.7002826
vn 0.7138578 -0.003374482 0.7002826
vn 0.7138578 -0.003374482 0.7002826
vn -0.003278865 -0.9999894 -0.003216513
vn -0.003278865 -0.9999894 -0.003216513
vn -0.003278865 -0.9999894 -0.003216513
vn -0.003278865 -0.9999894 -0.003216513
vn 0.7002866 0 -0.7138619
vn 0.7002866 0 -0.7138619
vn 0.7002866 0 -0.7138619
vn 0.7002866 0 -0.7138619
vn -0.7002866 0 0.7138619
vn -0.7002866 0 0.7138619
vn -0.7002866 0 0.7138619
vn -0.7002866 0 0.7138619

vt 0.1268311 0.6103516
vt 0.1268311 0.9106445
vt 0.4267578 0.9106445
vt 0.4267578 0.6103516
vt 0.1268311 0.6103516
vt 0.1268311 0.9106445
vt 0.4267578 0.9106445
vt 0.4267578 0.6103516
vt 0.1268311 0.6103516
vt 0.1268311 0.9106445
vt 0.4267578 0.9106445
vt 0.4267578 0.6103516
vt 0.1268311 0.6103516
vt 0.1268311 0.9106445
vt 0.4267578 0.9106445
vt 0.4267578 0.6103516
vt 0.1268311 0.6103516
vt 0.1268311 0.9106445
vt 0.4267578 0.9106445
vt 0.4267578 0.6103516
vt 0.1268311 0.6103516
vt 0.1268311 0.9106445
vt 0.4267578 0.9106445
vt 0.4267578 0.6103516

g IceCube_(3)_815_166
usemtl IceCube_(3)_815_166
usemap IceCube_(3)_815_166
f 1/1/1 3/3/3 2/2/2
f 1/1/1 4/4/4 3/3/3
f 5/5/5 7/7/7 6/6/6
f 5/5/5 8/8/8 7/7/7
f 9/9/9 11/11/11 10/10/10
f 9/9/9 12/12/12 11/11/11
f 13/13/13 15/15/15 14/14/14
f 13/13/13 16/16/16 15/15/15
f 17/17/17 19/19/19 18/18/18
f 17/17/17 20/20/20 19/19/19
f 21/21/21 23/23/23 22/22/22
f 21/21/21 24/24/24 23/23/23
