#Magic_mushroom2_(2)_634_68.obj

v -3.111694 -3.106562 0.6704876
v -0.5373253 3.535253 0.3173445
v -2.08415 5.426946 0.6226494
v -7.535727 -0.8437482 0.8590468
v -6.11226 -3.188955 1.452312
v 3.615542 1.720009 1.20694
v 4.578712 5.714951 3.04607
v 2.594178 7.977568 4.424474
v -0.5373253 3.535253 0.3173445
v -2.048917 7.373126 1.80757
v -2.08415 5.426946 0.6226494
v -0.7983291 -7.103107 2.074346
v 1.078215 -6.915764 2.209175
v -0.8833622 -4.194302 1.337184
v -4.938234 -5.939726 1.496438
v -3.111694 -3.106562 0.6704876
v -6.11226 -3.188955 1.452312
v -0.8833622 -4.194302 1.337184
v 4.317585 -2.620079 1.538468
v 3.615542 1.720009 1.20694
v -0.5373253 3.535253 0.3173445
v -3.111694 -3.106562 0.6704876
v -7.651616 1.544557 1.721985
v -5.623341 5.437078 1.935019
v -3.756033 3.681758 7.790338
v -7.651616 1.544557 1.721985
v -3.756033 3.681758 7.790338
v -5.173831 0.9804133 7.008593
v -2.266423 -0.6766643 12.69329
v -0.8653924 -1.53511 13.28635
v -0.8315994 -4.34108 7.63609
v -3.365444 -2.841566 8.087598
v -5.623341 5.437078 1.935019
v -2.048917 7.373126 1.80757
v 2.594178 7.977568 4.424474
v -3.756033 3.681758 7.790338
v 0.9690874 5.289489 8.540992
v 4.662383 -5.963741 2.752367
v 5.917904 -1.594084 1.996442
v 4.317585 -2.620079 1.538468
v 1.078215 -6.915764 2.209175
v -0.8833622 -4.194302 1.337184
v 0.9690874 5.289489 8.540992
v 4.060078 3.604301 8.180351
v 2.000238 0.2643805 11.77451
v -0.1944148 0.3070799 14.2786
v -0.9632018 2.093272 13.43568
v 5.917904 -1.594084 1.996442
v 4.662383 -5.963741 2.752367
v 3.446314 -3.118755 6.873651
v 4.951992 2.345953 6.925833
v 6.181066 1.440176 3.165302
v -0.9632018 2.093272 13.43568
v -0.1944148 0.3070799 14.2786
v -0.8653924 -1.53511 13.28635
v -2.266423 -0.6766643 12.69329
v -2.06985 2.096709 13.07761
v -3.104345 0.5092117 12.44525
v -2.08415 5.426946 0.6226494
v -2.048917 7.373126 1.80757
v -5.623341 5.437078 1.935019
v -7.535727 -0.8437482 0.8590468
v -7.651616 1.544557 1.721985
v 5.917904 -1.594084 1.996442
v 6.181066 1.440176 3.165302
v 4.578712 5.714951 3.04607
v 4.317585 -2.620079 1.538468
v 3.615542 1.720009 1.20694
v 1.078215 -6.915764 2.209175
v -0.7983291 -7.103107 2.074346
v -0.8315994 -4.34108 7.63609
v 4.662383 -5.963741 2.752367
v 3.446314 -3.118755 6.873651
v -3.365444 -2.841566 8.087598
v -4.938234 -5.939726 1.496438
v -6.11226 -3.188955 1.452312
v -7.535727 -0.8437482 0.8590468
v -4.24992 -0.6511379 7.959047
v -7.651616 1.544557 1.721985
v -5.173831 0.9804133 7.008593
v -4.24992 -0.6511379 7.959047
v -3.104345 0.5092117 12.44525
v -2.266423 -0.6766643 12.69329
v -3.365444 -2.841566 8.087598
v -0.8315994 -4.34108 7.63609
v -0.7983291 -7.103107 2.074346
v -4.938234 -5.939726 1.496438
v -3.365444 -2.841566 8.087598
v 3.446314 -3.118755 6.873651
v 2.000238 0.2643805 11.77451
v 4.060078 3.604301 8.180351
v 4.951992 2.345953 6.925833
v 2.000238 0.2643805 11.77451
v 3.446314 -3.118755 6.873651
v -0.8315994 -4.34108 7.63609
v -0.8653924 -1.53511 13.28635
v -0.1944148 0.3070799 14.2786
v -3.104345 0.5092117 12.44525
v -4.24992 -0.6511379 7.959047
v -5.173831 0.9804133 7.008593
v -2.06985 2.096709 13.07761
v -3.756033 3.681758 7.790338
v 4.578712 5.714951 3.04607
v 6.181066 1.440176 3.165302
v 4.951992 2.345953 6.925833
v 4.060078 3.604301 8.180351
v 0.9690874 5.289489 8.540992
v 2.594178 7.977568 4.424474
v 0.9690874 5.289489 8.540992
v -0.9632018 2.093272 13.43568
v -2.06985 2.096709 13.07761
v -3.756033 3.681758 7.790338
v 0.02039681 1.106489 -4.102273
v 1.964716 0.4776922 -3.912766
v 0.855617 1.119966 1.606123
v -0.602642 1.591577 1.463999
v 1.964716 0.4776922 -3.912766
v 1.330927 -1.474056 -3.886248
v 0.3802644 -0.3438471 1.626013
v 0.855617 1.119966 1.606123
v 1.330927 -1.474056 -3.886248
v -0.6133867 -0.845233 -4.075765
v -1.077978 0.127761 1.483846
v 0.3802644 -0.3438471 1.626013
v -0.6133867 -0.845233 -4.075765
v 0.02039681 1.106489 -4.102273
v -0.602642 1.591577 1.463999
v -1.077978 0.127761 1.483846
v 3.383448 0.5356913 -20.7114
v 0.953046 1.321705 -20.9483
v 0.1607932 -1.117975 -20.91515
v 2.591212 -1.903991 -20.6783
v 0.3802644 -0.3438471 1.626013
v -1.077978 0.127761 1.483846
v -0.602642 1.591577 1.463999
v 0.855617 1.119966 1.606123
v 0.1607932 -1.117975 -20.91515
v 0.953046 1.321705 -20.9483
v 1.126241 0.9747543 -14.5118
v -0.0720749 -0.9070991 -15.7781
v 0.1772512 0.08047263 -10.56569
v -0.3148626 -1.995268 -10.09418
v -0.3148626 -1.995268 -10.09418
v 0.1772512 0.08047263 -10.56569
v 0.02039681 1.106489 -4.102273
v -0.6133867 -0.845233 -4.075765
v 2.591212 -1.903991 -20.6783
v 0.1607932 -1.117975 -20.91515
v -0.0720749 -0.9070991 -15.7781
v 2.108395 -2.257315 -15.83501
v 2.108395 -2.257315 -15.83501
v -0.0720749 -0.9070991 -15.7781
v -0.3148626 -1.995268 -10.09418
v 1.810961 -2.449719 -9.876093
v 1.810961 -2.449719 -9.876093
v -0.3148626 -1.995268 -10.09418
v -0.6133867 -0.845233 -4.075765
v 1.330927 -1.474056 -3.886248
v 3.383448 0.5356913 -20.7114
v 2.591212 -1.903991 -20.6783
v 2.108395 -2.257315 -15.83501
v 3.306727 -0.3754505 -14.56871
v 3.306727 -0.3754505 -14.56871
v 2.108395 -2.257315 -15.83501
v 1.810961 -2.449719 -9.876093
v 2.303074 -0.3739785 -10.34761
v 2.303074 -0.3739785 -10.34761
v 1.810961 -2.449719 -9.876093
v 1.330927 -1.474056 -3.886248
v 1.964716 0.4776922 -3.912766
v 0.953046 1.321705 -20.9483
v 3.383448 0.5356913 -20.7114
v 3.306727 -0.3754505 -14.56871
v 1.126241 0.9747543 -14.5118
v 1.126241 0.9747543 -14.5118
v 3.306727 -0.3754505 -14.56871
v 2.303074 -0.3739785 -10.34761
v 0.1772512 0.08047263 -10.56569
v 0.1772512 0.08047263 -10.56569
v 2.303074 -0.3739785 -10.34761
v 1.964716 0.4776922 -3.912766
v 0.02039681 1.106489 -4.102273

vn 0.0915872 -0.9482772 -0.3039459
vn 0.0915872 -0.9482772 -0.3039459
vn 0.0915872 -0.9482772 -0.3039459
vn 0.0915872 -0.9482772 -0.3039459
vn 0.0915872 -0.9482772 -0.3039459
vn 0.6680067 -0.614224 -0.4201152
vn 0.6680067 -0.614224 -0.4201152
vn 0.6680067 -0.614224 -0.4201152
vn 0.6680067 -0.614224 -0.4201152
vn 0.6680067 -0.614224 -0.4201152
vn 0.6680067 -0.614224 -0.4201152
vn 0.06557843 -0.9942902 -0.08418654
vn 0.06557843 -0.9942902 -0.08418654
vn 0.06557843 -0.9942902 -0.08418654
vn 0.06557843 -0.9942902 -0.08418654
vn 0.06557843 -0.9942902 -0.08418654
vn 0.06557843 -0.9942902 -0.08418654
vn 0.245846 -0.9631244 -0.109325
vn 0.245846 -0.9631244 -0.109325
vn 0.245846 -0.9631244 -0.109325
vn 0.245846 -0.9631244 -0.109325
vn 0.245846 -0.9631244 -0.109325
vn -0.5621334 0.5079185 -0.652706
vn -0.5621334 0.5079185 -0.652706
vn -0.5621334 0.5079185 -0.652706
vn -0.5621334 0.5079185 -0.652706
vn -0.5621334 0.5079185 -0.652706
vn -0.5621334 0.5079185 -0.652706
vn -0.8882948 0.1324289 0.4397675
vn -0.8882948 0.1324289 0.4397675
vn -0.8882948 0.1324289 0.4397675
vn -0.8882948 0.1324289 0.4397675
vn 0.06336029 0.6685052 -0.741004
vn 0.06336029 0.6685052 -0.741004
vn 0.06336029 0.6685052 -0.741004
vn 0.06336029 0.6685052 -0.741004
vn 0.06336029 0.6685052 -0.741004
vn 0.2082348 -0.9762825 0.05925789
vn 0.2082348 -0.9762825 0.05925789
vn 0.2082348 -0.9762825 0.05925789
vn 0.2082348 -0.9762825 0.05925789
vn 0.2082348 -0.9762825 0.05925789
vn 0.6087988 0.7889708 0.08300486
vn 0.6087988 0.7889708 0.08300486
vn 0.6087988 0.7889708 0.08300486
vn 0.6087988 0.7889708 0.08300486
vn 0.6087988 0.7889708 0.08300486
vn 0.5434523 0.2784588 0.7919094
vn 0.5434523 0.2784588 0.7919094
vn 0.5434523 0.2784588 0.7919094
vn 0.5434523 0.2784588 0.7919094
vn 0.5434523 0.2784588 0.7919094
vn -0.6204553 0.7841869 0.009325355
vn -0.6204553 0.7841869 0.009325355
vn -0.6204553 0.7841869 0.009325355
vn -0.6204553 0.7841869 0.009325355
vn -0.6204553 0.7841869 0.009325355
vn -0.6204553 0.7841869 0.009325355
vn 0.05694368 -0.7198868 -0.6917523
vn 0.05694368 -0.7198868 -0.6917523
vn 0.05694368 -0.7198868 -0.6917523
vn 0.05694368 -0.7198868 -0.6917523
vn 0.05694368 -0.7198868 -0.6917523
vn 0.6909997 -0.721103 -0.05030267
vn 0.6909997 -0.721103 -0.05030267
vn 0.6909997 -0.721103 -0.05030267
vn 0.6909997 -0.721103 -0.05030267
vn 0.6909997 -0.721103 -0.05030267
vn -0.3817021 0.2037728 0.9015436
vn -0.3817021 0.2037728 0.9015436
vn -0.3817021 0.2037728 0.9015436
vn -0.3817021 0.2037728 0.9015436
vn -0.3817021 0.2037728 0.9015436
vn -0.956522 0.2567794 -0.1383114
vn -0.956522 0.2567794 -0.1383114
vn -0.956522 0.2567794 -0.1383114
vn -0.956522 0.2567794 -0.1383114
vn -0.956522 0.2567794 -0.1383114
vn -0.956522 0.2567794 -0.1383114
vn -0.956522 0.2567794 -0.1383114
vn -0.9769614 0.1966779 -0.08285194
vn -0.9769614 0.1966779 -0.08285194
vn -0.9769614 0.1966779 -0.08285194
vn -0.9769614 0.1966779 -0.08285194
vn -0.8113394 0.1309693 0.5697157
vn -0.8113394 0.1309693 0.5697157
vn -0.8113394 0.1309693 0.5697157
vn -0.8113394 0.1309693 0.5697157
vn 0.5346585 0.3727114 0.7584369
vn 0.5346585 0.3727114 0.7584369
vn 0.5346585 0.3727114 0.7584369
vn 0.5346585 0.3727114 0.7584369
vn -0.07849007 0.2311558 0.9697458
vn -0.07849007 0.2311558 0.9697458
vn -0.07849007 0.2311558 0.9697458
vn -0.07849007 0.2311558 0.9697458
vn -0.07849007 0.2311558 0.9697458
vn -0.7055902 0.4199288 -0.5707909
vn -0.7055902 0.4199288 -0.5707909
vn -0.7055902 0.4199288 -0.5707909
vn -0.7055902 0.4199288 -0.5707909
vn -0.7055902 0.4199288 -0.5707909
vn 0.8387296 0.523278 0.1507082
vn 0.8387296 0.523278 0.1507082
vn 0.8387296 0.523278 0.1507082
vn 0.8387296 0.523278 0.1507082
vn 0.8387296 0.523278 0.1507082
vn 0.8387296 0.523278 0.1507082
vn 0.1287166 0.669737 -0.7313583
vn 0.1287166 0.669737 -0.7313583
vn 0.1287166 0.669737 -0.7313583
vn 0.1287166 0.669737 -0.7313583
vn 0.7748527 0.2812244 -0.5661419
vn 0.7748527 0.2812244 -0.5661419
vn 0.7748527 0.2812244 -0.5661419
vn 0.7748527 0.2812244 -0.5661419
vn 0.5575435 0.10526 0.8234474
vn 0.5575435 0.10526 0.8234474
vn 0.5575435 0.10526 0.8234474
vn 0.5575435 0.10526 0.8234474
vn -0.7912017 -0.1931297 0.5802597
vn -0.7912017 -0.1931297 0.5802597
vn -0.7912017 -0.1931297 0.5802597
vn -0.7912017 -0.1931297 0.5802597
vn -0.5840474 -0.019421 -0.8114872
vn -0.5840474 -0.019421 -0.8114872
vn -0.5840474 -0.019421 -0.8114872
vn -0.5840474 -0.019421 -0.8114872
vn 0.2426568 -0.9490067 -0.2012583
vn 0.2426568 -0.9490067 -0.2012583
vn 0.2426568 -0.9490067 -0.2012583
vn 0.2426568 -0.9490067 -0.2012583
vn -0.2426567 0.9490067 0.2012584
vn -0.2426567 0.9490067 0.2012584
vn -0.2426567 0.9490067 0.2012584
vn -0.2426567 0.9490067 0.2012584
vn -0.520232 0.1439769 -0.8418014
vn -0.520232 0.1439769 -0.8418014
vn -0.520232 0.1439769 -0.8418014
vn -0.520232 0.1439769 -0.8418014
vn -0.5319372 0.1071427 -0.8399782
vn -0.5319372 0.1071427 -0.8399782
vn -0.6343679 0.01365356 -0.7729107
vn -0.6343679 0.01365356 -0.7729107
vn -0.6343679 0.01365356 -0.7729107
vn -0.6343679 0.01365356 -0.7729107
vn -0.8222841 -0.3520988 0.4470747
vn -0.8222841 -0.3520988 0.4470747
vn -0.8222841 -0.3520988 0.4470747
vn -0.8222841 -0.3520988 0.4470747
vn -0.7812506 -0.4265719 0.4557242
vn -0.7812506 -0.4265719 0.4557242
vn -0.7812506 -0.4265719 0.4557242
vn -0.7812506 -0.4265719 0.4557242
vn -0.760967 -0.1851381 0.621815
vn -0.760967 -0.1851381 0.621815
vn -0.760967 -0.1851381 0.621815
vn -0.760967 -0.1851381 0.621815
vn 0.5208902 -0.1453494 0.8411582
vn 0.5208902 -0.1453494 0.8411582
vn 0.5208902 -0.1453494 0.8411582
vn 0.5208902 -0.1453494 0.8411582
vn 0.5023103 -0.03892173 0.8638111
vn 0.5023103 -0.03892173 0.8638111
vn 0.5023103 -0.03892173 0.8638111
vn 0.5023103 -0.03892173 0.8638111
vn 0.6308821 0.006793283 0.7758489
vn 0.6308821 0.006793283 0.7758489
vn 0.6308821 0.006793283 0.7758489
vn 0.6308821 0.006793283 0.7758489
vn 0.8103287 0.3930956 -0.4345616
vn 0.8103287 0.3930956 -0.4345616
vn 0.8103287 0.3930956 -0.4345616
vn 0.8103287 0.3930956 -0.4345616
vn 0.7572851 0.4892291 -0.432637
vn 0.7572851 0.4892291 -0.432637
vn 0.7572851 0.4892291 -0.432637
vn 0.7572851 0.4892291 -0.432637
vn 0.7575012 0.207272 -0.6190565
vn 0.7575012 0.207272 -0.6190565
vn 0.7575012 0.207272 -0.6190565
vn 0.7575012 0.207272 -0.6190565

vt 0.1817627 0.1031494
vt 0.1245728 0.175293
vt 0.1357422 0.2034912
vt 0.2087402 0.1635742
vt 0.2178955 0.1116943
vt 0.07940674 0.1362305
vt 0.03817749 0.1646729
vt 0.06292725 0.2103271
vt 0.1245728 0.175293
vt 0.1260986 0.2248535
vt 0.1357422 0.2034912
vt 0.1669922 0.04330444
vt 0.1430664 0.03845215
vt 0.1577148 0.08044434
vt 0.2142334 0.0737915
vt 0.1817627 0.1031494
vt 0.2178955 0.1116943
vt 0.1577148 0.08044434
vt 0.08728027 0.0802002
vt 0.07940674 0.1362305
vt 0.1245728 0.175293
vt 0.1817627 0.1031494
vt 0.03375244 0.3972168
vt 0.06567383 0.4287109
vt 0.1175537 0.364502
vt 0.03375244 0.3972168
vt 0.1175537 0.364502
vt 0.09484863 0.3435059
vt 0.3535156 0.6977539
vt 0.3747559 0.6928711
vt 0.3532715 0.6152344
vt 0.3222656 0.6381836
vt 0.06567383 0.4287109
vt 0.1096191 0.4572754
vt 0.1791992 0.4533691
vt 0.1175537 0.364502
vt 0.1791992 0.3867188
vt 0.09448242 0.03588867
vt 0.05883789 0.05465698
vt 0.08728027 0.0802002
vt 0.1430664 0.03845215
vt 0.1577148 0.08044434
vt 0.3911133 0.8657227
vt 0.3662109 0.8500977
vt 0.3449707 0.9277344
vt 0.3706055 0.9619141
vt 0.3911133 0.9448242
vt 0.3000488 0.3469238
vt 0.2924805 0.3684082
vt 0.3449707 0.3955078
vt 0.3723145 0.3549805
vt 0.3540039 0.3171387
vt 0.3662109 0.722168
vt 0.3835449 0.7148438
vt 0.3747559 0.6928711
vt 0.3535156 0.6977539
vt 0.3513184 0.7216797
vt 0.3395996 0.706543
vt 0.1357422 0.2034912
vt 0.1260986 0.2248535
vt 0.1773682 0.2141113
vt 0.2087402 0.1635742
vt 0.2178955 0.1745605
vt 0.05883789 0.05465698
vt 0.03375244 0.1168213
vt 0.03817749 0.1646729
vt 0.08728027 0.0802002
vt 0.07940674 0.1362305
vt 0.416748 0.03588867
vt 0.3942871 0.03845215
vt 0.4157715 0.1151733
vt 0.4592285 0.03833008
vt 0.4592285 0.1045532
vt 0.3847656 0.1381836
vt 0.3400879 0.05319214
vt 0.3198242 0.07678223
vt 0.3051758 0.1135864
vt 0.3649902 0.1676025
vt 0.2924805 0.1195679
vt 0.3522949 0.1668701
vt 0.3024902 0.6674805
vt 0.3395996 0.706543
vt 0.3535156 0.6977539
vt 0.3222656 0.6381836
vt 0.4157715 0.1151733
vt 0.3942871 0.03845215
vt 0.3400879 0.05319214
vt 0.3847656 0.1381836
vt 0.2824707 0.8955078
vt 0.3449707 0.9277344
vt 0.3662109 0.8500977
vt 0.3098145 0.8549805
vt 0.3967285 0.6831055
vt 0.3967285 0.6044922
vt 0.3532715 0.6152344
vt 0.3747559 0.6928711
vt 0.3835449 0.7148438
vt 0.08337402 0.7988281
vt 0.04034424 0.8242188
vt 0.03234863 0.8432617
vt 0.1018677 0.8066406
vt 0.05502319 0.8647461
vt 0.3974609 0.2958984
vt 0.3540039 0.3171387
vt 0.3723145 0.3549805
vt 0.4287109 0.3503418
vt 0.4536133 0.3657227
vt 0.4536133 0.2990723
vt 0.1166382 0.8867188
vt 0.1166382 0.8076172
vt 0.1018677 0.8066406
vt 0.05502319 0.8647461
vt 0.2093506 0.3549805
vt 0.1611328 0.355957
vt 0.1817627 0.4638672
vt 0.2180176 0.4631348
vt 0.3044434 0.3547363
vt 0.2563477 0.3554688
vt 0.2753906 0.4638672
vt 0.3115234 0.4631348
vt 0.338623 0.1375732
vt 0.3867188 0.1384277
vt 0.3955078 0.02986145
vt 0.359375 0.0291748
vt 0.06787109 0.137085
vt 0.1160889 0.1380615
vt 0.1234131 0.02986145
vt 0.08721924 0.0291748
vt 0.4746094 0.07873535
vt 0.4746094 0.0291748
vt 0.4143066 0.0291748
vt 0.4143066 0.07873535
vt 0.4504395 0.09399414
vt 0.4143066 0.09399414
vt 0.4143066 0.1237793
vt 0.4504395 0.1237793
vt 0.06311035 0.4626465
vt 0.1234131 0.4638672
vt 0.1190796 0.3400879
vt 0.06744385 0.3632813
vt 0.09277344 0.2629395
vt 0.04315186 0.2536621
vt 0.04315186 0.2536621
vt 0.09277344 0.2629395
vt 0.1160889 0.1380615
vt 0.06787109 0.137085
vt 0.3354492 0.4628906
vt 0.3955078 0.4638672
vt 0.3937988 0.364502
vt 0.3349609 0.3693848
vt 0.3349609 0.3693848
vt 0.3937988 0.364502
vt 0.3808594 0.2558594
vt 0.3300781 0.2543945
vt 0.3300781 0.2543945
vt 0.3808594 0.2558594
vt 0.3867188 0.1384277
vt 0.338623 0.1375732
vt 0.3115234 0.0291748
vt 0.2512207 0.03031921
vt 0.2412109 0.1241455
vt 0.2929688 0.1468506
vt 0.2929688 0.1468506
vt 0.2412109 0.1241455
vt 0.2365723 0.2391357
vt 0.2861328 0.2299805
vt 0.2861328 0.2299805
vt 0.2365723 0.2391357
vt 0.2563477 0.3554688
vt 0.3044434 0.3547363
vt 0.2180176 0.0291748
vt 0.1577148 0.0302887
vt 0.1419678 0.1486816
vt 0.2008057 0.1529541
vt 0.2008057 0.1529541
vt 0.1419678 0.1486816
vt 0.1572266 0.2314453
vt 0.2080078 0.2303467
vt 0.2080078 0.2303467
vt 0.1572266 0.2314453
vt 0.1611328 0.355957
vt 0.2093506 0.3549805

g Magic_mushroom2_(2)_634_68
usemtl Magic_mushroom2_(2)_634_68
usemap Magic_mushroom2_(2)_634_68
f 1/1/1 3/3/3 2/2/2
f 3/3/3 1/1/1 4/4/4
f 4/4/4 1/1/1 5/5/5
f 6/6/6 8/8/8 7/7/7
f 8/8/8 6/6/6 9/9/9
f 8/8/8 9/9/9 10/10/10
f 10/10/10 9/9/9 11/11/11
f 12/12/12 14/14/14 13/13/13
f 14/14/14 12/12/12 15/15/15
f 14/14/14 15/15/15 16/16/16
f 16/16/16 15/15/15 17/17/17
f 18/18/18 20/20/20 19/19/19
f 20/20/20 18/18/18 21/21/21
f 21/21/21 18/18/18 22/22/22
f 23/23/23 25/25/25 24/24/24
f 26/26/26 28/28/28 27/27/27
f 29/29/29 31/31/31 30/30/30
f 29/29/29 32/32/32 31/31/31
f 33/33/33 35/35/35 34/34/34
f 35/35/35 33/33/33 36/36/36
f 35/35/35 36/36/36 37/37/37
f 38/38/38 40/40/40 39/39/39
f 40/40/40 38/38/38 41/41/41
f 40/40/40 41/41/41 42/42/42
f 43/43/43 45/45/45 44/44/44
f 45/45/45 43/43/43 46/46/46
f 46/46/46 43/43/43 47/47/47
f 48/48/48 50/50/50 49/49/49
f 50/50/50 48/48/48 51/51/51
f 51/51/51 48/48/48 52/52/52
f 53/53/53 55/55/55 54/54/54
f 55/55/55 53/53/53 56/56/56
f 56/56/56 53/53/53 57/57/57
f 56/56/56 57/57/57 58/58/58
f 59/59/59 61/61/61 60/60/60
f 61/61/61 59/59/59 62/62/62
f 61/61/61 62/62/62 63/63/63
f 64/64/64 66/66/66 65/65/65
f 66/66/66 64/64/64 67/67/67
f 66/66/66 67/67/67 68/68/68
f 69/69/69 71/71/71 70/70/70
f 71/71/71 69/69/69 72/72/72
f 71/71/71 72/72/72 73/73/73
f 74/74/74 76/76/76 75/75/75
f 76/76/76 74/74/74 77/77/77
f 77/77/77 74/74/74 78/78/78
f 77/77/77 78/78/78 79/79/79
f 79/79/79 78/78/78 80/80/80
f 81/81/81 83/83/83 82/82/82
f 81/81/81 84/84/84 83/83/83
f 85/85/85 87/87/87 86/86/86
f 85/85/85 88/88/88 87/87/87
f 89/89/89 91/91/91 90/90/90
f 89/89/89 92/92/92 91/91/91
f 93/93/93 95/95/95 94/94/94
f 95/95/95 93/93/93 96/96/96
f 96/96/96 93/93/93 97/97/97
f 98/98/98 100/100/100 99/99/99
f 100/100/100 98/98/98 101/101/101
f 100/100/100 101/101/101 102/102/102
f 103/103/103 105/105/105 104/104/104
f 105/105/105 103/103/103 106/106/106
f 106/106/106 103/103/103 107/107/107
f 107/107/107 103/103/103 108/108/108
f 109/109/109 111/111/111 110/110/110
f 109/109/109 112/112/112 111/111/111
f 113/113/113 115/115/115 114/114/114
f 113/113/113 116/116/116 115/115/115
f 117/117/117 119/119/119 118/118/118
f 117/117/117 120/120/120 119/119/119
f 121/121/121 123/123/123 122/122/122
f 121/121/121 124/124/124 123/123/123
f 125/125/125 127/127/127 126/126/126
f 125/125/125 128/128/128 127/127/127
f 129/129/129 131/131/131 130/130/130
f 129/129/129 132/132/132 131/131/131
f 133/133/133 135/135/135 134/134/134
f 133/133/133 136/136/136 135/135/135
f 137/137/137 139/139/139 138/138/138
f 137/137/137 140/140/140 139/139/139
f 140/140/140 141/141/141 139/139/139
f 140/140/140 142/142/142 141/141/141
f 143/143/143 145/145/145 144/144/144
f 143/143/143 146/146/146 145/145/145
f 147/147/147 149/149/149 148/148/148
f 147/147/147 150/150/150 149/149/149
f 151/151/151 153/153/153 152/152/152
f 151/151/151 154/154/154 153/153/153
f 155/155/155 157/157/157 156/156/156
f 155/155/155 158/158/158 157/157/157
f 159/159/159 161/161/161 160/160/160
f 159/159/159 162/162/162 161/161/161
f 163/163/163 165/165/165 164/164/164
f 163/163/163 166/166/166 165/165/165
f 167/167/167 169/169/169 168/168/168
f 167/167/167 170/170/170 169/169/169
f 171/171/171 173/173/173 172/172/172
f 171/171/171 174/174/174 173/173/173
f 175/175/175 177/177/177 176/176/176
f 175/175/175 178/178/178 177/177/177
f 179/179/179 181/181/181 180/180/180
f 179/179/179 182/182/182 181/181/181
