#Magic_mushroom6_(8)_601_24.obj

v -5.233102 -5.591286 -0.8879215
v -0.5992463 6.363976 -1.342379
v -3.383511 9.769026 -0.9495571
v -11.74264 1.69968 0.6158518
v -10.63415 -5.739581 0.1178969
v 6.875892 3.096536 -0.1978384
v 10.5671 9.004607 2.650497
v 5.037458 14.36014 3.941989
v -0.5992463 6.363976 -1.342379
v -3.320101 13.27213 0.5750413
v -3.383511 9.769026 -0.9495571
v -1.06907 -12.78505 0.9183195
v 2.30872 -12.44782 1.091806
v -1.22211 -7.549181 -0.03022997
v -8.520864 -10.691 0.1746621
v -5.233102 -5.591286 -0.8879215
v -10.63415 -5.739581 0.1178969
v -1.22211 -7.549181 -0.03022997
v 8.139588 -4.715582 0.2287401
v 6.875892 3.096536 -0.1978384
v -0.5992463 6.363976 -1.342379
v -5.233102 -5.591286 -0.8879215
v -13.40498 2.780738 0.4648698
v -9.754089 9.78727 0.738955
v -6.392915 6.627691 8.2726
v -8.944934 1.765263 7.982897
v -3.711632 -1.217428 14.58092
v -1.18978 -2.762642 15.34406
v -1.128953 -7.813399 8.074258
v -5.689848 -5.114282 8.655178
v -9.754089 9.78727 0.738955
v -3.320101 13.27213 0.5750413
v 5.037458 14.36014 3.941989
v -6.392915 6.627691 8.2726
v 2.112288 9.521624 9.238448
v 8.760217 -10.7342 1.790622
v 12.62805 -6.713952 2.177566
v 8.139588 -4.715582 0.2287401
v 2.30872 -12.44782 1.091806
v -1.22211 -7.549181 -0.03022997
v 2.112288 9.521624 9.238448
v 5.230783 3.295844 10.81393
v 3.968377 0.476416 13.39876
v 0.01799103 0.5532925 16.62061
v -1.365849 3.768439 15.53619
v 12.62805 -6.713952 2.177566
v 8.760217 -10.7342 1.790622
v 6.571304 -5.613203 7.093296
v 13.10787 2.814893 3.149795
v 9.978453 2.014177 6.65916
v -1.365849 3.768439 15.53619
v 0.01799103 0.5532925 16.62061
v -1.18978 -2.762642 15.34406
v -3.711632 -1.217428 14.58092
v -3.357805 3.774632 15.07552
v -5.219877 0.9171438 14.26183
v -3.383511 9.769026 -0.9495571
v -3.320101 13.27213 0.5750413
v -9.754089 9.78727 0.738955
v -11.74264 1.69968 0.6158518
v -13.40498 2.780738 0.4648698
v 12.62805 -6.713952 2.177566
v 13.10787 2.814893 3.149795
v 10.5671 9.004607 2.650497
v 8.139588 -4.715582 0.2287401
v 6.875892 3.096536 -0.1978384
v 2.30872 -12.44782 1.091806
v -1.06907 -12.78505 0.9183195
v -1.128953 -7.813399 8.074258
v 8.760217 -10.7342 1.790622
v 6.571304 -5.613203 7.093296
v -5.689848 -5.114282 8.655178
v -8.520864 -10.691 0.1746621
v -10.63415 -5.739581 0.1178969
v -11.74264 1.69968 0.6158518
v -8.345321 -0.6251727 9.47441
v -8.944934 1.765263 7.982897
v -13.40498 2.780738 0.4648698
v -8.345321 -0.6251727 9.47441
v -5.219877 0.9171438 14.26183
v -3.711632 -1.217428 14.58092
v -5.689848 -5.114282 8.655178
v -1.128953 -7.813399 8.074258
v -1.06907 -12.78505 0.9183195
v -8.520864 -10.691 0.1746621
v -5.689848 -5.114282 8.655178
v 6.571304 -5.613203 7.093296
v 3.968377 0.476416 13.39876
v 5.230783 3.295844 10.81393
v 9.978453 2.014177 6.65916
v 3.968377 0.476416 13.39876
v 6.571304 -5.613203 7.093296
v -1.128953 -7.813399 8.074258
v -1.18978 -2.762642 15.34406
v 0.01799103 0.5532925 16.62061
v -5.219877 0.9171438 14.26183
v -8.345321 -0.6251727 9.47441
v -8.944934 1.765263 7.982897
v -8.944934 1.765263 7.982897
v -3.357805 3.774632 15.07552
v -5.219877 0.9171438 14.26183
v -6.392915 6.627691 8.2726
v 10.5671 9.004607 2.650497
v 13.10787 2.814893 3.149795
v 9.978453 2.014177 6.65916
v 5.037458 14.36014 3.941989
v 5.230783 3.295844 10.81393
v 2.112288 9.521624 9.238448
v 2.112288 9.521624 9.238448
v -1.365849 3.768439 15.53619
v -3.357805 3.774632 15.07552
v -6.392915 6.627691 8.2726
v -0.02287192 1.1644 -4.186516
v 1.921451 0.5356164 -3.996907
v 0.8123361 1.177877 1.521911
v -0.6459033 1.649486 1.37983
v 1.921451 0.5356164 -3.996907
v 1.28766 -1.416148 -3.970371
v 0.3369907 -0.2859252 1.541897
v 0.8123361 1.177877 1.521911
v 1.28766 -1.416148 -3.970371
v -0.6566622 -0.7873229 -4.15998
v -1.121249 0.1856624 1.399648
v 0.3369907 -0.2859252 1.541897
v -0.6566622 -0.7873229 -4.15998
v -0.02287192 1.1644 -4.186516
v -0.6459033 1.649486 1.37983
v -1.121249 0.1856624 1.399648
v 3.340181 0.5935991 -20.79554
v 0.9097753 1.37962 -21.03251
v 0.1175295 -1.060064 -20.99942
v 2.547935 -1.846086 -20.76245
v 0.3369907 -0.2859252 1.541897
v -1.121249 0.1856624 1.399648
v -0.6459033 1.649486 1.37983
v 0.8123361 1.177877 1.521911
v 0.1175295 -1.060064 -20.99942
v 0.9097753 1.37962 -21.03251
v 1.082968 1.032647 -14.59604
v -0.1153567 -0.8492104 -15.86234
v 0.1339776 0.1383861 -10.64985
v -0.3581412 -1.937364 -10.17826
v -0.3581412 -1.937364 -10.17826
v 0.1339776 0.1383861 -10.64985
v -0.02287192 1.1644 -4.186516
v -0.6566622 -0.7873229 -4.15998
v 2.547935 -1.846086 -20.76245
v 0.1175295 -1.060064 -20.99942
v -0.1153567 -0.8492104 -15.86234
v 2.065117 -2.199399 -15.9191
v 2.065117 -2.199399 -15.9191
v -0.1153567 -0.8492104 -15.86234
v -0.3581412 -1.937364 -10.17826
v 1.767698 -2.391821 -9.960273
v 1.767698 -2.391821 -9.960273
v -0.3581412 -1.937364 -10.17826
v -0.6566622 -0.7873229 -4.15998
v 1.28766 -1.416148 -3.970371
v 3.340181 0.5935991 -20.79554
v 2.547935 -1.846086 -20.76245
v 2.065117 -2.199399 -15.9191
v 3.263452 -0.3175407 -14.65297
v 3.263452 -0.3175407 -14.65297
v 2.065117 -2.199399 -15.9191
v 1.767698 -2.391821 -9.960273
v 2.259806 -0.3160712 -10.43186
v 2.259806 -0.3160712 -10.43186
v 1.767698 -2.391821 -9.960273
v 1.28766 -1.416148 -3.970371
v 1.921451 0.5356164 -3.996907
v 0.9097753 1.37962 -21.03251
v 3.340181 0.5935991 -20.79554
v 3.263452 -0.3175407 -14.65297
v 1.082968 1.032647 -14.59604
v 1.082968 1.032647 -14.59604
v 3.263452 -0.3175407 -14.65297
v 2.259806 -0.3160712 -10.43186
v 0.1339776 0.1383861 -10.64985
v 0.1339776 0.1383861 -10.64985
v 2.259806 -0.3160712 -10.43186
v 1.921451 0.5356164 -3.996907
v -0.02287192 1.1644 -4.186516

vn -0.1810082 -0.9832388 -0.02185995
vn -0.1810082 -0.9832388 -0.02185995
vn -0.1810082 -0.9832388 -0.02185995
vn -0.1810082 -0.9832388 -0.02185995
vn -0.1810082 -0.9832388 -0.02185995
vn 0.261659 -0.8922493 -0.3680027
vn 0.261659 -0.8922493 -0.3680027
vn 0.261659 -0.8922493 -0.3680027
vn 0.261659 -0.8922493 -0.3680027
vn 0.261659 -0.8922493 -0.3680027
vn 0.261659 -0.8922493 -0.3680027
vn 0.004073803 -0.9845189 0.1752315
vn 0.004073803 -0.9845189 0.1752315
vn 0.004073803 -0.9845189 0.1752315
vn 0.004073803 -0.9845189 0.1752315
vn 0.004073803 -0.9845189 0.1752315
vn 0.004073803 -0.9845189 0.1752315
vn 0.1002142 -0.991528 0.082641
vn 0.1002142 -0.991528 0.082641
vn 0.1002142 -0.991528 0.082641
vn 0.1002142 -0.991528 0.082641
vn 0.1002142 -0.991528 0.082641
vn -0.7734074 0.5073166 -0.3800934
vn -0.7734074 0.5073166 -0.3800934
vn -0.7734074 0.5073166 -0.3800934
vn -0.7734074 0.5073166 -0.3800934
vn -0.4406824 0.5467713 0.7119271
vn -0.4406824 0.5467713 0.7119271
vn -0.4406824 0.5467713 0.7119271
vn -0.4406824 0.5467713 0.7119271
vn -0.3456663 0.5284098 -0.7754342
vn -0.3456663 0.5284098 -0.7754342
vn -0.3456663 0.5284098 -0.7754342
vn -0.3456663 0.5284098 -0.7754342
vn -0.3456663 0.5284098 -0.7754342
vn 0.1586528 -0.9670343 0.1991843
vn 0.1586528 -0.9670343 0.1991843
vn 0.1586528 -0.9670343 0.1991843
vn 0.1586528 -0.9670343 0.1991843
vn 0.1586528 -0.9670343 0.1991843
vn 0.5469963 0.7083853 -0.4460779
vn 0.5469963 0.7083853 -0.4460779
vn 0.5469963 0.7083853 -0.4460779
vn 0.5469963 0.7083853 -0.4460779
vn 0.5469963 0.7083853 -0.4460779
vn 0.621962 0.7338465 0.2731899
vn 0.621962 0.7338465 0.2731899
vn 0.621962 0.7338465 0.2731899
vn 0.621962 0.7338465 0.2731899
vn 0.621962 0.7338465 0.2731899
vn -0.3850965 0.9212749 0.0543452
vn -0.3850965 0.9212749 0.0543452
vn -0.3850965 0.9212749 0.0543452
vn -0.3850965 0.9212749 0.0543452
vn -0.3850965 0.9212749 0.0543452
vn -0.3850965 0.9212749 0.0543452
vn -0.1969445 -0.9688494 -0.1501468
vn -0.1969445 -0.9688494 -0.1501468
vn -0.1969445 -0.9688494 -0.1501468
vn -0.1969445 -0.9688494 -0.1501468
vn -0.1969445 -0.9688494 -0.1501468
vn 0.4578662 -0.8861896 -0.0708999
vn 0.4578662 -0.8861896 -0.0708999
vn 0.4578662 -0.8861896 -0.0708999
vn 0.4578662 -0.8861896 -0.0708999
vn 0.4578662 -0.8861896 -0.0708999
vn 0.1806809 0.6489042 0.7391062
vn 0.1806809 0.6489042 0.7391062
vn 0.1806809 0.6489042 0.7391062
vn 0.1806809 0.6489042 0.7391062
vn 0.1806809 0.6489042 0.7391062
vn -0.850872 0.4046934 0.3350226
vn -0.850872 0.4046934 0.3350226
vn -0.850872 0.4046934 0.3350226
vn -0.850872 0.4046934 0.3350226
vn -0.850872 0.4046934 0.3350226
vn -0.850872 0.4046934 0.3350226
vn -0.850872 0.4046934 0.3350226
vn -0.6801071 0.5626226 0.470011
vn -0.6801071 0.5626226 0.470011
vn -0.6801071 0.5626226 0.470011
vn -0.6801071 0.5626226 0.470011
vn -0.311454 0.5687494 0.7612627
vn -0.311454 0.5687494 0.7612627
vn -0.311454 0.5687494 0.7612627
vn -0.311454 0.5687494 0.7612627
vn 0.7546498 0.6380589 0.1529206
vn 0.7546498 0.6380589 0.1529206
vn 0.7546498 0.6380589 0.1529206
vn 0.7546498 0.6380589 0.1529206
vn 0.439577 0.634245 0.6360075
vn 0.439577 0.634245 0.6360075
vn 0.439577 0.634245 0.6360075
vn 0.439577 0.634245 0.6360075
vn 0.439577 0.634245 0.6360075
vn -0.7957224 0.5121247 -0.3233483
vn -0.7957224 0.5121247 -0.3233483
vn -0.7957224 0.5121247 -0.3233483
vn -0.7957224 0.5121247 -0.3233483
vn -0.7957224 0.5121247 -0.3233483
vn -0.7957224 0.5121247 -0.3233483
vn -0.7957224 0.5121247 -0.3233483
vn 0.6084907 0.6861773 -0.3986225
vn 0.6084907 0.6861773 -0.3986225
vn 0.6084907 0.6861773 -0.3986225
vn 0.6084907 0.6861773 -0.3986225
vn 0.6084907 0.6861773 -0.3986225
vn 0.6084907 0.6861773 -0.3986225
vn -0.2916012 0.5182899 -0.8039556
vn -0.2916012 0.5182899 -0.8039556
vn -0.2916012 0.5182899 -0.8039556
vn -0.2916012 0.5182899 -0.8039556
vn 0.3115813 -0.04782697 -0.9490152
vn 0.3115813 -0.04782697 -0.9490152
vn 0.3115813 -0.04782697 -0.9490152
vn 0.3115813 -0.04782697 -0.9490152
vn 0.9284024 0.2213141 0.2984778
vn 0.9284024 0.2213141 0.2984778
vn 0.9284024 0.2213141 0.2984778
vn 0.9284024 0.2213141 0.2984778
vn -0.3169125 0.1377499 0.9383985
vn -0.3169125 0.1377499 0.9383985
vn -0.3169125 0.1377499 0.9383985
vn -0.3169125 0.1377499 0.9383985
vn -0.9432967 -0.1321209 -0.304525
vn -0.9432967 -0.1321209 -0.304525
vn -0.9432967 -0.1321209 -0.304525
vn -0.9432967 -0.1321209 -0.304525
vn 0.08386627 -0.9956437 0.04074714
vn 0.08386627 -0.9956437 0.04074714
vn 0.08386627 -0.9956437 0.04074714
vn 0.08386627 -0.9956437 0.04074714
vn -0.08386615 0.9956437 -0.04074703
vn -0.08386615 0.9956437 -0.04074703
vn -0.08386615 0.9956437 -0.04074703
vn -0.08386615 0.9956437 -0.04074703
vn -0.9083025 0.0002332274 -0.418314
vn -0.9083025 0.0002332274 -0.418314
vn -0.9083025 0.0002332274 -0.418314
vn -0.9083025 0.0002332274 -0.418314
vn -0.9168594 -0.03154217 -0.3979622
vn -0.9168594 -0.03154217 -0.3979622
vn -0.9624957 -0.08029366 -0.2591426
vn -0.9624957 -0.08029366 -0.2591426
vn -0.9624957 -0.08029366 -0.2591426
vn -0.9624957 -0.08029366 -0.2591426
vn -0.4186059 -0.042964 0.9071512
vn -0.4186059 -0.042964 0.9071512
vn -0.4186059 -0.042964 0.9071512
vn -0.4186059 -0.042964 0.9071512
vn -0.3800036 -0.1185316 0.9173591
vn -0.3800036 -0.1185316 0.9173591
vn -0.3800036 -0.1185316 0.9173591
vn -0.3800036 -0.1185316 0.9173591
vn -0.2683398 0.1510223 0.9514128
vn -0.2683398 0.1510223 0.9514128
vn -0.2683398 0.1510223 0.9514128
vn -0.2683398 0.1510223 0.9514128
vn 0.9084744 -0.001832833 0.4179366
vn 0.9084744 -0.001832833 0.4179366
vn 0.9084744 -0.001832833 0.4179366
vn 0.9084744 -0.001832833 0.4179366
vn 0.9061967 0.1081507 0.4087921
vn 0.9061967 0.1081507 0.4087921
vn 0.9061967 0.1081507 0.4087921
vn 0.9061967 0.1081507 0.4087921
vn 0.9613179 0.1010088 0.2562519
vn 0.9613179 0.1010088 0.2562519
vn 0.9613179 0.1010088 0.2562519
vn 0.9613179 0.1010088 0.2562519
vn 0.4159602 0.08734149 -0.9051788
vn 0.4159602 0.08734149 -0.9051788
vn 0.4159602 0.08734149 -0.9051788
vn 0.4159602 0.08734149 -0.9051788
vn 0.3735573 0.1885919 -0.9082336
vn 0.3735573 0.1885919 -0.9082336
vn 0.3735573 0.1885919 -0.9082336
vn 0.3735573 0.1885919 -0.9082336
vn 0.2670755 -0.1287776 -0.9550326
vn 0.2670755 -0.1287776 -0.9550326
vn 0.2670755 -0.1287776 -0.9550326
vn 0.2670755 -0.1287776 -0.9550326

vt 0.7236328 0.1385498
vt 0.6708984 0.1983643
vt 0.6811523 0.2230225
vt 0.7490234 0.1921387
vt 0.7573242 0.1474609
vt 0.6293945 0.1660156
vt 0.5927734 0.1928711
vt 0.6157227 0.2336426
vt 0.6708984 0.1983643
vt 0.6728516 0.2427979
vt 0.6811523 0.2230225
vt 0.7109375 0.08966064
vt 0.6889648 0.08538818
vt 0.7016602 0.1199341
vt 0.7539063 0.1152954
vt 0.7236328 0.1385498
vt 0.7573242 0.1474609
vt 0.7016602 0.1199341
vt 0.637207 0.1189575
vt 0.6293945 0.1660156
vt 0.6708984 0.1983643
vt 0.7236328 0.1385498
vt 0.9111328 0.1937256
vt 0.9111328 0.1470947
vt 0.8671875 0.1462402
vt 0.8671875 0.1787109
vt 0.2653809 0.8417969
vt 0.2351074 0.84375
vt 0.2353516 0.8984375
vt 0.2834473 0.8920898
vt 0.9111328 0.1470947
vt 0.8862305 0.1133423
vt 0.8359375 0.08331299
vt 0.8671875 0.1462402
vt 0.8266602 0.1092529
vt 0.6445313 0.08331299
vt 0.6118164 0.09918213
vt 0.637207 0.1189575
vt 0.6889648 0.08538818
vt 0.7016602 0.1199341
vt 0.1531982 0.9760742
vt 0.1297607 0.9311523
vt 0.09283447 0.9277344
vt 0.05230713 0.9550781
vt 0.06719971 0.9760742
vt 0.675293 0.2902832
vt 0.644043 0.2773438
vt 0.6376953 0.3227539
vt 0.7114258 0.3374023
vt 0.6835938 0.3508301
vt 0.2648926 0.7915039
vt 0.2357178 0.8105469
vt 0.2351074 0.84375
vt 0.2653809 0.8417969
vt 0.282959 0.7993164
vt 0.2883301 0.8305664
vt 0.6811523 0.2230225
vt 0.6728516 0.2427979
vt 0.7202148 0.2347412
vt 0.7490234 0.1921387
vt 0.7573242 0.2012939
vt 0.6118164 0.09918213
vt 0.5888672 0.152832
vt 0.5927734 0.1928711
vt 0.637207 0.1189575
vt 0.6293945 0.1660156
vt 0.6113281 0.2788086
vt 0.5961914 0.2827148
vt 0.5927734 0.3295898
vt 0.644043 0.2773438
vt 0.6376953 0.3227539
vt 0.8276367 0.2070313
vt 0.8447266 0.2546387
vt 0.8710938 0.2332764
vt 0.8984375 0.1953125
vt 0.8535156 0.1882324
vt 0.8671875 0.1787109
vt 0.9111328 0.1937256
vt 0.3227539 0.8637695
vt 0.2883301 0.8305664
vt 0.2653809 0.8417969
vt 0.2834473 0.8920898
vt 0.7954102 0.2114258
vt 0.7958984 0.2473145
vt 0.8447266 0.2546387
vt 0.8276367 0.2070313
vt 0.1040649 0.8466797
vt 0.09283447 0.9277344
vt 0.1297607 0.9311523
vt 0.1728516 0.8891602
vt 0.09283447 0.9277344
vt 0.1040649 0.8466797
vt 0.03643799 0.8569336
vt 0.03114319 0.9287109
vt 0.05230713 0.9550781
vt 0.2883301 0.8305664
vt 0.3227539 0.8637695
vt 0.3430176 0.8496094
vt 0.3430176 0.8496094
vt 0.282959 0.7993164
vt 0.2883301 0.8305664
vt 0.3425293 0.8007813
vt 0.7255859 0.3693848
vt 0.7114258 0.3374023
vt 0.6835938 0.3508301
vt 0.71875 0.4089355
vt 0.6547852 0.3791504
vt 0.6704102 0.4089355
vt 0.2819824 0.7451172
vt 0.2648926 0.7915039
vt 0.282959 0.7993164
vt 0.3425293 0.8007813
vt 0.2116699 0.3474121
vt 0.166626 0.3481445
vt 0.1859131 0.4489746
vt 0.2196045 0.4482422
vt 0.300293 0.3469238
vt 0.2553711 0.3479004
vt 0.2731934 0.4489746
vt 0.3068848 0.4482422
vt 0.3322754 0.1444092
vt 0.3771973 0.1452637
vt 0.385498 0.04385376
vt 0.3518066 0.04321289
vt 0.07958984 0.1439209
vt 0.1245728 0.1447754
vt 0.1313477 0.04385376
vt 0.09765625 0.04321289
vt 0.4592285 0.08947754
vt 0.4592285 0.04321289
vt 0.402832 0.04321289
vt 0.402832 0.08947754
vt 0.4365234 0.1037598
vt 0.402832 0.1037598
vt 0.402832 0.1314697
vt 0.4365234 0.1314697
vt 0.07513428 0.447998
vt 0.1313477 0.4489746
vt 0.1273193 0.3334961
vt 0.0791626 0.3552246
vt 0.1028442 0.2614746
vt 0.05648804 0.2526855
vt 0.05648804 0.2526855
vt 0.1028442 0.2614746
vt 0.1245728 0.1447754
vt 0.07958984 0.1439209
vt 0.3293457 0.447998
vt 0.385498 0.4489746
vt 0.3837891 0.3562012
vt 0.3288574 0.3605957
vt 0.3288574 0.3605957
vt 0.3837891 0.3562012
vt 0.3718262 0.2548828
vt 0.3242188 0.253418
vt 0.3242188 0.253418
vt 0.3718262 0.2548828
vt 0.3771973 0.1452637
vt 0.3322754 0.1444092
vt 0.3068848 0.04321289
vt 0.2507324 0.04428101
vt 0.241333 0.1318359
vt 0.2895508 0.1530762
vt 0.2895508 0.1530762
vt 0.241333 0.1318359
vt 0.2370605 0.2391357
vt 0.2834473 0.2307129
vt 0.2834473 0.2307129
vt 0.2370605 0.2391357
vt 0.2553711 0.3479004
vt 0.300293 0.3469238
vt 0.2196045 0.04321289
vt 0.1634521 0.04425049
vt 0.1488037 0.1547852
vt 0.2037354 0.1586914
vt 0.2037354 0.1586914
vt 0.1488037 0.1547852
vt 0.1629639 0.2320557
vt 0.2104492 0.230957
vt 0.2104492 0.230957
vt 0.1629639 0.2320557
vt 0.166626 0.3481445
vt 0.2116699 0.3474121

g Magic_mushroom6_(8)_601_24
usemtl Magic_mushroom6_(8)_601_24
usemap Magic_mushroom6_(8)_601_24
f 1/1/1 3/3/3 2/2/2
f 3/3/3 1/1/1 4/4/4
f 4/4/4 1/1/1 5/5/5
f 6/6/6 8/8/8 7/7/7
f 8/8/8 6/6/6 9/9/9
f 8/8/8 9/9/9 10/10/10
f 10/10/10 9/9/9 11/11/11
f 12/12/12 14/14/14 13/13/13
f 14/14/14 12/12/12 15/15/15
f 14/14/14 15/15/15 16/16/16
f 16/16/16 15/15/15 17/17/17
f 18/18/18 20/20/20 19/19/19
f 20/20/20 18/18/18 21/21/21
f 21/21/21 18/18/18 22/22/22
f 23/23/23 25/25/25 24/24/24
f 23/23/23 26/26/26 25/25/25
f 27/27/27 29/29/29 28/28/28
f 27/27/27 30/30/30 29/29/29
f 31/31/31 33/33/33 32/32/32
f 33/33/33 31/31/31 34/34/34
f 33/33/33 34/34/34 35/35/35
f 36/36/36 38/38/38 37/37/37
f 38/38/38 36/36/36 39/39/39
f 38/38/38 39/39/39 40/40/40
f 41/41/41 43/43/43 42/42/42
f 43/43/43 41/41/41 44/44/44
f 44/44/44 41/41/41 45/45/45
f 46/46/46 48/48/48 47/47/47
f 48/48/48 46/46/46 49/49/49
f 48/48/48 49/49/49 50/50/50
f 51/51/51 53/53/53 52/52/52
f 53/53/53 51/51/51 54/54/54
f 54/54/54 51/51/51 55/55/55
f 54/54/54 55/55/55 56/56/56
f 57/57/57 59/59/59 58/58/58
f 59/59/59 57/57/57 60/60/60
f 59/59/59 60/60/60 61/61/61
f 62/62/62 64/64/64 63/63/63
f 64/64/64 62/62/62 65/65/65
f 64/64/64 65/65/65 66/66/66
f 67/67/67 69/69/69 68/68/68
f 69/69/69 67/67/67 70/70/70
f 69/69/69 70/70/70 71/71/71
f 72/72/72 74/74/74 73/73/73
f 74/74/74 72/72/72 75/75/75
f 75/75/75 72/72/72 76/76/76
f 75/75/75 76/76/76 77/77/77
f 75/75/75 77/77/77 78/78/78
f 79/79/79 81/81/81 80/80/80
f 79/79/79 82/82/82 81/81/81
f 83/83/83 85/85/85 84/84/84
f 83/83/83 86/86/86 85/85/85
f 87/87/87 89/89/89 88/88/88
f 87/87/87 90/90/90 89/89/89
f 91/91/91 93/93/93 92/92/92
f 93/93/93 91/91/91 94/94/94
f 94/94/94 91/91/91 95/95/95
f 96/96/96 98/98/98 97/97/97
f 99/99/99 101/101/101 100/100/100
f 99/99/99 100/100/100 102/102/102
f 103/103/103 105/105/105 104/104/104
f 105/105/105 103/103/103 106/106/106
f 105/105/105 106/106/106 107/107/107
f 107/107/107 106/106/106 108/108/108
f 109/109/109 111/111/111 110/110/110
f 109/109/109 112/112/112 111/111/111
f 113/113/113 115/115/115 114/114/114
f 113/113/113 116/116/116 115/115/115
f 117/117/117 119/119/119 118/118/118
f 117/117/117 120/120/120 119/119/119
f 121/121/121 123/123/123 122/122/122
f 121/121/121 124/124/124 123/123/123
f 125/125/125 127/127/127 126/126/126
f 125/125/125 128/128/128 127/127/127
f 129/129/129 131/131/131 130/130/130
f 129/129/129 132/132/132 131/131/131
f 133/133/133 135/135/135 134/134/134
f 133/133/133 136/136/136 135/135/135
f 137/137/137 139/139/139 138/138/138
f 137/137/137 140/140/140 139/139/139
f 140/140/140 141/141/141 139/139/139
f 140/140/140 142/142/142 141/141/141
f 143/143/143 145/145/145 144/144/144
f 143/143/143 146/146/146 145/145/145
f 147/147/147 149/149/149 148/148/148
f 147/147/147 150/150/150 149/149/149
f 151/151/151 153/153/153 152/152/152
f 151/151/151 154/154/154 153/153/153
f 155/155/155 157/157/157 156/156/156
f 155/155/155 158/158/158 157/157/157
f 159/159/159 161/161/161 160/160/160
f 159/159/159 162/162/162 161/161/161
f 163/163/163 165/165/165 164/164/164
f 163/163/163 166/166/166 165/165/165
f 167/167/167 169/169/169 168/168/168
f 167/167/167 170/170/170 169/169/169
f 171/171/171 173/173/173 172/172/172
f 171/171/171 174/174/174 173/173/173
f 175/175/175 177/177/177 176/176/176
f 175/175/175 178/178/178 177/177/177
f 179/179/179 181/181/181 180/180/180
f 179/179/179 182/182/182 181/181/181
