#Magic_mushroom4_(2)_578_34.obj

v -5.965057 3.259155 3.605591
v -4.52446 3.211838 5.360535
v -4.673752 0.4432755 6.388184
v -6.983063 -0.01834869 3.873291
v -2.331818 -4.92939 5.046936
v -2.025894 -3.646942 6.367126
v 2.803604 -1.406319 7.117615
v 3.772842 -2.578041 5.836609
v -2.025894 -3.646942 6.367126
v -1.635452 -2.010139 8.052155
v -4.52446 3.211838 5.360535
v -5.965057 3.259155 3.605591
v -4.858917 5.873497 3.758057
v -0.8887634 6.979164 3.90036
v 0.8898621 6.801109 4.083862
v -0.8602905 4.811813 5.75235
v -1.322372 3.893059 6.921387
v 3.515411 2.718491 6.923157
v 2.803604 -1.406319 7.117615
v -1.635452 -2.010139 8.052155
v -4.673752 0.4432755 6.388184
v -7.361328 -1.239563 3.099121
v -5.42778 -4.939018 3.234497
v -0.9873657 -1.764351 -2.499664
v -2.059967 -0.2556 -2.078522
v -1.234772 0.87146 -2.172394
v 0.174408 1.687332 -2.496246
v -0.8887634 6.979164 3.90036
v -4.858917 5.873497 3.758057
v 2.674347 -7.3535 2.260651
v 0.1075134 -1.761086 -2.652161
v -0.9873657 -1.764351 -2.499664
v -5.42778 -4.939018 3.234497
v -2.103287 -6.77903 3.943726
v 3.515411 2.718491 6.923157
v -1.322372 3.893059 6.921387
v -0.8602905 4.811813 5.75235
v 4.389252 3.038689 6.108978
v 0.1075134 -1.761086 -2.652161
v 2.674347 -7.3535 2.260651
v 5.383972 -4.525772 3.707184
v 6.769165 -1.257607 3.576935
v 0.9661865 -0.06349182 -3.314209
v 3.065247 -0.02291107 -1.837341
v 6.394974 3.773628 4.240112
v 4.334152 5.896309 4.166992
v 3.065247 -0.02291107 -1.837341
v 6.394974 3.773628 4.240112
v 3.065247 -0.02291107 -1.837341
v 6.769165 -1.257607 3.576935
v 0.1075134 -1.761086 -2.652161
v 0.9661865 -0.06349182 -3.314209
v 0.174408 1.687332 -2.496246
v -1.234772 0.87146 -2.172394
v -0.9873657 -1.764351 -2.499664
v -2.059967 -0.2556 -2.078522
v -2.331818 -4.92939 5.046936
v -2.103287 -6.77903 3.943726
v -5.42778 -4.939018 3.234497
v -6.983063 -0.01834869 3.873291
v -7.361328 -1.239563 3.099121
v 4.780579 3.182076 5.744354
v 3.772842 -2.578041 5.836609
v 2.803604 -1.406319 7.117615
v 3.515411 2.718491 6.923157
v 3.515411 2.718491 6.923157
v 4.389252 3.038689 6.108978
v 4.780579 3.182076 5.744354
v 0.174408 1.687332 -2.496246
v 0.9661865 -0.06349182 -3.314209
v 3.065247 -0.02291107 -1.837341
v -0.8887634 6.979164 3.90036
v 4.334152 5.896309 4.166992
v 0.8898621 6.801109 4.083862
v -6.983063 -0.01834869 3.873291
v -7.361328 -1.239563 3.099121
v -2.059967 -0.2556 -2.078522
v -1.234772 0.87146 -2.172394
v -5.965057 3.259155 3.605591
v -4.858917 5.873497 3.758057
v 3.772842 -2.578041 5.836609
v 5.383972 -4.525772 3.707184
v 2.674347 -7.3535 2.260651
v -2.025894 -3.646942 6.367126
v -2.103287 -6.77903 3.943726
v -2.103287 -6.77903 3.943726
v -2.331818 -4.92939 5.046936
v -2.025894 -3.646942 6.367126
v 6.769165 -1.257607 3.576935
v 5.383972 -4.525772 3.707184
v 3.772842 -2.578041 5.836609
v 4.780579 3.182076 5.744354
v 6.394974 3.773628 4.240112
v -4.673752 0.4432755 6.388184
v -1.635452 -2.010139 8.052155
v -2.025894 -3.646942 6.367126
v -0.8602905 4.811813 5.75235
v -1.322372 3.893059 6.921387
v -4.673752 0.4432755 6.388184
v -0.8602905 4.811813 5.75235
v -4.673752 0.4432755 6.388184
v -4.52446 3.211838 5.360535
v 4.334152 5.896309 4.166992
v 6.394974 3.773628 4.240112
v 4.780579 3.182076 5.744354
v 4.389252 3.038689 6.108978
v -0.8602905 4.811813 5.75235
v 0.8898621 6.801109 4.083862
v 0.118042 0.6370239 -5.643646
v 2.073471 0.004623413 -5.453033
v 0.9580231 0.6505661 0.09738159
v -0.5085449 1.12487 -0.04556274
v 2.073471 0.004623413 -5.453033
v 1.43605 -1.958275 -5.426392
v 0.4799652 -0.8216019 0.1173401
v 0.9580231 0.6505661 0.09738159
v 1.43605 -1.958275 -5.426392
v -0.5193787 -1.325874 -5.617004
v -0.986618 -0.3473053 -0.02560425
v 0.4799652 -0.8216019 0.1173401
v -0.5193787 -1.325874 -5.617004
v 0.118042 0.6370239 -5.643646
v -0.5085449 1.12487 -0.04556274
v -0.986618 -0.3473053 -0.02560425
v 3.500305 0.0629425 -22.34766
v 1.056015 0.853447 -22.58594
v 0.2592468 -1.600174 -22.55261
v 2.703537 -2.390678 -22.31439
v 0.4799652 -0.8216019 0.1173401
v -0.986618 -0.3473053 -0.02560425
v -0.5085449 1.12487 -0.04556274
v 0.9580231 0.6505661 0.09738159
v 0.2592468 -1.600174 -22.55261
v 1.056015 0.853447 -22.58594
v 1.230194 0.504509 -16.11267
v 0.02502441 -1.388084 -17.38617
v 0.02502441 -1.388084 -17.38617
v 1.230194 0.504509 -16.11267
v 0.2757874 -0.3948669 -12.14401
v -0.2191467 -2.482475 -11.66977
v -0.2191467 -2.482475 -11.66977
v 0.2757874 -0.3948669 -12.14401
v 0.118042 0.6370239 -5.643646
v -0.5193787 -1.325874 -5.617004
v 2.703537 -2.390678 -22.31439
v 0.2592468 -1.600174 -22.55261
v 0.02502441 -1.388084 -17.38617
v 2.217957 -2.74601 -17.44342
v 2.217957 -2.74601 -17.44342
v 0.02502441 -1.388084 -17.38617
v -0.2191467 -2.482475 -11.66977
v 1.918839 -2.939522 -11.45044
v 1.918839 -2.939522 -11.45044
v -0.2191467 -2.482475 -11.66977
v -0.5193787 -1.325874 -5.617004
v 1.43605 -1.958275 -5.426392
v 3.500305 0.0629425 -22.34766
v 2.703537 -2.390678 -22.31439
v 2.217957 -2.74601 -17.44342
v 3.423141 -0.8534164 -16.16989
v 3.423141 -0.8534164 -16.16989
v 2.217957 -2.74601 -17.44342
v 1.918839 -2.939522 -11.45044
v 2.413757 -0.8519135 -11.92465
v 2.413757 -0.8519135 -11.92465
v 1.918839 -2.939522 -11.45044
v 1.43605 -1.958275 -5.426392
v 2.073471 0.004623413 -5.453033
v 1.056015 0.853447 -22.58594
v 3.500305 0.0629425 -22.34766
v 3.423141 -0.8534164 -16.16989
v 1.230194 0.504509 -16.11267
v 1.230194 0.504509 -16.11267
v 3.423141 -0.8534164 -16.16989
v 2.413757 -0.8519135 -11.92465
v 0.2757874 -0.3948669 -12.14401
v 0.2757874 -0.3948669 -12.14401
v 2.413757 -0.8519135 -11.92465
v 2.073471 0.004623413 -5.453033
v 0.118042 0.6370239 -5.643646

vn -0.721279 0.6705307 0.1736241
vn -0.721279 0.6705307 0.1736241
vn -0.721279 0.6705307 0.1736241
vn -0.721279 0.6705307 0.1736241
vn -0.721279 0.6705307 0.1736241
vn -0.721279 0.6705307 0.1736241
vn 0.2117567 0.6934427 0.6886919
vn 0.2117567 0.6934427 0.6886919
vn 0.2117567 0.6934427 0.6886919
vn 0.2117567 0.6934427 0.6886919
vn -0.3136641 0.7849631 -0.5342734
vn -0.3136641 0.7849631 -0.5342734
vn -0.3136641 0.7849631 -0.5342734
vn -0.3136641 0.7849631 -0.5342734
vn -0.3136641 0.7849631 -0.5342734
vn -0.3136641 0.7849631 -0.5342734
vn -0.03009258 0.9889297 -0.1453023
vn -0.03009258 0.9889297 -0.1453023
vn -0.03009258 0.9889297 -0.1453023
vn -0.03009258 0.9889297 -0.1453023
vn -0.03009258 0.9889297 -0.1453023
vn -0.6381348 -0.6955402 0.3301634
vn -0.6381348 -0.6955402 0.3301634
vn -0.6381348 -0.6955402 0.3301634
vn -0.6381348 -0.6955402 0.3301634
vn -0.2681453 -0.675525 -0.686851
vn -0.2681453 -0.675525 -0.686851
vn -0.2681453 -0.675525 -0.686851
vn -0.2681453 -0.675525 -0.686851
vn -0.2716579 -0.6314076 0.7263104
vn -0.2716579 -0.6314076 0.7263104
vn -0.2716579 -0.6314076 0.7263104
vn -0.2716579 -0.6314076 0.7263104
vn -0.2716579 -0.6314076 0.7263104
vn 0.2014705 0.6129777 -0.7639818
vn 0.2014705 0.6129777 -0.7639818
vn 0.2014705 0.6129777 -0.7639818
vn 0.2014705 0.6129777 -0.7639818
vn 0.6378081 -0.6579514 0.400376
vn 0.6378081 -0.6579514 0.400376
vn 0.6378081 -0.6579514 0.400376
vn 0.6378081 -0.6579514 0.400376
vn 0.6378081 -0.6579514 0.400376
vn 0.6378081 -0.6579514 0.400376
vn 0.7436689 -0.5962926 -0.3023109
vn 0.7436689 -0.5962926 -0.3023109
vn 0.7436689 -0.5962926 -0.3023109
vn 0.7436689 -0.5962926 -0.3023109
vn 0.7436689 -0.5962926 -0.3023109
vn 0.7436689 -0.5962926 -0.3023109
vn -0.3463622 -0.9354059 -0.07105863
vn -0.3463622 -0.9354059 -0.07105863
vn -0.3463622 -0.9354059 -0.07105863
vn -0.3463622 -0.9354059 -0.07105863
vn -0.3463622 -0.9354059 -0.07105863
vn -0.3463622 -0.9354059 -0.07105863
vn -0.4966354 0.8038864 0.3272922
vn -0.4966354 0.8038864 0.3272922
vn -0.4966354 0.8038864 0.3272922
vn -0.4966354 0.8038864 0.3272922
vn -0.4966354 0.8038864 0.3272922
vn 0.7207771 0.6850893 0.1055138
vn 0.7207771 0.6850893 0.1055138
vn 0.7207771 0.6850893 0.1055138
vn 0.7207771 0.6850893 0.1055138
vn 0.7207771 0.6850893 0.1055138
vn 0.7207771 0.6850893 0.1055138
vn 0.7207771 0.6850893 0.1055138
vn 0.3240002 -0.6486665 -0.6886624
vn 0.3240002 -0.6486665 -0.6886624
vn 0.3240002 -0.6486665 -0.6886624
vn 0.3240002 -0.6486665 -0.6886624
vn 0.3240002 -0.6486665 -0.6886624
vn 0.3240002 -0.6486665 -0.6886624
vn -0.693487 -0.6452921 -0.3204278
vn -0.693487 -0.6452921 -0.3204278
vn -0.693487 -0.6452921 -0.3204278
vn -0.693487 -0.6452921 -0.3204278
vn -0.693487 -0.6452921 -0.3204278
vn -0.693487 -0.6452921 -0.3204278
vn 0.1825051 0.7678095 0.6141341
vn 0.1825051 0.7678095 0.6141341
vn 0.1825051 0.7678095 0.6141341
vn 0.1825051 0.7678095 0.6141341
vn 0.1825051 0.7678095 0.6141341
vn 0.1825051 0.7678095 0.6141341
vn 0.1825051 0.7678095 0.6141341
vn 0.1825051 0.7678095 0.6141341
vn 0.6517696 0.7485607 0.1218737
vn 0.6517696 0.7485607 0.1218737
vn 0.6517696 0.7485607 0.1218737
vn 0.6517696 0.7485607 0.1218737
vn 0.6517696 0.7485607 0.1218737
vn -0.6783913 0.586733 0.4421872
vn -0.6783913 0.586733 0.4421872
vn -0.6783913 0.586733 0.4421872
vn -0.4622164 0.7260265 -0.5091578
vn -0.4622164 0.7260265 -0.5091578
vn -0.4622164 0.7260265 -0.5091578
vn -0.4622164 0.7260265 -0.5091578
vn -0.4622164 0.7260265 -0.5091578
vn -0.4622164 0.7260265 -0.5091578
vn 0.2123169 0.8045913 -0.5545762
vn 0.2123169 0.8045913 -0.5545762
vn 0.2123169 0.8045913 -0.5545762
vn 0.2123169 0.8045913 -0.5545762
vn 0.2123169 0.8045913 -0.5545762
vn 0.2123169 0.8045913 -0.5545762
vn 0.3115813 -0.04782699 -0.9490152
vn 0.3115813 -0.04782699 -0.9490152
vn 0.3115813 -0.04782699 -0.9490152
vn 0.3115813 -0.04782699 -0.9490152
vn 0.9284024 0.2213141 0.2984778
vn 0.9284024 0.2213141 0.2984778
vn 0.9284024 0.2213141 0.2984778
vn 0.9284024 0.2213141 0.2984778
vn -0.3169124 0.1377499 0.9383985
vn -0.3169124 0.1377499 0.9383985
vn -0.3169124 0.1377499 0.9383985
vn -0.3169124 0.1377499 0.9383985
vn -0.9432967 -0.1321209 -0.304525
vn -0.9432967 -0.1321209 -0.304525
vn -0.9432967 -0.1321209 -0.304525
vn -0.9432967 -0.1321209 -0.304525
vn 0.08386616 -0.9956437 0.04074683
vn 0.08386616 -0.9956437 0.04074683
vn 0.08386616 -0.9956437 0.04074683
vn 0.08386616 -0.9956437 0.04074683
vn -0.08386623 0.9956437 -0.04074728
vn -0.08386623 0.9956437 -0.04074728
vn -0.08386623 0.9956437 -0.04074728
vn -0.08386623 0.9956437 -0.04074728
vn -0.9083025 0.0002332198 -0.418314
vn -0.9083025 0.0002332198 -0.418314
vn -0.9083025 0.0002332198 -0.418314
vn -0.9083025 0.0002332198 -0.418314
vn -0.9168595 -0.03154215 -0.3979621
vn -0.9168595 -0.03154215 -0.3979621
vn -0.9168595 -0.03154215 -0.3979621
vn -0.9168595 -0.03154215 -0.3979621
vn -0.9624957 -0.08029361 -0.2591427
vn -0.9624957 -0.08029361 -0.2591427
vn -0.9624957 -0.08029361 -0.2591427
vn -0.9624957 -0.08029361 -0.2591427
vn -0.418606 -0.04296399 0.9071512
vn -0.418606 -0.04296399 0.9071512
vn -0.418606 -0.04296399 0.9071512
vn -0.418606 -0.04296399 0.9071512
vn -0.3800036 -0.1185317 0.9173591
vn -0.3800036 -0.1185317 0.9173591
vn -0.3800036 -0.1185317 0.9173591
vn -0.3800036 -0.1185317 0.9173591
vn -0.2683396 0.1510224 0.9514129
vn -0.2683396 0.1510224 0.9514129
vn -0.2683396 0.1510224 0.9514129
vn -0.2683396 0.1510224 0.9514129
vn 0.9084741 -0.001832808 0.417937
vn 0.9084741 -0.001832808 0.417937
vn 0.9084741 -0.001832808 0.417937
vn 0.9084741 -0.001832808 0.417937
vn 0.9061967 0.1081506 0.4087923
vn 0.9061967 0.1081506 0.4087923
vn 0.9061967 0.1081506 0.4087923
vn 0.9061967 0.1081506 0.4087923
vn 0.9613178 0.1010089 0.2562523
vn 0.9613178 0.1010089 0.2562523
vn 0.9613178 0.1010089 0.2562523
vn 0.9613178 0.1010089 0.2562523
vn 0.41596 0.08734149 -0.905179
vn 0.41596 0.08734149 -0.905179
vn 0.41596 0.08734149 -0.905179
vn 0.41596 0.08734149 -0.905179
vn 0.3735569 0.1885919 -0.9082338
vn 0.3735569 0.1885919 -0.9082338
vn 0.3735569 0.1885919 -0.9082338
vn 0.3735569 0.1885919 -0.9082338
vn 0.2670753 -0.1287777 -0.9550326
vn 0.2670753 -0.1287777 -0.9550326
vn 0.2670753 -0.1287777 -0.9550326
vn 0.2670753 -0.1287777 -0.9550326

vt 0.4484863 0.1497803
vt 0.4223633 0.1486816
vt 0.4089355 0.1871338
vt 0.4472656 0.1965332
vt 0.3803711 0.2281494
vt 0.3718262 0.2171631
vt 0.8540039 0.2814941
vt 0.8378906 0.260498
vt 0.8110352 0.3393555
vt 0.8393555 0.3447266
vt 0.4223633 0.1486816
vt 0.4484863 0.1497803
vt 0.4443359 0.1122437
vt 0.4082031 0.07287598
vt 0.3891602 0.0637207
vt 0.388916 0.1068115
vt 0.828125 0.06756592
vt 0.777832 0.04852295
vt 0.7719727 0.1028442
vt 0.8066406 0.1444092
vt 0.8540039 0.12854
vt 0.1688232 0.1478271
vt 0.168457 0.1967773
vt 0.2514648 0.2189941
vt 0.2469482 0.194458
vt 0.2619629 0.1849365
vt 0.2822266 0.1828613
vt 0.2775879 0.06866455
vt 0.230835 0.06866455
vt 0.2834473 0.3908691
vt 0.1900635 0.4160156
vt 0.1898193 0.427002
vt 0.2563477 0.4575195
vt 0.2836914 0.4282227
vt 0.769043 0.2258301
vt 0.7729492 0.1550293
vt 0.7583008 0.1556396
vt 0.7583008 0.2353516
vt 0.1900635 0.4160156
vt 0.2834473 0.3908691
vt 0.2697754 0.333252
vt 0.2386475 0.2980957
vt 0.1699219 0.4001465
vt 0.1828613 0.3669434
vt 0.1938477 0.2653809
vt 0.1699219 0.2749023
vt 0.1828613 0.3669434
vt 0.1938477 0.2653809
vt 0.1828613 0.3669434
vt 0.2386475 0.2980957
vt 0.2634277 0.223999
vt 0.2836914 0.2122803
vt 0.2822266 0.1828613
vt 0.2619629 0.1849365
vt 0.2514648 0.2189941
vt 0.2469482 0.194458
vt 0.3432617 0.3937988
vt 0.3190918 0.3828125
vt 0.3188477 0.4265137
vt 0.3630371 0.4575195
vt 0.3449707 0.4570313
vt 0.8935547 0.2546387
vt 0.8378906 0.260498
vt 0.8540039 0.2814941
vt 0.8930664 0.2768555
vt 0.8930664 0.2768555
vt 0.8935547 0.2614746
vt 0.8935547 0.2546387
vt 0.8491211 0.1401367
vt 0.8344727 0.1262207
vt 0.8081055 0.1429443
vt 0.8725586 0.2353516
vt 0.8081055 0.2279053
vt 0.8510742 0.2341309
vt 0.1766357 0.1290283
vt 0.1688232 0.1478271
vt 0.2469482 0.194458
vt 0.2619629 0.1849365
vt 0.2058105 0.09643555
vt 0.230835 0.06866455
vt 0.392334 0.3190918
vt 0.3649902 0.2841797
vt 0.3188477 0.3095703
vt 0.3654785 0.3979492
vt 0.3190918 0.3828125
vt 0.3190918 0.3828125
vt 0.3432617 0.3937988
vt 0.3654785 0.3979492
vt 0.3989258 0.2695313
vt 0.3649902 0.2841797
vt 0.392334 0.3190918
vt 0.4482422 0.3132324
vt 0.4484863 0.2851563
vt 0.8388672 0.3808594
vt 0.8393555 0.3447266
vt 0.8110352 0.3393555
vt 0.8344727 0.04821777
vt 0.828125 0.06756592
vt 0.8540039 0.12854
vt 0.8344727 0.04821777
vt 0.8540039 0.12854
vt 0.8676758 0.09014893
vt 0.3527832 0.05136108
vt 0.326416 0.06268311
vt 0.3300781 0.08758545
vt 0.3308105 0.09362793
vt 0.388916 0.1068115
vt 0.3891602 0.0637207
vt 0.2875977 0.1234131
vt 0.317627 0.1226196
vt 0.3046875 0.02578735
vt 0.2819824 0.02638245
vt 0.1054077 0.2094727
vt 0.1343994 0.201416
vt 0.1251221 0.1461182
vt 0.1033936 0.1520996
vt 0.03022766 0.2067871
vt 0.05389404 0.1916504
vt 0.05023193 0.1124878
vt 0.03250122 0.1238403
vt 0.2229004 0.3405762
vt 0.1939697 0.347168
vt 0.1882324 0.4157715
vt 0.2098389 0.4108887
vt 0.1882324 0.1314697
vt 0.1992188 0.1634521
vt 0.2353516 0.1551514
vt 0.2242432 0.1231689
vt 0.449707 0.0612793
vt 0.4660645 0.06530762
vt 0.4660645 0.04464722
vt 0.449707 0.0406189
vt 0.2353516 0.1551514
vt 0.1992188 0.1634521
vt 0.1960449 0.2254639
vt 0.2299805 0.2126465
vt 0.2299805 0.2126465
vt 0.1960449 0.2254639
vt 0.2110596 0.2709961
vt 0.2398682 0.2663574
vt 0.2398682 0.2663574
vt 0.2110596 0.2709961
vt 0.1939697 0.347168
vt 0.2229004 0.3405762
vt 0.03022766 0.4157715
vt 0.05981445 0.3969727
vt 0.05731201 0.3327637
vt 0.03433228 0.3603516
vt 0.03433228 0.3603516
vt 0.05731201 0.3327637
vt 0.06115723 0.2773438
vt 0.03405762 0.2910156
vt 0.03405762 0.2910156
vt 0.06115723 0.2773438
vt 0.05389404 0.1916504
vt 0.03022766 0.2067871
vt 0.1033936 0.4157715
vt 0.1395264 0.4057617
vt 0.1448975 0.3447266
vt 0.1112671 0.3303223
vt 0.1112671 0.3303223
vt 0.1448975 0.3447266
vt 0.1459961 0.2685547
vt 0.1169434 0.2844238
vt 0.1169434 0.2844238
vt 0.1459961 0.2685547
vt 0.1343994 0.201416
vt 0.1054077 0.2094727
vt 0.2819824 0.4157715
vt 0.3198242 0.4147949
vt 0.3295898 0.3085938
vt 0.2927246 0.3046875
vt 0.2927246 0.3046875
vt 0.3295898 0.3085938
vt 0.3200684 0.2342529
vt 0.2883301 0.2353516
vt 0.2883301 0.2353516
vt 0.3200684 0.2342529
vt 0.317627 0.1226196
vt 0.2875977 0.1234131

g Magic_mushroom4_(2)_578_34
usemtl Magic_mushroom4_(2)_578_34
usemap Magic_mushroom4_(2)_578_34
f 1/1/1 3/3/3 2/2/2
f 4/4/4 3/3/3 1/1/1
f 5/5/5 3/3/3 4/4/4
f 3/3/3 5/5/5 6/6/6
f 7/7/7 9/9/9 8/8/8
f 7/7/7 10/10/10 9/9/9
f 11/11/11 13/13/13 12/12/12
f 13/13/13 11/11/11 14/14/14
f 14/14/14 11/11/11 15/15/15
f 15/15/15 11/11/11 16/16/16
f 17/17/17 19/19/19 18/18/18
f 19/19/19 17/17/17 20/20/20
f 20/20/20 17/17/17 21/21/21
f 22/22/22 24/24/24 23/23/23
f 22/22/22 25/25/25 24/24/24
f 26/26/26 28/28/28 27/27/27
f 26/26/26 29/29/29 28/28/28
f 30/30/30 32/32/32 31/31/31
f 32/32/32 30/30/30 33/33/33
f 33/33/33 30/30/30 34/34/34
f 35/35/35 37/37/37 36/36/36
f 35/35/35 38/38/38 37/37/37
f 39/39/39 41/41/41 40/40/40
f 41/41/41 39/39/39 42/42/42
f 42/42/42 39/39/39 43/43/43
f 42/42/42 43/43/43 44/44/44
f 45/45/45 47/47/47 46/46/46
f 48/48/48 50/50/50 49/49/49
f 51/51/51 53/53/53 52/52/52
f 53/53/53 51/51/51 54/54/54
f 54/54/54 51/51/51 55/55/55
f 54/54/54 55/55/55 56/56/56
f 57/57/57 59/59/59 58/58/58
f 59/59/59 57/57/57 60/60/60
f 59/59/59 60/60/60 61/61/61
f 62/62/62 64/64/64 63/63/63
f 64/64/64 62/62/62 65/65/65
f 66/66/66 68/68/68 67/67/67
f 69/69/69 71/71/71 70/70/70
f 71/71/71 69/69/69 72/72/72
f 71/71/71 72/72/72 73/73/73
f 73/73/73 72/72/72 74/74/74
f 75/75/75 77/77/77 76/76/76
f 77/77/77 75/75/75 78/78/78
f 78/78/78 75/75/75 79/79/79
f 78/78/78 79/79/79 80/80/80
f 81/81/81 83/83/83 82/82/82
f 83/83/83 81/81/81 84/84/84
f 83/83/83 84/84/84 85/85/85
f 86/86/86 88/88/88 87/87/87
f 89/89/89 91/91/91 90/90/90
f 91/91/91 89/89/89 92/92/92
f 92/92/92 89/89/89 93/93/93
f 94/94/94 96/96/96 95/95/95
f 97/97/97 99/99/99 98/98/98
f 100/100/100 102/102/102 101/101/101
f 103/103/103 105/105/105 104/104/104
f 105/105/105 103/103/103 106/106/106
f 106/106/106 103/103/103 107/107/107
f 107/107/107 103/103/103 108/108/108
f 109/109/109 111/111/111 110/110/110
f 109/109/109 112/112/112 111/111/111
f 113/113/113 115/115/115 114/114/114
f 113/113/113 116/116/116 115/115/115
f 117/117/117 119/119/119 118/118/118
f 117/117/117 120/120/120 119/119/119
f 121/121/121 123/123/123 122/122/122
f 121/121/121 124/124/124 123/123/123
f 125/125/125 127/127/127 126/126/126
f 125/125/125 128/128/128 127/127/127
f 129/129/129 131/131/131 130/130/130
f 129/129/129 132/132/132 131/131/131
f 133/133/133 135/135/135 134/134/134
f 133/133/133 136/136/136 135/135/135
f 137/137/137 139/139/139 138/138/138
f 137/137/137 140/140/140 139/139/139
f 141/141/141 143/143/143 142/142/142
f 141/141/141 144/144/144 143/143/143
f 145/145/145 147/147/147 146/146/146
f 145/145/145 148/148/148 147/147/147
f 149/149/149 151/151/151 150/150/150
f 149/149/149 152/152/152 151/151/151
f 153/153/153 155/155/155 154/154/154
f 153/153/153 156/156/156 155/155/155
f 157/157/157 159/159/159 158/158/158
f 157/157/157 160/160/160 159/159/159
f 161/161/161 163/163/163 162/162/162
f 161/161/161 164/164/164 163/163/163
f 165/165/165 167/167/167 166/166/166
f 165/165/165 168/168/168 167/167/167
f 169/169/169 171/171/171 170/170/170
f 169/169/169 172/172/172 171/171/171
f 173/173/173 175/175/175 174/174/174
f 173/173/173 176/176/176 175/175/175
f 177/177/177 179/179/179 178/178/178
f 177/177/177 180/180/180 179/179/179
