#Magic_mushroom2_(1)_559_65.obj

v -3.111694 -3.106575 0.6704791
v -0.5373332 3.535228 0.317331
v -2.084147 5.426933 0.6226481
v -7.535726 -0.8437462 0.8590366
v -6.112264 -3.188947 1.4523
v 3.61554 1.720019 1.206932
v 4.578715 5.714952 3.046075
v 2.594177 7.977562 4.424452
v -0.5373332 3.535228 0.317331
v -2.048909 7.37312 1.807542
v -2.084147 5.426933 0.6226481
v -0.7983398 -7.103117 2.074342
v 1.078206 -6.915755 2.209198
v -0.8833618 -4.194291 1.337158
v -4.938232 -5.939739 1.496411
v -3.111694 -3.106575 0.6704791
v -6.112264 -3.188947 1.4523
v -0.8833618 -4.194291 1.337158
v 4.317586 -2.620087 1.538453
v 3.61554 1.720019 1.206932
v -0.5373332 3.535228 0.317331
v -3.111694 -3.106575 0.6704791
v -7.651611 1.54456 1.722015
v -5.623352 5.437068 1.935023
v -3.756022 3.681774 7.790332
v -7.651611 1.54456 1.722015
v -3.756022 3.681774 7.790332
v -5.173828 0.980397 7.008562
v -2.266439 -0.6766495 12.69328
v -0.8653972 -1.535094 13.28633
v -0.831604 -4.341083 7.636101
v -3.365438 -2.841549 8.087605
v -5.623352 5.437068 1.935023
v -2.048909 7.37312 1.807542
v 2.594177 7.977562 4.424452
v -3.756022 3.681774 7.790332
v 0.9690755 5.289503 8.540987
v 4.662374 -5.96374 2.752365
v 5.917908 -1.594082 1.996469
v 4.317586 -2.620087 1.538453
v 1.078206 -6.915755 2.209198
v -0.8833618 -4.194291 1.337158
v 0.9690755 5.289503 8.540987
v 4.060079 3.604279 8.180333
v 2.000244 0.264381 11.77452
v -0.1944173 0.3070882 14.2786
v -0.9632161 2.093294 13.4357
v 5.917908 -1.594082 1.996469
v 4.662374 -5.96374 2.752365
v 3.446309 -3.118742 6.873678
v 4.951986 2.34594 6.925803
v 6.181071 1.440175 3.165296
v -0.9632161 2.093294 13.4357
v -0.1944173 0.3070882 14.2786
v -0.8653972 -1.535094 13.28633
v -2.266439 -0.6766495 12.69328
v -2.069865 2.096731 13.07762
v -3.10435 0.509227 12.44526
v -2.084147 5.426933 0.6226481
v -2.048909 7.37312 1.807542
v -5.623352 5.437068 1.935023
v -7.535726 -0.8437462 0.8590366
v -7.651611 1.54456 1.722015
v 5.917908 -1.594082 1.996469
v 6.181071 1.440175 3.165296
v 4.578715 5.714952 3.046075
v 4.317586 -2.620087 1.538453
v 3.61554 1.720019 1.206932
v 1.078206 -6.915755 2.209198
v -0.7983398 -7.103117 2.074342
v -0.831604 -4.341083 7.636101
v 4.662374 -5.96374 2.752365
v 3.446309 -3.118742 6.873678
v -3.365438 -2.841549 8.087605
v -4.938232 -5.939739 1.496411
v -6.112264 -3.188947 1.4523
v -7.535726 -0.8437462 0.8590366
v -4.249918 -0.6511243 7.959073
v -7.651611 1.54456 1.722015
v -5.173828 0.980397 7.008562
v -4.249918 -0.6511243 7.959073
v -3.10435 0.509227 12.44526
v -2.266439 -0.6766495 12.69328
v -3.365438 -2.841549 8.087605
v -0.831604 -4.341083 7.636101
v -0.7983398 -7.103117 2.074342
v -4.938232 -5.939739 1.496411
v -3.365438 -2.841549 8.087605
v 3.446309 -3.118742 6.873678
v 2.000244 0.264381 11.77452
v 4.060079 3.604279 8.180333
v 4.951986 2.34594 6.925803
v 2.000244 0.264381 11.77452
v 3.446309 -3.118742 6.873678
v -0.831604 -4.341083 7.636101
v -0.8653972 -1.535094 13.28633
v -0.1944173 0.3070882 14.2786
v -3.10435 0.509227 12.44526
v -4.249918 -0.6511243 7.959073
v -5.173828 0.980397 7.008562
v -2.069865 2.096731 13.07762
v -3.756022 3.681774 7.790332
v 4.578715 5.714952 3.046075
v 6.181071 1.440175 3.165296
v 4.951986 2.34594 6.925803
v 4.060079 3.604279 8.180333
v 0.9690755 5.289503 8.540987
v 2.594177 7.977562 4.424452
v 0.9690755 5.289503 8.540987
v -0.9632161 2.093294 13.4357
v -2.069865 2.096731 13.07762
v -3.756022 3.681774 7.790332
v 0.02040609 1.106506 -4.102249
v 1.964722 0.4776802 -3.912764
v 0.8556111 1.119953 1.60612
v -0.6026204 1.591586 1.464006
v 1.964722 0.4776802 -3.912764
v 1.330933 -1.474051 -3.886261
v 0.3802694 -0.3438311 1.625998
v 0.8556111 1.119953 1.60612
v 1.330933 -1.474051 -3.886261
v -0.6134033 -0.8452536 -4.075775
v -1.077983 0.1277742 1.483855
v 0.3802694 -0.3438311 1.625998
v -0.6134033 -0.8452536 -4.075775
v 0.02040609 1.106506 -4.102249
v -0.6026204 1.591586 1.464006
v -1.077983 0.1277742 1.483855
v 3.383443 0.5356809 -20.71138
v 0.9530436 1.321685 -20.94828
v 0.1608073 -1.117979 -20.91516
v 2.591207 -1.903983 -20.67827
v 0.3802694 -0.3438311 1.625998
v -1.077983 0.1277742 1.483855
v -0.6026204 1.591586 1.464006
v 0.8556111 1.119953 1.60612
v 0.1608073 -1.117979 -20.91516
v 0.9530436 1.321685 -20.94828
v 1.126241 0.9747452 -14.5118
v -0.07208252 -0.9071003 -15.77808
v 0.1772461 0.08046204 -10.56569
v -0.31486 -1.99528 -10.09415
v -0.31486 -1.99528 -10.09415
v 0.1772461 0.08046204 -10.56569
v 0.02040609 1.106506 -4.102249
v -0.6134033 -0.8452536 -4.075775
v 2.591207 -1.903983 -20.67827
v 0.1608073 -1.117979 -20.91516
v -0.07208252 -0.9071003 -15.77808
v 2.108398 -2.257316 -15.83501
v 2.108398 -2.257316 -15.83501
v -0.07208252 -0.9071003 -15.77808
v -0.31486 -1.99528 -10.09415
v 1.810974 -2.44973 -9.876073
v 1.810974 -2.44973 -9.876073
v -0.31486 -1.99528 -10.09415
v -0.6134033 -0.8452536 -4.075775
v 1.330933 -1.474051 -3.886261
v 3.383443 0.5356809 -20.71138
v 2.591207 -1.903983 -20.67827
v 2.108398 -2.257316 -15.83501
v 3.306722 -0.3754855 -14.56872
v 3.306722 -0.3754855 -14.56872
v 2.108398 -2.257316 -15.83501
v 1.810974 -2.44973 -9.876073
v 2.30308 -0.3739878 -10.34761
v 2.30308 -0.3739878 -10.34761
v 1.810974 -2.44973 -9.876073
v 1.330933 -1.474051 -3.886261
v 1.964722 0.4776802 -3.912764
v 0.9530436 1.321685 -20.94828
v 3.383443 0.5356809 -20.71138
v 3.306722 -0.3754855 -14.56872
v 1.126241 0.9747452 -14.5118
v 1.126241 0.9747452 -14.5118
v 3.306722 -0.3754855 -14.56872
v 2.30308 -0.3739878 -10.34761
v 0.1772461 0.08046204 -10.56569
v 0.1772461 0.08046204 -10.56569
v 2.30308 -0.3739878 -10.34761
v 1.964722 0.4776802 -3.912764
v 0.02040609 1.106506 -4.102249

vn -0.09878603 -0.7425488 -0.662467
vn -0.09878603 -0.7425488 -0.662467
vn -0.09878603 -0.7425488 -0.662467
vn -0.09878603 -0.7425488 -0.662467
vn -0.09878603 -0.7425488 -0.662467
vn 0.3074997 -0.2640877 -0.9141672
vn 0.3074997 -0.2640877 -0.9141672
vn 0.3074997 -0.2640877 -0.9141672
vn 0.3074997 -0.2640877 -0.9141672
vn 0.3074997 -0.2640877 -0.9141672
vn 0.3074997 -0.2640877 -0.9141672
vn 0.005617279 -0.8641953 -0.503125
vn 0.005617279 -0.8641953 -0.503125
vn 0.005617279 -0.8641953 -0.503125
vn 0.005617279 -0.8641953 -0.503125
vn 0.005617279 -0.8641953 -0.503125
vn 0.005617279 -0.8641953 -0.503125
vn 0.1390812 -0.78523 -0.6033822
vn 0.1390812 -0.78523 -0.6033822
vn 0.1390812 -0.78523 -0.6033822
vn 0.1390812 -0.78523 -0.6033822
vn 0.1390812 -0.78523 -0.6033822
vn -0.8344778 0.5509056 0.01223364
vn -0.8344778 0.5509056 0.01223364
vn -0.8344778 0.5509056 0.01223364
vn -0.8344778 0.5509056 0.01223364
vn -0.8344778 0.5509056 0.01223364
vn -0.8344778 0.5509056 0.01223364
vn -0.4769254 -0.2337689 0.8472863
vn -0.4769254 -0.2337689 0.8472863
vn -0.4769254 -0.2337689 0.8472863
vn -0.4769254 -0.2337689 0.8472863
vn -0.3719974 0.8731385 -0.3150349
vn -0.3719974 0.8731385 -0.3150349
vn -0.3719974 0.8731385 -0.3150349
vn -0.3719974 0.8731385 -0.3150349
vn -0.3719974 0.8731385 -0.3150349
vn 0.2046883 -0.8624608 -0.4628866
vn 0.2046883 -0.8624608 -0.4628866
vn 0.2046883 -0.8624608 -0.4628866
vn 0.2046883 -0.8624608 -0.4628866
vn 0.2046883 -0.8624608 -0.4628866
vn 0.5467983 0.8346434 0.06619757
vn 0.5467983 0.8346434 0.06619757
vn 0.5467983 0.8346434 0.06619757
vn 0.5467983 0.8346434 0.06619757
vn 0.5467983 0.8346434 0.06619757
vn 0.8988011 0.1160194 0.4227245
vn 0.8988011 0.1160194 0.4227245
vn 0.8988011 0.1160194 0.4227245
vn 0.8988011 0.1160194 0.4227245
vn 0.8988011 0.1160194 0.4227245
vn -0.5035321 0.5678694 0.6511374
vn -0.5035321 0.5678694 0.6511374
vn -0.5035321 0.5678694 0.6511374
vn -0.5035321 0.5678694 0.6511374
vn -0.5035321 0.5678694 0.6511374
vn -0.5035321 0.5678694 0.6511374
vn -0.3490808 -0.4123176 -0.8415086
vn -0.3490808 -0.4123176 -0.8415086
vn -0.3490808 -0.4123176 -0.8415086
vn -0.3490808 -0.4123176 -0.8415086
vn -0.3490808 -0.4123176 -0.8415086
vn 0.5379443 -0.4800877 -0.6929153
vn 0.5379443 -0.4800877 -0.6929153
vn 0.5379443 -0.4800877 -0.6929153
vn 0.5379443 -0.4800877 -0.6929153
vn 0.5379443 -0.4800877 -0.6929153
vn 0.2027608 -0.2049175 0.9575473
vn 0.2027608 -0.2049175 0.9575473
vn 0.2027608 -0.2049175 0.9575473
vn 0.2027608 -0.2049175 0.9575473
vn 0.2027608 -0.2049175 0.9575473
vn -0.8636276 0.05733685 0.5008591
vn -0.8636276 0.05733685 0.5008591
vn -0.8636276 0.05733685 0.5008591
vn -0.8636276 0.05733685 0.5008591
vn -0.8636276 0.05733685 0.5008591
vn -0.8636276 0.05733685 0.5008591
vn -0.8636276 0.05733685 0.5008591
vn -0.8486601 -0.02086914 0.5285267
vn -0.8486601 -0.02086914 0.5285267
vn -0.8486601 -0.02086914 0.5285267
vn -0.8486601 -0.02086914 0.5285267
vn -0.3394609 -0.2606315 0.9037905
vn -0.3394609 -0.2606315 0.9037905
vn -0.3394609 -0.2606315 0.9037905
vn -0.3394609 -0.2606315 0.9037905
vn 0.8724378 0.2112148 0.4407273
vn 0.8724378 0.2112148 0.4407273
vn 0.8724378 0.2112148 0.4407273
vn 0.8724378 0.2112148 0.4407273
vn 0.4904624 -0.1319408 0.8614164
vn 0.4904624 -0.1319408 0.8614164
vn 0.4904624 -0.1319408 0.8614164
vn 0.4904624 -0.1319408 0.8614164
vn 0.4904624 -0.1319408 0.8614164
vn -0.9052669 0.4096555 0.11258
vn -0.9052669 0.4096555 0.11258
vn -0.9052669 0.4096555 0.11258
vn -0.9052669 0.4096555 0.11258
vn -0.9052669 0.4096555 0.11258
vn 0.7741128 0.623123 -0.1116559
vn 0.7741128 0.623123 -0.1116559
vn 0.7741128 0.623123 -0.1116559
vn 0.7741128 0.623123 -0.1116559
vn 0.7741128 0.623123 -0.1116559
vn 0.7741128 0.623123 -0.1116559
vn -0.3128766 0.8862969 -0.3414468
vn -0.3128766 0.8862969 -0.3414468
vn -0.3128766 0.8862969 -0.3414468
vn -0.3128766 0.8862969 -0.3414468
vn 0.3115811 0.6272079 -0.7138118
vn 0.3115811 0.6272079 -0.7138118
vn 0.3115811 0.6272079 -0.7138118
vn 0.3115811 0.6272079 -0.7138118
vn 0.9284024 -0.04936159 0.368283
vn 0.9284024 -0.04936159 0.368283
vn 0.9284024 -0.04936159 0.368283
vn 0.9284024 -0.04936159 0.368283
vn -0.3169123 -0.55533 0.7688791
vn -0.3169123 -0.55533 0.7688791
vn -0.3169123 -0.55533 0.7688791
vn -0.3169123 -0.55533 0.7688791
vn -0.9432967 0.1175311 -0.3104476
vn -0.9432967 0.1175311 -0.3104476
vn -0.9432967 0.1175311 -0.3104476
vn -0.9432967 0.1175311 -0.3104476
vn 0.08386625 -0.7423109 -0.6647863
vn 0.08386625 -0.7423109 -0.6647863
vn 0.08386625 -0.7423109 -0.6647863
vn 0.08386625 -0.7423109 -0.6647863
vn -0.08386613 0.7423108 0.6647864
vn -0.08386613 0.7423108 0.6647864
vn -0.08386613 0.7423108 0.6647864
vn -0.08386613 0.7423108 0.6647864
vn -0.9083024 0.2917489 -0.2997821
vn -0.9083024 0.2917489 -0.2997821
vn -0.9083024 0.2917489 -0.2997821
vn -0.9083024 0.2917489 -0.2997821
vn -0.9168594 0.2547789 -0.3073377
vn -0.9168594 0.2547789 -0.3073377
vn -0.9624957 0.1230596 -0.2417815
vn -0.9624957 0.1230596 -0.2417815
vn -0.9624957 0.1230596 -0.2417815
vn -0.9624957 0.1230596 -0.2417815
vn -0.4186059 -0.6631271 0.620509
vn -0.4186059 -0.6631271 0.620509
vn -0.4186059 -0.6631271 0.620509
vn -0.4186059 -0.6631271 0.620509
vn -0.3800034 -0.7244269 0.5751548
vn -0.3800034 -0.7244269 0.5751548
vn -0.3800034 -0.7244269 0.5751548
vn -0.3800034 -0.7244269 0.5751548
vn -0.2683395 -0.5548848 0.7874622
vn -0.2683395 -0.5548848 0.7874622
vn -0.2683395 -0.5548848 0.7874622
vn -0.2683395 -0.5548848 0.7874622
vn 0.9084743 -0.2926328 0.2983965
vn 0.9084743 -0.2926328 0.2983965
vn 0.9084743 -0.2926328 0.2983965
vn 0.9084743 -0.2926328 0.2983965
vn 0.9061967 -0.2073969 0.3685024
vn 0.9061967 -0.2073969 0.3685024
vn 0.9061967 -0.2073969 0.3685024
vn 0.9061967 -0.2073969 0.3685024
vn 0.961318 -0.1061912 0.2541479
vn 0.961318 -0.1061912 0.2541479
vn 0.961318 -0.1061912 0.2541479
vn 0.961318 -0.1061912 0.2541479
vn 0.41596 0.6935725 -0.5881619
vn 0.41596 0.6935725 -0.5881619
vn 0.41596 0.6935725 -0.5881619
vn 0.41596 0.6935725 -0.5881619
vn 0.3735572 0.7683015 -0.5197766
vn 0.3735572 0.7683015 -0.5197766
vn 0.3735572 0.7683015 -0.5197766
vn 0.3735572 0.7683015 -0.5197766
vn 0.2670754 0.5733581 -0.7745522
vn 0.2670754 0.5733581 -0.7745522
vn 0.2670754 0.5733581 -0.7745522
vn 0.2670754 0.5733581 -0.7745522

vt 0.1817627 0.1031494
vt 0.1245728 0.175293
vt 0.1357422 0.2034912
vt 0.2087402 0.1635742
vt 0.2178955 0.1116943
vt 0.07940674 0.1362305
vt 0.03817749 0.1646729
vt 0.06292725 0.2103271
vt 0.1245728 0.175293
vt 0.1260986 0.2248535
vt 0.1357422 0.2034912
vt 0.1669922 0.04330444
vt 0.1430664 0.03845215
vt 0.1577148 0.08044434
vt 0.2142334 0.0737915
vt 0.1817627 0.1031494
vt 0.2178955 0.1116943
vt 0.1577148 0.08044434
vt 0.08728027 0.0802002
vt 0.07940674 0.1362305
vt 0.1245728 0.175293
vt 0.1817627 0.1031494
vt 0.03375244 0.3972168
vt 0.06567383 0.4287109
vt 0.1175537 0.364502
vt 0.03375244 0.3972168
vt 0.1175537 0.364502
vt 0.09484863 0.3435059
vt 0.3535156 0.6977539
vt 0.3747559 0.6928711
vt 0.3532715 0.6152344
vt 0.3222656 0.6381836
vt 0.06567383 0.4287109
vt 0.1096191 0.4572754
vt 0.1791992 0.4533691
vt 0.1175537 0.364502
vt 0.1791992 0.3867188
vt 0.09448242 0.03588867
vt 0.05883789 0.05465698
vt 0.08728027 0.0802002
vt 0.1430664 0.03845215
vt 0.1577148 0.08044434
vt 0.3911133 0.8657227
vt 0.3662109 0.8500977
vt 0.3449707 0.9277344
vt 0.3706055 0.9619141
vt 0.3911133 0.9448242
vt 0.3000488 0.3469238
vt 0.2924805 0.3684082
vt 0.3449707 0.3955078
vt 0.3723145 0.3549805
vt 0.3540039 0.3171387
vt 0.3662109 0.722168
vt 0.3835449 0.7148438
vt 0.3747559 0.6928711
vt 0.3535156 0.6977539
vt 0.3513184 0.7216797
vt 0.3395996 0.706543
vt 0.1357422 0.2034912
vt 0.1260986 0.2248535
vt 0.1773682 0.2141113
vt 0.2087402 0.1635742
vt 0.2178955 0.1745605
vt 0.05883789 0.05465698
vt 0.03375244 0.1168213
vt 0.03817749 0.1646729
vt 0.08728027 0.0802002
vt 0.07940674 0.1362305
vt 0.416748 0.03588867
vt 0.3942871 0.03845215
vt 0.4157715 0.1151733
vt 0.4592285 0.03833008
vt 0.4592285 0.1045532
vt 0.3847656 0.1381836
vt 0.3400879 0.05319214
vt 0.3198242 0.07678223
vt 0.3051758 0.1135864
vt 0.3649902 0.1676025
vt 0.2924805 0.1195679
vt 0.3522949 0.1668701
vt 0.3024902 0.6674805
vt 0.3395996 0.706543
vt 0.3535156 0.6977539
vt 0.3222656 0.6381836
vt 0.4157715 0.1151733
vt 0.3942871 0.03845215
vt 0.3400879 0.05319214
vt 0.3847656 0.1381836
vt 0.2824707 0.8955078
vt 0.3449707 0.9277344
vt 0.3662109 0.8500977
vt 0.3098145 0.8549805
vt 0.3967285 0.6831055
vt 0.3967285 0.6044922
vt 0.3532715 0.6152344
vt 0.3747559 0.6928711
vt 0.3835449 0.7148438
vt 0.08337402 0.7988281
vt 0.04034424 0.8242188
vt 0.03234863 0.8432617
vt 0.1018677 0.8066406
vt 0.05502319 0.8647461
vt 0.3974609 0.2958984
vt 0.3540039 0.3171387
vt 0.3723145 0.3549805
vt 0.4287109 0.3503418
vt 0.4536133 0.3657227
vt 0.4536133 0.2990723
vt 0.1166382 0.8867188
vt 0.1166382 0.8076172
vt 0.1018677 0.8066406
vt 0.05502319 0.8647461
vt 0.2093506 0.3549805
vt 0.1611328 0.355957
vt 0.1817627 0.4638672
vt 0.2180176 0.4631348
vt 0.3044434 0.3547363
vt 0.2563477 0.3554688
vt 0.2753906 0.4638672
vt 0.3115234 0.4631348
vt 0.338623 0.1375732
vt 0.3867188 0.1384277
vt 0.3955078 0.02986145
vt 0.359375 0.0291748
vt 0.06787109 0.137085
vt 0.1160889 0.1380615
vt 0.1234131 0.02986145
vt 0.08721924 0.0291748
vt 0.4746094 0.07873535
vt 0.4746094 0.0291748
vt 0.4143066 0.0291748
vt 0.4143066 0.07873535
vt 0.4504395 0.09399414
vt 0.4143066 0.09399414
vt 0.4143066 0.1237793
vt 0.4504395 0.1237793
vt 0.06311035 0.4626465
vt 0.1234131 0.4638672
vt 0.1190796 0.3400879
vt 0.06744385 0.3632813
vt 0.09277344 0.2629395
vt 0.04315186 0.2536621
vt 0.04315186 0.2536621
vt 0.09277344 0.2629395
vt 0.1160889 0.1380615
vt 0.06787109 0.137085
vt 0.3354492 0.4628906
vt 0.3955078 0.4638672
vt 0.3937988 0.364502
vt 0.3349609 0.3693848
vt 0.3349609 0.3693848
vt 0.3937988 0.364502
vt 0.3808594 0.2558594
vt 0.3300781 0.2543945
vt 0.3300781 0.2543945
vt 0.3808594 0.2558594
vt 0.3867188 0.1384277
vt 0.338623 0.1375732
vt 0.3115234 0.0291748
vt 0.2512207 0.03031921
vt 0.2412109 0.1241455
vt 0.2929688 0.1468506
vt 0.2929688 0.1468506
vt 0.2412109 0.1241455
vt 0.2365723 0.2391357
vt 0.2861328 0.2299805
vt 0.2861328 0.2299805
vt 0.2365723 0.2391357
vt 0.2563477 0.3554688
vt 0.3044434 0.3547363
vt 0.2180176 0.0291748
vt 0.1577148 0.0302887
vt 0.1419678 0.1486816
vt 0.2008057 0.1529541
vt 0.2008057 0.1529541
vt 0.1419678 0.1486816
vt 0.1572266 0.2314453
vt 0.2080078 0.2303467
vt 0.2080078 0.2303467
vt 0.1572266 0.2314453
vt 0.1611328 0.355957
vt 0.2093506 0.3549805

g Magic_mushroom2_(1)_559_65
usemtl Magic_mushroom2_(1)_559_65
usemap Magic_mushroom2_(1)_559_65
f 1/1/1 3/3/3 2/2/2
f 3/3/3 1/1/1 4/4/4
f 4/4/4 1/1/1 5/5/5
f 6/6/6 8/8/8 7/7/7
f 8/8/8 6/6/6 9/9/9
f 8/8/8 9/9/9 10/10/10
f 10/10/10 9/9/9 11/11/11
f 12/12/12 14/14/14 13/13/13
f 14/14/14 12/12/12 15/15/15
f 14/14/14 15/15/15 16/16/16
f 16/16/16 15/15/15 17/17/17
f 18/18/18 20/20/20 19/19/19
f 20/20/20 18/18/18 21/21/21
f 21/21/21 18/18/18 22/22/22
f 23/23/23 25/25/25 24/24/24
f 26/26/26 28/28/28 27/27/27
f 29/29/29 31/31/31 30/30/30
f 29/29/29 32/32/32 31/31/31
f 33/33/33 35/35/35 34/34/34
f 35/35/35 33/33/33 36/36/36
f 35/35/35 36/36/36 37/37/37
f 38/38/38 40/40/40 39/39/39
f 40/40/40 38/38/38 41/41/41
f 40/40/40 41/41/41 42/42/42
f 43/43/43 45/45/45 44/44/44
f 45/45/45 43/43/43 46/46/46
f 46/46/46 43/43/43 47/47/47
f 48/48/48 50/50/50 49/49/49
f 50/50/50 48/48/48 51/51/51
f 51/51/51 48/48/48 52/52/52
f 53/53/53 55/55/55 54/54/54
f 55/55/55 53/53/53 56/56/56
f 56/56/56 53/53/53 57/57/57
f 56/56/56 57/57/57 58/58/58
f 59/59/59 61/61/61 60/60/60
f 61/61/61 59/59/59 62/62/62
f 61/61/61 62/62/62 63/63/63
f 64/64/64 66/66/66 65/65/65
f 66/66/66 64/64/64 67/67/67
f 66/66/66 67/67/67 68/68/68
f 69/69/69 71/71/71 70/70/70
f 71/71/71 69/69/69 72/72/72
f 71/71/71 72/72/72 73/73/73
f 74/74/74 76/76/76 75/75/75
f 76/76/76 74/74/74 77/77/77
f 77/77/77 74/74/74 78/78/78
f 77/77/77 78/78/78 79/79/79
f 79/79/79 78/78/78 80/80/80
f 81/81/81 83/83/83 82/82/82
f 81/81/81 84/84/84 83/83/83
f 85/85/85 87/87/87 86/86/86
f 85/85/85 88/88/88 87/87/87
f 89/89/89 91/91/91 90/90/90
f 89/89/89 92/92/92 91/91/91
f 93/93/93 95/95/95 94/94/94
f 95/95/95 93/93/93 96/96/96
f 96/96/96 93/93/93 97/97/97
f 98/98/98 100/100/100 99/99/99
f 100/100/100 98/98/98 101/101/101
f 100/100/100 101/101/101 102/102/102
f 103/103/103 105/105/105 104/104/104
f 105/105/105 103/103/103 106/106/106
f 106/106/106 103/103/103 107/107/107
f 107/107/107 103/103/103 108/108/108
f 109/109/109 111/111/111 110/110/110
f 109/109/109 112/112/112 111/111/111
f 113/113/113 115/115/115 114/114/114
f 113/113/113 116/116/116 115/115/115
f 117/117/117 119/119/119 118/118/118
f 117/117/117 120/120/120 119/119/119
f 121/121/121 123/123/123 122/122/122
f 121/121/121 124/124/124 123/123/123
f 125/125/125 127/127/127 126/126/126
f 125/125/125 128/128/128 127/127/127
f 129/129/129 131/131/131 130/130/130
f 129/129/129 132/132/132 131/131/131
f 133/133/133 135/135/135 134/134/134
f 133/133/133 136/136/136 135/135/135
f 137/137/137 139/139/139 138/138/138
f 137/137/137 140/140/140 139/139/139
f 140/140/140 141/141/141 139/139/139
f 140/140/140 142/142/142 141/141/141
f 143/143/143 145/145/145 144/144/144
f 143/143/143 146/146/146 145/145/145
f 147/147/147 149/149/149 148/148/148
f 147/147/147 150/150/150 149/149/149
f 151/151/151 153/153/153 152/152/152
f 151/151/151 154/154/154 153/153/153
f 155/155/155 157/157/157 156/156/156
f 155/155/155 158/158/158 157/157/157
f 159/159/159 161/161/161 160/160/160
f 159/159/159 162/162/162 161/161/161
f 163/163/163 165/165/165 164/164/164
f 163/163/163 166/166/166 165/165/165
f 167/167/167 169/169/169 168/168/168
f 167/167/167 170/170/170 169/169/169
f 171/171/171 173/173/173 172/172/172
f 171/171/171 174/174/174 173/173/173
f 175/175/175 177/177/177 176/176/176
f 175/175/175 178/178/178 177/177/177
f 179/179/179 181/181/181 180/180/180
f 179/179/179 182/182/182 181/181/181
