#Magic_mushroom7_516_44.obj

v -0.6928711 0.7208328 5.55072
v 1.25145 0.09201813 5.740234
v 0.142334 0.7342987 11.25912
v -1.315903 1.205902 11.11697
v 1.25145 0.09201813 5.740234
v 0.6176605 -1.859726 5.766724
v -0.3330078 -0.7295151 11.27899
v 0.142334 0.7342987 11.25912
v 0.6176605 -1.859726 5.766724
v -1.32666 -1.230911 5.577209
v -1.791245 -0.2579041 11.13684
v -0.3330078 -0.7295151 11.27899
v -1.32666 -1.230911 5.577209
v -0.6928711 0.7208328 5.55072
v -1.315903 1.205902 11.11697
v -1.791245 -0.2579041 11.13684
v 2.670181 0.1500092 -11.05841
v 0.2397766 0.9360199 -11.29529
v -0.5524597 -1.503662 -11.26218
v 1.877945 -2.289673 -11.0253
v -0.3330078 -0.7295151 11.27899
v -1.791245 -0.2579041 11.13684
v -1.315903 1.205902 11.11697
v 0.142334 0.7342987 11.25912
v -0.5524597 -1.503662 -11.26218
v 0.2397766 0.9360199 -11.29529
v 0.4129791 0.5890656 -4.858826
v -0.7853546 -1.29277 -6.125092
v -0.536026 -0.3051987 -0.9126892
v -1.028137 -2.380951 -0.4411621
v -1.028137 -2.380951 -0.4411621
v -0.536026 -0.3051987 -0.9126892
v -0.6928711 0.7208328 5.55072
v -1.32666 -1.230911 5.577209
v 1.877945 -2.289673 -11.0253
v -0.5524597 -1.503662 -11.26218
v -0.7853546 -1.29277 -6.125092
v 1.395126 -2.64299 -6.182007
v 1.395126 -2.64299 -6.182007
v -0.7853546 -1.29277 -6.125092
v -1.028137 -2.380951 -0.4411621
v 1.097702 -2.835403 -0.2230835
v 1.097702 -2.835403 -0.2230835
v -1.028137 -2.380951 -0.4411621
v -1.32666 -1.230911 5.577209
v 0.6176605 -1.859726 5.766724
v 2.670181 0.1500092 -11.05841
v 1.877945 -2.289673 -11.0253
v 1.395126 -2.64299 -6.182007
v 2.59346 -0.7611389 -4.91571
v 2.59346 -0.7611389 -4.91571
v 1.395126 -2.64299 -6.182007
v 1.097702 -2.835403 -0.2230835
v 1.589813 -0.7596512 -0.6946106
v 1.589813 -0.7596512 -0.6946106
v 1.097702 -2.835403 -0.2230835
v 0.6176605 -1.859726 5.766724
v 1.25145 0.09201813 5.740234
v 0.2397766 0.9360199 -11.29529
v 2.670181 0.1500092 -11.05841
v 2.59346 -0.7611389 -4.91571
v 0.4129791 0.5890656 -4.858826
v 0.4129791 0.5890656 -4.858826
v 2.59346 -0.7611389 -4.91571
v 1.589813 -0.7596512 -0.6946106
v -0.536026 -0.3051987 -0.9126892
v -0.536026 -0.3051987 -0.9126892
v 1.589813 -0.7596512 -0.6946106
v 1.25145 0.09201813 5.740234
v -0.6928711 0.7208328 5.55072
v -5.903107 -6.034866 8.849182
v -1.269241 5.920387 8.394806
v -4.053513 9.325447 8.787628
v -12.41264 1.256104 10.35309
v -11.30415 -6.183167 9.855103
v 6.205902 2.652962 9.539398
v 9.897095 8.56102 12.38763
v 4.367447 13.91656 13.67917
v -1.269241 5.920387 8.394806
v -3.990097 12.82857 10.31216
v -4.053513 9.325447 8.787628
v -1.739075 -13.22864 10.65546
v 1.638718 -12.89142 10.82895
v -1.892105 -7.992783 9.70697
v -9.190872 -11.13457 9.911865
v -5.903107 -6.034866 8.849182
v -11.30415 -6.183167 9.855103
v -1.892105 -7.992783 9.70697
v 7.469589 -5.15918 9.965973
v 6.205902 2.652962 9.539398
v -1.269241 5.920387 8.394806
v -5.903107 -6.034866 8.849182
v -14.07498 2.337151 10.20212
v -10.42409 9.343689 10.4762
v -7.062912 6.184113 18.00983
v -9.614944 1.321686 17.72
v -4.381638 -1.661026 24.31812
v -1.859787 -3.206238 25.08115
v -1.79895 -8.257004 17.81137
v -6.359848 -5.557846 18.3923
v -10.42409 9.343689 10.4762
v -3.990097 12.82857 10.31216
v 4.367447 13.91656 13.67917
v -7.062912 6.184113 18.00983
v 1.442291 9.078041 18.97565
v 8.09021 -11.17778 11.5278
v 11.95804 -7.157547 11.91479
v 7.469589 -5.15918 9.965973
v 1.638718 -12.89142 10.82895
v -1.892105 -7.992783 9.70697
v 1.442291 9.078041 18.97565
v 4.560776 2.852257 20.55109
v 3.29837 0.03285217 23.13602
v -0.6520081 0.1097107 26.35782
v -2.035843 3.324867 25.27332
v 11.95804 -7.157547 11.91479
v 8.09021 -11.17778 11.5278
v 5.901306 -6.056793 16.83041
v 12.43788 2.371307 12.88693
v 9.308441 1.570602 16.39627
v -2.035843 3.324867 25.27332
v -0.6520081 0.1097107 26.35782
v -1.859787 -3.206238 25.08115
v -4.381638 -1.661026 24.31812
v -4.027817 3.331039 24.81259
v -5.889877 0.4735641 23.99899
v -4.053513 9.325447 8.787628
v -3.990097 12.82857 10.31216
v -10.42409 9.343689 10.4762
v -12.41264 1.256104 10.35309
v -14.07498 2.337151 10.20212
v 11.95804 -7.157547 11.91479
v 12.43788 2.371307 12.88693
v 9.897095 8.56102 12.38763
v 7.469589 -5.15918 9.965973
v 6.205902 2.652962 9.539398
v 1.638718 -12.89142 10.82895
v -1.739075 -13.22864 10.65546
v -1.79895 -8.257004 17.81137
v 8.09021 -11.17778 11.5278
v 5.901306 -6.056793 16.83041
v -6.359848 -5.557846 18.3923
v -9.190872 -11.13457 9.911865
v -11.30415 -6.183167 9.855103
v -12.41264 1.256104 10.35309
v -9.01532 -1.068741 19.21164
v -9.614944 1.321686 17.72
v -14.07498 2.337151 10.20212
v -9.01532 -1.068741 19.21164
v -5.889877 0.4735641 23.99899
v -4.381638 -1.661026 24.31812
v -6.359848 -5.557846 18.3923
v -1.79895 -8.257004 17.81137
v -1.739075 -13.22864 10.65546
v -9.190872 -11.13457 9.911865
v -6.359848 -5.557846 18.3923
v 5.901306 -6.056793 16.83041
v 3.29837 0.03285217 23.13602
v 4.560776 2.852257 20.55109
v 9.308441 1.570602 16.39627
v 3.29837 0.03285217 23.13602
v 5.901306 -6.056793 16.83041
v -1.79895 -8.257004 17.81137
v -1.859787 -3.206238 25.08115
v -0.6520081 0.1097107 26.35782
v -5.889877 0.4735641 23.99899
v -9.01532 -1.068741 19.21164
v -9.614944 1.321686 17.72
v -9.614944 1.321686 17.72
v -4.027817 3.331039 24.81259
v -5.889877 0.4735641 23.99899
v -7.062912 6.184113 18.00983
v 9.897095 8.56102 12.38763
v 12.43788 2.371307 12.88693
v 9.308441 1.570602 16.39627
v 4.367447 13.91656 13.67917
v 4.560776 2.852257 20.55109
v 1.442291 9.078041 18.97565
v 1.442291 9.078041 18.97565
v -2.035843 3.324867 25.27332
v -4.027817 3.331039 24.81259
v -7.062912 6.184113 18.00983

vn 0.3115813 -0.04782697 -0.9490153
vn 0.3115813 -0.04782697 -0.9490153
vn 0.3115813 -0.04782697 -0.9490153
vn 0.3115813 -0.04782697 -0.9490153
vn 0.9284024 0.2213142 0.2984778
vn 0.9284024 0.2213142 0.2984778
vn 0.9284024 0.2213142 0.2984778
vn 0.9284024 0.2213142 0.2984778
vn -0.3169124 0.1377499 0.9383985
vn -0.3169124 0.1377499 0.9383985
vn -0.3169124 0.1377499 0.9383985
vn -0.3169124 0.1377499 0.9383985
vn -0.9432967 -0.1321209 -0.304525
vn -0.9432967 -0.1321209 -0.304525
vn -0.9432967 -0.1321209 -0.304525
vn -0.9432967 -0.1321209 -0.304525
vn 0.08386568 -0.9956437 0.04074726
vn 0.08386568 -0.9956437 0.04074726
vn 0.08386568 -0.9956437 0.04074726
vn 0.08386568 -0.9956437 0.04074726
vn -0.08386555 0.9956437 -0.04074704
vn -0.08386555 0.9956437 -0.04074704
vn -0.08386555 0.9956437 -0.04074704
vn -0.08386555 0.9956437 -0.04074704
vn -0.9083025 0.0002332221 -0.4183141
vn -0.9083025 0.0002332221 -0.4183141
vn -0.9083025 0.0002332221 -0.4183141
vn -0.9083025 0.0002332221 -0.4183141
vn -0.9168595 -0.03154218 -0.3979621
vn -0.9168595 -0.03154218 -0.3979621
vn -0.9624957 -0.08029368 -0.2591427
vn -0.9624957 -0.08029368 -0.2591427
vn -0.9624957 -0.08029368 -0.2591427
vn -0.9624957 -0.08029368 -0.2591427
vn -0.4186059 -0.04296401 0.9071513
vn -0.4186059 -0.04296401 0.9071513
vn -0.4186059 -0.04296401 0.9071513
vn -0.4186059 -0.04296401 0.9071513
vn -0.3800037 -0.1185316 0.9173591
vn -0.3800037 -0.1185316 0.9173591
vn -0.3800037 -0.1185316 0.9173591
vn -0.3800037 -0.1185316 0.9173591
vn -0.2683397 0.1510224 0.9514129
vn -0.2683397 0.1510224 0.9514129
vn -0.2683397 0.1510224 0.9514129
vn -0.2683397 0.1510224 0.9514129
vn 0.9084743 -0.001832815 0.4179367
vn 0.9084743 -0.001832815 0.4179367
vn 0.9084743 -0.001832815 0.4179367
vn 0.9084743 -0.001832815 0.4179367
vn 0.9061968 0.1081507 0.408792
vn 0.9061968 0.1081507 0.408792
vn 0.9061968 0.1081507 0.408792
vn 0.9061968 0.1081507 0.408792
vn 0.961318 0.1010088 0.2562519
vn 0.961318 0.1010088 0.2562519
vn 0.961318 0.1010088 0.2562519
vn 0.961318 0.1010088 0.2562519
vn 0.41596 0.08734149 -0.905179
vn 0.41596 0.08734149 -0.905179
vn 0.41596 0.08734149 -0.905179
vn 0.41596 0.08734149 -0.905179
vn 0.3735572 0.1885919 -0.9082336
vn 0.3735572 0.1885919 -0.9082336
vn 0.3735572 0.1885919 -0.9082336
vn 0.3735572 0.1885919 -0.9082336
vn 0.2670754 -0.1287777 -0.9550326
vn 0.2670754 -0.1287777 -0.9550326
vn 0.2670754 -0.1287777 -0.9550326
vn 0.2670754 -0.1287777 -0.9550326
vn -0.1810082 -0.9832388 -0.0218599
vn -0.1810082 -0.9832388 -0.0218599
vn -0.1810082 -0.9832388 -0.0218599
vn -0.1810082 -0.9832388 -0.0218599
vn -0.1810082 -0.9832388 -0.0218599
vn 0.2616591 -0.8922493 -0.3680027
vn 0.2616591 -0.8922493 -0.3680027
vn 0.2616591 -0.8922493 -0.3680027
vn 0.2616591 -0.8922493 -0.3680027
vn 0.2616591 -0.8922493 -0.3680027
vn 0.2616591 -0.8922493 -0.3680027
vn 0.004073653 -0.9845189 0.1752315
vn 0.004073653 -0.9845189 0.1752315
vn 0.004073653 -0.9845189 0.1752315
vn 0.004073653 -0.9845189 0.1752315
vn 0.004073653 -0.9845189 0.1752315
vn 0.004073653 -0.9845189 0.1752315
vn 0.1002142 -0.991528 0.08264098
vn 0.1002142 -0.991528 0.08264098
vn 0.1002142 -0.991528 0.08264098
vn 0.1002142 -0.991528 0.08264098
vn 0.1002142 -0.991528 0.08264098
vn -0.7734075 0.5073167 -0.3800931
vn -0.7734075 0.5073167 -0.3800931
vn -0.7734075 0.5073167 -0.3800931
vn -0.7734075 0.5073167 -0.3800931
vn -0.4406828 0.5467713 0.711927
vn -0.4406828 0.5467713 0.711927
vn -0.4406828 0.5467713 0.711927
vn -0.4406828 0.5467713 0.711927
vn -0.3456663 0.5284097 -0.7754343
vn -0.3456663 0.5284097 -0.7754343
vn -0.3456663 0.5284097 -0.7754343
vn -0.3456663 0.5284097 -0.7754343
vn -0.3456663 0.5284097 -0.7754343
vn 0.1586529 -0.9670342 0.1991843
vn 0.1586529 -0.9670342 0.1991843
vn 0.1586529 -0.9670342 0.1991843
vn 0.1586529 -0.9670342 0.1991843
vn 0.1586529 -0.9670342 0.1991843
vn 0.5469963 0.7083853 -0.4460779
vn 0.5469963 0.7083853 -0.4460779
vn 0.5469963 0.7083853 -0.4460779
vn 0.5469963 0.7083853 -0.4460779
vn 0.5469963 0.7083853 -0.4460779
vn 0.6219618 0.7338465 0.2731899
vn 0.6219618 0.7338465 0.2731899
vn 0.6219618 0.7338465 0.2731899
vn 0.6219618 0.7338465 0.2731899
vn 0.6219618 0.7338465 0.2731899
vn -0.3850974 0.9212746 0.05434485
vn -0.3850974 0.9212746 0.05434485
vn -0.3850974 0.9212746 0.05434485
vn -0.3850974 0.9212746 0.05434485
vn -0.3850974 0.9212746 0.05434485
vn -0.3850974 0.9212746 0.05434485
vn -0.1969446 -0.9688493 -0.1501469
vn -0.1969446 -0.9688493 -0.1501469
vn -0.1969446 -0.9688493 -0.1501469
vn -0.1969446 -0.9688493 -0.1501469
vn -0.1969446 -0.9688493 -0.1501469
vn 0.4578662 -0.8861896 -0.07089984
vn 0.4578662 -0.8861896 -0.07089984
vn 0.4578662 -0.8861896 -0.07089984
vn 0.4578662 -0.8861896 -0.07089984
vn 0.4578662 -0.8861896 -0.07089984
vn 0.180681 0.6489041 0.7391061
vn 0.180681 0.6489041 0.7391061
vn 0.180681 0.6489041 0.7391061
vn 0.180681 0.6489041 0.7391061
vn 0.180681 0.6489041 0.7391061
vn -0.850872 0.4046935 0.3350225
vn -0.850872 0.4046935 0.3350225
vn -0.850872 0.4046935 0.3350225
vn -0.850872 0.4046935 0.3350225
vn -0.850872 0.4046935 0.3350225
vn -0.850872 0.4046935 0.3350225
vn -0.850872 0.4046935 0.3350225
vn -0.680107 0.5626227 0.4700108
vn -0.680107 0.5626227 0.4700108
vn -0.680107 0.5626227 0.4700108
vn -0.680107 0.5626227 0.4700108
vn -0.311454 0.5687494 0.7612627
vn -0.311454 0.5687494 0.7612627
vn -0.311454 0.5687494 0.7612627
vn -0.311454 0.5687494 0.7612627
vn 0.7546499 0.6380587 0.1529205
vn 0.7546499 0.6380587 0.1529205
vn 0.7546499 0.6380587 0.1529205
vn 0.7546499 0.6380587 0.1529205
vn 0.4395773 0.6342449 0.6360074
vn 0.4395773 0.6342449 0.6360074
vn 0.4395773 0.6342449 0.6360074
vn 0.4395773 0.6342449 0.6360074
vn 0.4395773 0.6342449 0.6360074
vn -0.7957224 0.5121248 -0.3233485
vn -0.7957224 0.5121248 -0.3233485
vn -0.7957224 0.5121248 -0.3233485
vn -0.7957224 0.5121248 -0.3233485
vn -0.7957224 0.5121248 -0.3233485
vn -0.7957224 0.5121248 -0.3233485
vn -0.7957224 0.5121248 -0.3233485
vn 0.6084908 0.6861772 -0.3986224
vn 0.6084908 0.6861772 -0.3986224
vn 0.6084908 0.6861772 -0.3986224
vn 0.6084908 0.6861772 -0.3986224
vn 0.6084908 0.6861772 -0.3986224
vn 0.6084908 0.6861772 -0.3986224
vn -0.2916011 0.5182901 -0.8039555
vn -0.2916011 0.5182901 -0.8039555
vn -0.2916011 0.5182901 -0.8039555
vn -0.2916011 0.5182901 -0.8039555

vt 0.2116699 0.3474121
vt 0.166626 0.3481445
vt 0.1859131 0.4489746
vt 0.2196045 0.4482422
vt 0.300293 0.3469238
vt 0.2553711 0.3479004
vt 0.2731934 0.4489746
vt 0.3068848 0.4482422
vt 0.3322754 0.1444092
vt 0.3771973 0.1452637
vt 0.385498 0.04385376
vt 0.3518066 0.04321289
vt 0.07958984 0.1439209
vt 0.1245728 0.1447754
vt 0.1313477 0.04385376
vt 0.09765625 0.04321289
vt 0.4592285 0.08947754
vt 0.4592285 0.04321289
vt 0.402832 0.04321289
vt 0.402832 0.08947754
vt 0.4365234 0.1037598
vt 0.402832 0.1037598
vt 0.402832 0.1314697
vt 0.4365234 0.1314697
vt 0.07513428 0.447998
vt 0.1313477 0.4489746
vt 0.1273193 0.3334961
vt 0.0791626 0.3552246
vt 0.1028442 0.2614746
vt 0.05648804 0.2526855
vt 0.05648804 0.2526855
vt 0.1028442 0.2614746
vt 0.1245728 0.1447754
vt 0.07958984 0.1439209
vt 0.3293457 0.447998
vt 0.385498 0.4489746
vt 0.3837891 0.3562012
vt 0.3288574 0.3605957
vt 0.3288574 0.3605957
vt 0.3837891 0.3562012
vt 0.3718262 0.2548828
vt 0.3242188 0.253418
vt 0.3242188 0.253418
vt 0.3718262 0.2548828
vt 0.3771973 0.1452637
vt 0.3322754 0.1444092
vt 0.3068848 0.04321289
vt 0.2507324 0.04428101
vt 0.241333 0.1318359
vt 0.2895508 0.1530762
vt 0.2895508 0.1530762
vt 0.241333 0.1318359
vt 0.2370605 0.2391357
vt 0.2834473 0.2307129
vt 0.2834473 0.2307129
vt 0.2370605 0.2391357
vt 0.2553711 0.3479004
vt 0.300293 0.3469238
vt 0.2196045 0.04321289
vt 0.1634521 0.04425049
vt 0.1488037 0.1547852
vt 0.2037354 0.1586914
vt 0.2037354 0.1586914
vt 0.1488037 0.1547852
vt 0.1629639 0.2320557
vt 0.2104492 0.230957
vt 0.2104492 0.230957
vt 0.1629639 0.2320557
vt 0.166626 0.3481445
vt 0.2116699 0.3474121
vt 0.2236328 0.6386719
vt 0.1706543 0.6982422
vt 0.1810303 0.7231445
vt 0.2489014 0.6918945
vt 0.2573242 0.6474609
vt 0.1296387 0.6660156
vt 0.09277344 0.6928711
vt 0.1159058 0.7333984
vt 0.1706543 0.6982422
vt 0.1727295 0.7426758
vt 0.1810303 0.7231445
vt 0.2109375 0.5898438
vt 0.1888428 0.5854492
vt 0.2019043 0.6201172
vt 0.2539063 0.6152344
vt 0.2236328 0.6386719
vt 0.2573242 0.6474609
vt 0.2019043 0.6201172
vt 0.137207 0.6191406
vt 0.1296387 0.6660156
vt 0.1706543 0.6982422
vt 0.2236328 0.6386719
vt 0.4108887 0.6938477
vt 0.4108887 0.6469727
vt 0.3669434 0.6459961
vt 0.3671875 0.6787109
vt 0.8662109 0.6894531
vt 0.8461914 0.6904297
vt 0.8461914 0.7270508
vt 0.878418 0.7226563
vt 0.4108887 0.6469727
vt 0.3862305 0.6132813
vt 0.3359375 0.5834961
vt 0.3669434 0.6459961
vt 0.326416 0.609375
vt 0.1445313 0.5834961
vt 0.1118164 0.5991211
vt 0.137207 0.6191406
vt 0.1888428 0.5854492
vt 0.2019043 0.6201172
vt 0.7211914 0.9243164
vt 0.7055664 0.8950195
vt 0.6806641 0.8925781
vt 0.6538086 0.9106445
vt 0.6635742 0.9243164
vt 0.1751709 0.7905273
vt 0.1439209 0.7773438
vt 0.1375732 0.8227539
vt 0.2111816 0.8374023
vt 0.1834717 0.8510742
vt 0.8657227 0.6557617
vt 0.8466797 0.668457
vt 0.8461914 0.6904297
vt 0.8662109 0.6894531
vt 0.8779297 0.6611328
vt 0.8813477 0.6816406
vt 0.1810303 0.7231445
vt 0.1727295 0.7426758
vt 0.2199707 0.7348633
vt 0.2489014 0.6918945
vt 0.2573242 0.7011719
vt 0.1118164 0.5991211
vt 0.08898926 0.652832
vt 0.09277344 0.6928711
vt 0.137207 0.6191406
vt 0.1296387 0.6660156
vt 0.1114502 0.7788086
vt 0.0960083 0.7827148
vt 0.0925293 0.8295898
vt 0.1439209 0.7773438
vt 0.1375732 0.8227539
vt 0.3273926 0.7070313
vt 0.3447266 0.7548828
vt 0.3710938 0.7333984
vt 0.3981934 0.6953125
vt 0.3537598 0.6879883
vt 0.3671875 0.6787109
vt 0.4108887 0.6938477
vt 0.9042969 0.7036133
vt 0.8813477 0.6816406
vt 0.8662109 0.6894531
vt 0.878418 0.7226563
vt 0.2954102 0.7114258
vt 0.2956543 0.7475586
vt 0.3447266 0.7548828
vt 0.3273926 0.7070313
vt 0.6884766 0.8383789
vt 0.6806641 0.8925781
vt 0.7055664 0.8950195
vt 0.734375 0.8666992
vt 0.6806641 0.8925781
vt 0.6884766 0.8383789
vt 0.6435547 0.8452148
vt 0.6396484 0.8930664
vt 0.6538086 0.9106445
vt 0.8813477 0.6816406
vt 0.9042969 0.7036133
vt 0.9179688 0.6943359
vt 0.9179688 0.6943359
vt 0.8779297 0.6611328
vt 0.8813477 0.6816406
vt 0.9179688 0.6616211
vt 0.2258301 0.8696289
vt 0.2111816 0.8374023
vt 0.1834717 0.8510742
vt 0.2185059 0.9086914
vt 0.1546631 0.8793945
vt 0.1702881 0.9086914
vt 0.8774414 0.625
vt 0.8657227 0.6557617
vt 0.8779297 0.6611328
vt 0.9179688 0.6616211

g Magic_mushroom7_516_44
usemtl Magic_mushroom7_516_44
usemap Magic_mushroom7_516_44
f 1/1/1 3/3/3 2/2/2
f 1/1/1 4/4/4 3/3/3
f 5/5/5 7/7/7 6/6/6
f 5/5/5 8/8/8 7/7/7
f 9/9/9 11/11/11 10/10/10
f 9/9/9 12/12/12 11/11/11
f 13/13/13 15/15/15 14/14/14
f 13/13/13 16/16/16 15/15/15
f 17/17/17 19/19/19 18/18/18
f 17/17/17 20/20/20 19/19/19
f 21/21/21 23/23/23 22/22/22
f 21/21/21 24/24/24 23/23/23
f 25/25/25 27/27/27 26/26/26
f 25/25/25 28/28/28 27/27/27
f 28/28/28 29/29/29 27/27/27
f 28/28/28 30/30/30 29/29/29
f 31/31/31 33/33/33 32/32/32
f 31/31/31 34/34/34 33/33/33
f 35/35/35 37/37/37 36/36/36
f 35/35/35 38/38/38 37/37/37
f 39/39/39 41/41/41 40/40/40
f 39/39/39 42/42/42 41/41/41
f 43/43/43 45/45/45 44/44/44
f 43/43/43 46/46/46 45/45/45
f 47/47/47 49/49/49 48/48/48
f 47/47/47 50/50/50 49/49/49
f 51/51/51 53/53/53 52/52/52
f 51/51/51 54/54/54 53/53/53
f 55/55/55 57/57/57 56/56/56
f 55/55/55 58/58/58 57/57/57
f 59/59/59 61/61/61 60/60/60
f 59/59/59 62/62/62 61/61/61
f 63/63/63 65/65/65 64/64/64
f 63/63/63 66/66/66 65/65/65
f 67/67/67 69/69/69 68/68/68
f 67/67/67 70/70/70 69/69/69
f 71/71/71 73/73/73 72/72/72
f 73/73/73 71/71/71 74/74/74
f 74/74/74 71/71/71 75/75/75
f 76/76/76 78/78/78 77/77/77
f 78/78/78 76/76/76 79/79/79
f 78/78/78 79/79/79 80/80/80
f 80/80/80 79/79/79 81/81/81
f 82/82/82 84/84/84 83/83/83
f 84/84/84 82/82/82 85/85/85
f 84/84/84 85/85/85 86/86/86
f 86/86/86 85/85/85 87/87/87
f 88/88/88 90/90/90 89/89/89
f 90/90/90 88/88/88 91/91/91
f 91/91/91 88/88/88 92/92/92
f 93/93/93 95/95/95 94/94/94
f 93/93/93 96/96/96 95/95/95
f 97/97/97 99/99/99 98/98/98
f 97/97/97 100/100/100 99/99/99
f 101/101/101 103/103/103 102/102/102
f 103/103/103 101/101/101 104/104/104
f 103/103/103 104/104/104 105/105/105
f 106/106/106 108/108/108 107/107/107
f 108/108/108 106/106/106 109/109/109
f 108/108/108 109/109/109 110/110/110
f 111/111/111 113/113/113 112/112/112
f 113/113/113 111/111/111 114/114/114
f 114/114/114 111/111/111 115/115/115
f 116/116/116 118/118/118 117/117/117
f 118/118/118 116/116/116 119/119/119
f 118/118/118 119/119/119 120/120/120
f 121/121/121 123/123/123 122/122/122
f 123/123/123 121/121/121 124/124/124
f 124/124/124 121/121/121 125/125/125
f 124/124/124 125/125/125 126/126/126
f 127/127/127 129/129/129 128/128/128
f 129/129/129 127/127/127 130/130/130
f 129/129/129 130/130/130 131/131/131
f 132/132/132 134/134/134 133/133/133
f 134/134/134 132/132/132 135/135/135
f 134/134/134 135/135/135 136/136/136
f 137/137/137 139/139/139 138/138/138
f 139/139/139 137/137/137 140/140/140
f 139/139/139 140/140/140 141/141/141
f 142/142/142 144/144/144 143/143/143
f 144/144/144 142/142/142 145/145/145
f 145/145/145 142/142/142 146/146/146
f 145/145/145 146/146/146 147/147/147
f 145/145/145 147/147/147 148/148/148
f 149/149/149 151/151/151 150/150/150
f 149/149/149 152/152/152 151/151/151
f 153/153/153 155/155/155 154/154/154
f 153/153/153 156/156/156 155/155/155
f 157/157/157 159/159/159 158/158/158
f 157/157/157 160/160/160 159/159/159
f 161/161/161 163/163/163 162/162/162
f 163/163/163 161/161/161 164/164/164
f 164/164/164 161/161/161 165/165/165
f 166/166/166 168/168/168 167/167/167
f 169/169/169 171/171/171 170/170/170
f 169/169/169 170/170/170 172/172/172
f 173/173/173 175/175/175 174/174/174
f 175/175/175 173/173/173 176/176/176
f 175/175/175 176/176/176 177/177/177
f 177/177/177 176/176/176 178/178/178
f 179/179/179 181/181/181 180/180/180
f 179/179/179 182/182/182 181/181/181
