#Magic_mushroom5_(5)_631_69.obj

v -5.965057 3.259155 3.605713
v -4.524467 3.211853 5.360596
v -4.673752 0.4432983 6.388184
v -6.983055 -0.01837158 3.873291
v -2.33181 -4.929382 5.046875
v -2.025894 -3.646973 6.367188
v 2.803604 -1.406311 7.117676
v 3.772842 -2.578064 5.83667
v -2.025894 -3.646973 6.367188
v -1.635452 -2.010132 8.052246
v -4.524467 3.211853 5.360596
v -5.965057 3.259155 3.605713
v -4.85891 5.873474 3.758057
v -0.8887558 6.979187 3.900391
v 0.8898697 6.801086 4.083984
v -0.8602982 4.811829 5.752441
v -1.322365 3.893066 6.921387
v 3.515419 2.718506 6.923096
v 2.803604 -1.406311 7.117676
v -1.635452 -2.010132 8.052246
v -4.673752 0.4432983 6.388184
v -7.36132 -1.239563 3.099121
v -5.42778 -4.939026 3.234375
v -0.9873581 -1.764343 -2.499756
v -2.059959 -0.2556152 -2.078613
v -1.234772 0.87146 -2.172363
v 0.174408 1.687317 -2.496338
v -0.8887558 6.979187 3.900391
v -4.85891 5.873474 3.758057
v 2.674347 -7.353516 2.260742
v 0.1075058 -1.761108 -2.6521
v -0.9873581 -1.764343 -2.499756
v -5.42778 -4.939026 3.234375
v -2.103287 -6.779053 3.943604
v 3.515419 2.718506 6.923096
v -1.322365 3.893066 6.921387
v -0.8602982 4.811829 5.752441
v 4.389244 3.038696 6.108887
v 0.1075058 -1.761108 -2.6521
v 2.674347 -7.353516 2.260742
v 5.383972 -4.525757 3.707275
v 6.769173 -1.257629 3.576904
v 0.9661865 -0.06347656 -3.314209
v 3.065247 -0.02288818 -1.837402
v 6.394974 3.773621 4.240234
v 4.334152 5.896301 4.166992
v 3.065247 -0.02288818 -1.837402
v 6.394974 3.773621 4.240234
v 3.065247 -0.02288818 -1.837402
v 6.769173 -1.257629 3.576904
v 0.1075058 -1.761108 -2.6521
v 0.9661865 -0.06347656 -3.314209
v 0.174408 1.687317 -2.496338
v -1.234772 0.87146 -2.172363
v -0.9873581 -1.764343 -2.499756
v -2.059959 -0.2556152 -2.078613
v -2.33181 -4.929382 5.046875
v -2.103287 -6.779053 3.943604
v -5.42778 -4.939026 3.234375
v -6.983055 -0.01837158 3.873291
v -7.36132 -1.239563 3.099121
v 4.780571 3.182068 5.744385
v 3.772842 -2.578064 5.83667
v 2.803604 -1.406311 7.117676
v 3.515419 2.718506 6.923096
v 3.515419 2.718506 6.923096
v 4.389244 3.038696 6.108887
v 4.780571 3.182068 5.744385
v 0.174408 1.687317 -2.496338
v 0.9661865 -0.06347656 -3.314209
v 3.065247 -0.02288818 -1.837402
v -0.8887558 6.979187 3.900391
v 4.334152 5.896301 4.166992
v 0.8898697 6.801086 4.083984
v -6.983055 -0.01837158 3.873291
v -7.36132 -1.239563 3.099121
v -2.059959 -0.2556152 -2.078613
v -1.234772 0.87146 -2.172363
v -5.965057 3.259155 3.605713
v -4.85891 5.873474 3.758057
v 3.772842 -2.578064 5.83667
v 5.383972 -4.525757 3.707275
v 2.674347 -7.353516 2.260742
v -2.025894 -3.646973 6.367188
v -2.103287 -6.779053 3.943604
v -2.103287 -6.779053 3.943604
v -2.33181 -4.929382 5.046875
v -2.025894 -3.646973 6.367188
v 6.769173 -1.257629 3.576904
v 5.383972 -4.525757 3.707275
v 3.772842 -2.578064 5.83667
v 4.780571 3.182068 5.744385
v 6.394974 3.773621 4.240234
v -4.673752 0.4432983 6.388184
v -1.635452 -2.010132 8.052246
v -2.025894 -3.646973 6.367188
v -0.8602982 4.811829 5.752441
v -1.322365 3.893066 6.921387
v -4.673752 0.4432983 6.388184
v -0.8602982 4.811829 5.752441
v -4.673752 0.4432983 6.388184
v -4.524467 3.211853 5.360596
v 4.334152 5.896301 4.166992
v 6.394974 3.773621 4.240234
v 4.780571 3.182068 5.744385
v 4.389244 3.038696 6.108887
v -0.8602982 4.811829 5.752441
v 0.8898697 6.801086 4.083984
v 0.1180344 0.6370239 -5.643555
v 2.073471 0.004638672 -5.453125
v 0.9580231 0.6505737 0.09741211
v -0.5085526 1.124878 -0.0456543
v 2.073471 0.004638672 -5.453125
v 1.436058 -1.958252 -5.426514
v 0.4799576 -0.8215942 0.1174316
v 0.9580231 0.6505737 0.09741211
v 1.436058 -1.958252 -5.426514
v -0.5193787 -1.325867 -5.616943
v -0.9866104 -0.34729 -0.02563477
v 0.4799576 -0.8215942 0.1174316
v -0.5193787 -1.325867 -5.616943
v 0.1180344 0.6370239 -5.643555
v -0.5085526 1.124878 -0.0456543
v -0.9866104 -0.34729 -0.02563477
v 3.500305 0.06292725 -22.34766
v 1.056015 0.8534546 -22.58594
v 0.2592468 -1.600159 -22.55249
v 2.703537 -2.390686 -22.31445
v 0.4799576 -0.8215942 0.1174316
v -0.9866104 -0.34729 -0.02563477
v -0.5085526 1.124878 -0.0456543
v 0.9580231 0.6505737 0.09741211
v 0.2592468 -1.600159 -22.55249
v 1.056015 0.8534546 -22.58594
v 1.230202 0.5045166 -16.11255
v 0.02502441 -1.388062 -17.38623
v 0.02502441 -1.388062 -17.38623
v 1.230202 0.5045166 -16.11255
v 0.2757797 -0.3948975 -12.14404
v -0.2191467 -2.482483 -11.66968
v -0.2191467 -2.482483 -11.66968
v 0.2757797 -0.3948975 -12.14404
v 0.1180344 0.6370239 -5.643555
v -0.5193787 -1.325867 -5.616943
v 2.703537 -2.390686 -22.31445
v 0.2592468 -1.600159 -22.55249
v 0.02502441 -1.388062 -17.38623
v 2.217964 -2.746033 -17.44336
v 2.217964 -2.746033 -17.44336
v 0.02502441 -1.388062 -17.38623
v -0.2191467 -2.482483 -11.66968
v 1.918831 -2.939514 -11.45044
v 1.918831 -2.939514 -11.45044
v -0.2191467 -2.482483 -11.66968
v -0.5193787 -1.325867 -5.616943
v 1.436058 -1.958252 -5.426514
v 3.500305 0.06292725 -22.34766
v 2.703537 -2.390686 -22.31445
v 2.217964 -2.746033 -17.44336
v 3.423141 -0.8533936 -16.16992
v 3.423141 -0.8533936 -16.16992
v 2.217964 -2.746033 -17.44336
v 1.918831 -2.939514 -11.45044
v 2.413765 -0.8519287 -11.92456
v 2.413765 -0.8519287 -11.92456
v 1.918831 -2.939514 -11.45044
v 1.436058 -1.958252 -5.426514
v 2.073471 0.004638672 -5.453125
v 1.056015 0.8534546 -22.58594
v 3.500305 0.06292725 -22.34766
v 3.423141 -0.8533936 -16.16992
v 1.230202 0.5045166 -16.11255
v 1.230202 0.5045166 -16.11255
v 3.423141 -0.8533936 -16.16992
v 2.413765 -0.8519287 -11.92456
v 0.2757797 -0.3948975 -12.14404
v 0.2757797 -0.3948975 -12.14404
v 2.413765 -0.8519287 -11.92456
v 2.073471 0.004638672 -5.453125
v 0.1180344 0.6370239 -5.643555

vn -0.721279 0.6705307 0.1736241
vn -0.721279 0.6705307 0.1736241
vn -0.721279 0.6705307 0.1736241
vn -0.721279 0.6705307 0.1736241
vn -0.721279 0.6705307 0.1736241
vn -0.721279 0.6705307 0.1736241
vn 0.2117567 0.6934427 0.6886919
vn 0.2117567 0.6934427 0.6886919
vn 0.2117567 0.6934427 0.6886919
vn 0.2117567 0.6934427 0.6886919
vn -0.3136641 0.7849631 -0.5342734
vn -0.3136641 0.7849631 -0.5342734
vn -0.3136641 0.7849631 -0.5342734
vn -0.3136641 0.7849631 -0.5342734
vn -0.3136641 0.7849631 -0.5342734
vn -0.3136641 0.7849631 -0.5342734
vn -0.03009258 0.9889297 -0.1453023
vn -0.03009258 0.9889297 -0.1453023
vn -0.03009258 0.9889297 -0.1453023
vn -0.03009258 0.9889297 -0.1453023
vn -0.03009258 0.9889297 -0.1453023
vn -0.6381348 -0.6955402 0.3301634
vn -0.6381348 -0.6955402 0.3301634
vn -0.6381348 -0.6955402 0.3301634
vn -0.6381348 -0.6955402 0.3301634
vn -0.2681453 -0.675525 -0.686851
vn -0.2681453 -0.675525 -0.686851
vn -0.2681453 -0.675525 -0.686851
vn -0.2681453 -0.675525 -0.686851
vn -0.2716579 -0.6314076 0.7263104
vn -0.2716579 -0.6314076 0.7263104
vn -0.2716579 -0.6314076 0.7263104
vn -0.2716579 -0.6314076 0.7263104
vn -0.2716579 -0.6314076 0.7263104
vn 0.2014705 0.6129777 -0.7639818
vn 0.2014705 0.6129777 -0.7639818
vn 0.2014705 0.6129777 -0.7639818
vn 0.2014705 0.6129777 -0.7639818
vn 0.6378081 -0.6579514 0.400376
vn 0.6378081 -0.6579514 0.400376
vn 0.6378081 -0.6579514 0.400376
vn 0.6378081 -0.6579514 0.400376
vn 0.6378081 -0.6579514 0.400376
vn 0.6378081 -0.6579514 0.400376
vn 0.7436689 -0.5962926 -0.3023109
vn 0.7436689 -0.5962926 -0.3023109
vn 0.7436689 -0.5962926 -0.3023109
vn 0.7436689 -0.5962926 -0.3023109
vn 0.7436689 -0.5962926 -0.3023109
vn 0.7436689 -0.5962926 -0.3023109
vn -0.3463622 -0.9354059 -0.07105863
vn -0.3463622 -0.9354059 -0.07105863
vn -0.3463622 -0.9354059 -0.07105863
vn -0.3463622 -0.9354059 -0.07105863
vn -0.3463622 -0.9354059 -0.07105863
vn -0.3463622 -0.9354059 -0.07105863
vn -0.4966354 0.8038864 0.3272922
vn -0.4966354 0.8038864 0.3272922
vn -0.4966354 0.8038864 0.3272922
vn -0.4966354 0.8038864 0.3272922
vn -0.4966354 0.8038864 0.3272922
vn 0.7207771 0.6850893 0.1055138
vn 0.7207771 0.6850893 0.1055138
vn 0.7207771 0.6850893 0.1055138
vn 0.7207771 0.6850893 0.1055138
vn 0.7207771 0.6850893 0.1055138
vn 0.7207771 0.6850893 0.1055138
vn 0.7207771 0.6850893 0.1055138
vn 0.3240002 -0.6486665 -0.6886624
vn 0.3240002 -0.6486665 -0.6886624
vn 0.3240002 -0.6486665 -0.6886624
vn 0.3240002 -0.6486665 -0.6886624
vn 0.3240002 -0.6486665 -0.6886624
vn 0.3240002 -0.6486665 -0.6886624
vn -0.693487 -0.6452921 -0.3204278
vn -0.693487 -0.6452921 -0.3204278
vn -0.693487 -0.6452921 -0.3204278
vn -0.693487 -0.6452921 -0.3204278
vn -0.693487 -0.6452921 -0.3204278
vn -0.693487 -0.6452921 -0.3204278
vn 0.1825051 0.7678095 0.6141341
vn 0.1825051 0.7678095 0.6141341
vn 0.1825051 0.7678095 0.6141341
vn 0.1825051 0.7678095 0.6141341
vn 0.1825051 0.7678095 0.6141341
vn 0.1825051 0.7678095 0.6141341
vn 0.1825051 0.7678095 0.6141341
vn 0.1825051 0.7678095 0.6141341
vn 0.6517696 0.7485607 0.1218737
vn 0.6517696 0.7485607 0.1218737
vn 0.6517696 0.7485607 0.1218737
vn 0.6517696 0.7485607 0.1218737
vn 0.6517696 0.7485607 0.1218737
vn -0.6783913 0.586733 0.4421872
vn -0.6783913 0.586733 0.4421872
vn -0.6783913 0.586733 0.4421872
vn -0.4622164 0.7260265 -0.5091578
vn -0.4622164 0.7260265 -0.5091578
vn -0.4622164 0.7260265 -0.5091578
vn -0.4622164 0.7260265 -0.5091578
vn -0.4622164 0.7260265 -0.5091578
vn -0.4622164 0.7260265 -0.5091578
vn 0.2123169 0.8045913 -0.5545762
vn 0.2123169 0.8045913 -0.5545762
vn 0.2123169 0.8045913 -0.5545762
vn 0.2123169 0.8045913 -0.5545762
vn 0.2123169 0.8045913 -0.5545762
vn 0.2123169 0.8045913 -0.5545762
vn 0.3115813 -0.04782699 -0.9490152
vn 0.3115813 -0.04782699 -0.9490152
vn 0.3115813 -0.04782699 -0.9490152
vn 0.3115813 -0.04782699 -0.9490152
vn 0.9284024 0.2213141 0.2984778
vn 0.9284024 0.2213141 0.2984778
vn 0.9284024 0.2213141 0.2984778
vn 0.9284024 0.2213141 0.2984778
vn -0.3169124 0.1377499 0.9383985
vn -0.3169124 0.1377499 0.9383985
vn -0.3169124 0.1377499 0.9383985
vn -0.3169124 0.1377499 0.9383985
vn -0.9432967 -0.1321209 -0.304525
vn -0.9432967 -0.1321209 -0.304525
vn -0.9432967 -0.1321209 -0.304525
vn -0.9432967 -0.1321209 -0.304525
vn 0.08386616 -0.9956437 0.04074683
vn 0.08386616 -0.9956437 0.04074683
vn 0.08386616 -0.9956437 0.04074683
vn 0.08386616 -0.9956437 0.04074683
vn -0.08386623 0.9956437 -0.04074728
vn -0.08386623 0.9956437 -0.04074728
vn -0.08386623 0.9956437 -0.04074728
vn -0.08386623 0.9956437 -0.04074728
vn -0.9083025 0.0002332198 -0.418314
vn -0.9083025 0.0002332198 -0.418314
vn -0.9083025 0.0002332198 -0.418314
vn -0.9083025 0.0002332198 -0.418314
vn -0.9168595 -0.03154215 -0.3979621
vn -0.9168595 -0.03154215 -0.3979621
vn -0.9168595 -0.03154215 -0.3979621
vn -0.9168595 -0.03154215 -0.3979621
vn -0.9624957 -0.08029361 -0.2591427
vn -0.9624957 -0.08029361 -0.2591427
vn -0.9624957 -0.08029361 -0.2591427
vn -0.9624957 -0.08029361 -0.2591427
vn -0.418606 -0.04296399 0.9071512
vn -0.418606 -0.04296399 0.9071512
vn -0.418606 -0.04296399 0.9071512
vn -0.418606 -0.04296399 0.9071512
vn -0.3800036 -0.1185317 0.9173591
vn -0.3800036 -0.1185317 0.9173591
vn -0.3800036 -0.1185317 0.9173591
vn -0.3800036 -0.1185317 0.9173591
vn -0.2683396 0.1510224 0.9514129
vn -0.2683396 0.1510224 0.9514129
vn -0.2683396 0.1510224 0.9514129
vn -0.2683396 0.1510224 0.9514129
vn 0.9084741 -0.001832808 0.417937
vn 0.9084741 -0.001832808 0.417937
vn 0.9084741 -0.001832808 0.417937
vn 0.9084741 -0.001832808 0.417937
vn 0.9061967 0.1081506 0.4087923
vn 0.9061967 0.1081506 0.4087923
vn 0.9061967 0.1081506 0.4087923
vn 0.9061967 0.1081506 0.4087923
vn 0.9613178 0.1010089 0.2562523
vn 0.9613178 0.1010089 0.2562523
vn 0.9613178 0.1010089 0.2562523
vn 0.9613178 0.1010089 0.2562523
vn 0.41596 0.08734149 -0.905179
vn 0.41596 0.08734149 -0.905179
vn 0.41596 0.08734149 -0.905179
vn 0.41596 0.08734149 -0.905179
vn 0.3735569 0.1885919 -0.9082338
vn 0.3735569 0.1885919 -0.9082338
vn 0.3735569 0.1885919 -0.9082338
vn 0.3735569 0.1885919 -0.9082338
vn 0.2670753 -0.1287777 -0.9550326
vn 0.2670753 -0.1287777 -0.9550326
vn 0.2670753 -0.1287777 -0.9550326
vn 0.2670753 -0.1287777 -0.9550326

vt 0.4250488 0.6616211
vt 0.3989258 0.6606445
vt 0.385498 0.6987305
vt 0.4238281 0.7084961
vt 0.3569336 0.7397461
vt 0.3483887 0.7290039
vt 0.8227539 0.3244629
vt 0.8066406 0.3034668
vt 0.7797852 0.3823242
vt 0.8081055 0.3876953
vt 0.3989258 0.6606445
vt 0.4250488 0.6616211
vt 0.4208984 0.6240234
vt 0.3847656 0.5844727
vt 0.3657227 0.5756836
vt 0.3654785 0.6186523
vt 0.796875 0.1105347
vt 0.746582 0.0914917
vt 0.7407227 0.145752
vt 0.7753906 0.1873779
vt 0.8227539 0.1715088
vt 0.1453857 0.659668
vt 0.1450195 0.7084961
vt 0.2280273 0.7304688
vt 0.2235107 0.7060547
vt 0.2385254 0.6967773
vt 0.2587891 0.6943359
vt 0.2541504 0.5805664
vt 0.2073975 0.5805664
vt 0.2600098 0.9023438
vt 0.166626 0.9277344
vt 0.1663818 0.9389648
vt 0.2329102 0.9692383
vt 0.2602539 0.9399414
vt 0.737793 0.2687988
vt 0.7416992 0.197998
vt 0.7270508 0.1986084
vt 0.7270508 0.2783203
vt 0.166626 0.9277344
vt 0.2600098 0.9023438
vt 0.2463379 0.8447266
vt 0.21521 0.8095703
vt 0.1464844 0.9121094
vt 0.1594238 0.8789063
vt 0.1704102 0.7773438
vt 0.1464844 0.7866211
vt 0.1594238 0.8789063
vt 0.1704102 0.7773438
vt 0.1594238 0.8789063
vt 0.21521 0.8095703
vt 0.2399902 0.7358398
vt 0.2602539 0.7241211
vt 0.2587891 0.6943359
vt 0.2385254 0.6967773
vt 0.2280273 0.7304688
vt 0.2235107 0.7060547
vt 0.3198242 0.9052734
vt 0.2956543 0.8945313
vt 0.2954102 0.9379883
vt 0.3395996 0.9692383
vt 0.3215332 0.96875
vt 0.8623047 0.2976074
vt 0.8066406 0.3034668
vt 0.8227539 0.3244629
vt 0.8618164 0.3198242
vt 0.8618164 0.3198242
vt 0.8623047 0.3044434
vt 0.8623047 0.2976074
vt 0.8178711 0.1831055
vt 0.8032227 0.1691895
vt 0.7768555 0.1859131
vt 0.8413086 0.2783203
vt 0.7768555 0.270752
vt 0.8198242 0.2770996
vt 0.1531982 0.640625
vt 0.1453857 0.659668
vt 0.2235107 0.7060547
vt 0.2385254 0.6967773
vt 0.182373 0.6079102
vt 0.2073975 0.5805664
vt 0.3688965 0.8305664
vt 0.3415527 0.7958984
vt 0.2954102 0.8212891
vt 0.342041 0.909668
vt 0.2956543 0.8945313
vt 0.2956543 0.8945313
vt 0.3198242 0.9052734
vt 0.342041 0.909668
vt 0.3754883 0.78125
vt 0.3415527 0.7958984
vt 0.3688965 0.8305664
vt 0.4248047 0.8251953
vt 0.4250488 0.796875
vt 0.8076172 0.4238281
vt 0.8081055 0.3876953
vt 0.7797852 0.3823242
vt 0.8032227 0.09118652
vt 0.796875 0.1105347
vt 0.8227539 0.1715088
vt 0.8032227 0.09118652
vt 0.8227539 0.1715088
vt 0.8364258 0.1330566
vt 0.3293457 0.5629883
vt 0.3029785 0.5742188
vt 0.3066406 0.5991211
vt 0.307373 0.6054688
vt 0.3654785 0.6186523
vt 0.3657227 0.5756836
vt 0.2875977 0.1234131
vt 0.317627 0.1226196
vt 0.3046875 0.02578735
vt 0.2819824 0.02638245
vt 0.1054077 0.2094727
vt 0.1343994 0.201416
vt 0.1251221 0.1461182
vt 0.1033936 0.1520996
vt 0.03022766 0.2067871
vt 0.05389404 0.1916504
vt 0.05023193 0.1124878
vt 0.03250122 0.1238403
vt 0.2229004 0.3405762
vt 0.1939697 0.347168
vt 0.1882324 0.4157715
vt 0.2098389 0.4108887
vt 0.1882324 0.1314697
vt 0.1992188 0.1634521
vt 0.2353516 0.1551514
vt 0.2242432 0.1231689
vt 0.449707 0.0612793
vt 0.4660645 0.06530762
vt 0.4660645 0.04464722
vt 0.449707 0.0406189
vt 0.2353516 0.1551514
vt 0.1992188 0.1634521
vt 0.1960449 0.2254639
vt 0.2299805 0.2126465
vt 0.2299805 0.2126465
vt 0.1960449 0.2254639
vt 0.2110596 0.2709961
vt 0.2398682 0.2663574
vt 0.2398682 0.2663574
vt 0.2110596 0.2709961
vt 0.1939697 0.347168
vt 0.2229004 0.3405762
vt 0.03022766 0.4157715
vt 0.05981445 0.3969727
vt 0.05731201 0.3327637
vt 0.03433228 0.3603516
vt 0.03433228 0.3603516
vt 0.05731201 0.3327637
vt 0.06115723 0.2773438
vt 0.03405762 0.2910156
vt 0.03405762 0.2910156
vt 0.06115723 0.2773438
vt 0.05389404 0.1916504
vt 0.03022766 0.2067871
vt 0.1033936 0.4157715
vt 0.1395264 0.4057617
vt 0.1448975 0.3447266
vt 0.1112671 0.3303223
vt 0.1112671 0.3303223
vt 0.1448975 0.3447266
vt 0.1459961 0.2685547
vt 0.1169434 0.2844238
vt 0.1169434 0.2844238
vt 0.1459961 0.2685547
vt 0.1343994 0.201416
vt 0.1054077 0.2094727
vt 0.2819824 0.4157715
vt 0.3198242 0.4147949
vt 0.3295898 0.3085938
vt 0.2927246 0.3046875
vt 0.2927246 0.3046875
vt 0.3295898 0.3085938
vt 0.3200684 0.2342529
vt 0.2883301 0.2353516
vt 0.2883301 0.2353516
vt 0.3200684 0.2342529
vt 0.317627 0.1226196
vt 0.2875977 0.1234131

g Magic_mushroom5_(5)_631_69
usemtl Magic_mushroom5_(5)_631_69
usemap Magic_mushroom5_(5)_631_69
f 1/1/1 3/3/3 2/2/2
f 4/4/4 3/3/3 1/1/1
f 5/5/5 3/3/3 4/4/4
f 3/3/3 5/5/5 6/6/6
f 7/7/7 9/9/9 8/8/8
f 7/7/7 10/10/10 9/9/9
f 11/11/11 13/13/13 12/12/12
f 13/13/13 11/11/11 14/14/14
f 14/14/14 11/11/11 15/15/15
f 15/15/15 11/11/11 16/16/16
f 17/17/17 19/19/19 18/18/18
f 19/19/19 17/17/17 20/20/20
f 20/20/20 17/17/17 21/21/21
f 22/22/22 24/24/24 23/23/23
f 22/22/22 25/25/25 24/24/24
f 26/26/26 28/28/28 27/27/27
f 26/26/26 29/29/29 28/28/28
f 30/30/30 32/32/32 31/31/31
f 32/32/32 30/30/30 33/33/33
f 33/33/33 30/30/30 34/34/34
f 35/35/35 37/37/37 36/36/36
f 35/35/35 38/38/38 37/37/37
f 39/39/39 41/41/41 40/40/40
f 41/41/41 39/39/39 42/42/42
f 42/42/42 39/39/39 43/43/43
f 42/42/42 43/43/43 44/44/44
f 45/45/45 47/47/47 46/46/46
f 48/48/48 50/50/50 49/49/49
f 51/51/51 53/53/53 52/52/52
f 53/53/53 51/51/51 54/54/54
f 54/54/54 51/51/51 55/55/55
f 54/54/54 55/55/55 56/56/56
f 57/57/57 59/59/59 58/58/58
f 59/59/59 57/57/57 60/60/60
f 59/59/59 60/60/60 61/61/61
f 62/62/62 64/64/64 63/63/63
f 64/64/64 62/62/62 65/65/65
f 66/66/66 68/68/68 67/67/67
f 69/69/69 71/71/71 70/70/70
f 71/71/71 69/69/69 72/72/72
f 71/71/71 72/72/72 73/73/73
f 73/73/73 72/72/72 74/74/74
f 75/75/75 77/77/77 76/76/76
f 77/77/77 75/75/75 78/78/78
f 78/78/78 75/75/75 79/79/79
f 78/78/78 79/79/79 80/80/80
f 81/81/81 83/83/83 82/82/82
f 83/83/83 81/81/81 84/84/84
f 83/83/83 84/84/84 85/85/85
f 86/86/86 88/88/88 87/87/87
f 89/89/89 91/91/91 90/90/90
f 91/91/91 89/89/89 92/92/92
f 92/92/92 89/89/89 93/93/93
f 94/94/94 96/96/96 95/95/95
f 97/97/97 99/99/99 98/98/98
f 100/100/100 102/102/102 101/101/101
f 103/103/103 105/105/105 104/104/104
f 105/105/105 103/103/103 106/106/106
f 106/106/106 103/103/103 107/107/107
f 107/107/107 103/103/103 108/108/108
f 109/109/109 111/111/111 110/110/110
f 109/109/109 112/112/112 111/111/111
f 113/113/113 115/115/115 114/114/114
f 113/113/113 116/116/116 115/115/115
f 117/117/117 119/119/119 118/118/118
f 117/117/117 120/120/120 119/119/119
f 121/121/121 123/123/123 122/122/122
f 121/121/121 124/124/124 123/123/123
f 125/125/125 127/127/127 126/126/126
f 125/125/125 128/128/128 127/127/127
f 129/129/129 131/131/131 130/130/130
f 129/129/129 132/132/132 131/131/131
f 133/133/133 135/135/135 134/134/134
f 133/133/133 136/136/136 135/135/135
f 137/137/137 139/139/139 138/138/138
f 137/137/137 140/140/140 139/139/139
f 141/141/141 143/143/143 142/142/142
f 141/141/141 144/144/144 143/143/143
f 145/145/145 147/147/147 146/146/146
f 145/145/145 148/148/148 147/147/147
f 149/149/149 151/151/151 150/150/150
f 149/149/149 152/152/152 151/151/151
f 153/153/153 155/155/155 154/154/154
f 153/153/153 156/156/156 155/155/155
f 157/157/157 159/159/159 158/158/158
f 157/157/157 160/160/160 159/159/159
f 161/161/161 163/163/163 162/162/162
f 161/161/161 164/164/164 163/163/163
f 165/165/165 167/167/167 166/166/166
f 165/165/165 168/168/168 167/167/167
f 169/169/169 171/171/171 170/170/170
f 169/169/169 172/172/172 171/171/171
f 173/173/173 175/175/175 174/174/174
f 173/173/173 176/176/176 175/175/175
f 177/177/177 179/179/179 178/178/178
f 177/177/177 180/180/180 179/179/179
