#Water_776_193.obj

v 0.4755286 -1 -0.1545086
v 0.4755286 1 -0.1545086
v 0.4045088 1 -0.2938928
v 0.4045088 -1 -0.2938928
v 0.2938928 1 -0.4045087
v 0.2938928 -1 -0.4045087
v 0.1545086 1 -0.4755285
v 0.1545086 -1 -0.4755285
v 0 1 -0.5000002
v 0 -1 -0.5000002
v -0.1545086 1 -0.4755284
v -0.1545086 -1 -0.4755284
v -0.2938927 1 -0.4045087
v -0.2938927 -1 -0.4045087
v -0.4045086 1 -0.2938927
v -0.4045086 -1 -0.2938927
v -0.4755284 1 -0.1545085
v -0.4755284 -1 -0.1545085
v -0.5000001 1 0
v -0.5000001 -1 0
v -0.5000001 -1 0
v -0.5000001 1 0
v -0.4755284 1 0.1545085
v -0.4755284 -1 0.1545085
v -0.4045086 1 0.2938927
v -0.4045086 -1 0.2938927
v -0.2938927 1 0.4045086
v -0.2938927 -1 0.4045086
v -0.1545085 1 0.4755283
v -0.1545085 -1 0.4755283
v -1.525879E-08 1 0.5000001
v -1.525879E-08 -1 0.5000001
v 0.1545085 1 0.4755283
v 0.1545085 -1 0.4755283
v 0.2938926 1 0.4045085
v 0.2938926 -1 0.4045085
v 0.4045085 1 0.2938927
v 0.4045085 -1 0.2938927
v 0.4755283 1 0.1545085
v 0.4755283 -1 0.1545085
v 0.5 1 0
v 0.5 -1 0
v 0.5 -1 0
v 0.5 1 0
v 0.4755286 1 -0.1545086
v 0.4755286 -1 -0.1545086
v 0.4045088 -1 -0.2938928
v 0 -1 0
v 0.4755286 -1 -0.1545086
v 0.2938928 -1 -0.4045087
v 0.1545086 -1 -0.4755285
v 0 -1 -0.5000002
v -0.1545086 -1 -0.4755284
v -0.2938927 -1 -0.4045087
v -0.4045086 -1 -0.2938927
v -0.4755284 -1 -0.1545085
v -0.5000001 -1 0
v -0.4755284 -1 0.1545085
v -0.4045086 -1 0.2938927
v -0.2938927 -1 0.4045086
v -0.1545085 -1 0.4755283
v -1.525879E-08 -1 0.5000001
v 0.1545085 -1 0.4755283
v 0.2938926 -1 0.4045085
v 0.4045085 -1 0.2938927
v 0.4755283 -1 0.1545085
v 0.5 -1 0
v 0.4755286 1 -0.1545086
v 0 1 0
v 0.4045088 1 -0.2938928
v 0.2938928 1 -0.4045087
v 0.1545086 1 -0.4755285
v 0 1 -0.5000002
v -0.1545086 1 -0.4755284
v -0.2938927 1 -0.4045087
v -0.4045086 1 -0.2938927
v -0.4755284 1 -0.1545085
v -0.5000001 1 0
v -0.4755284 1 0.1545085
v -0.4045086 1 0.2938927
v -0.2938927 1 0.4045086
v -0.1545085 1 0.4755283
v -1.525879E-08 1 0.5000001
v 0.1545085 1 0.4755283
v 0.2938926 1 0.4045085
v 0.4045085 1 0.2938927
v 0.4755283 1 0.1545085
v 0.5 1 0

vn 0.9510568 0 -0.309016
vn 0.9510568 0 -0.309016
vn 0.8090169 0 -0.5877853
vn 0.8090169 0 -0.5877853
vn 0.5877851 0 -0.8090171
vn 0.5877851 0 -0.8090171
vn 0.3090168 0 -0.9510565
vn 0.3090168 0 -0.9510565
vn 0 0 -1
vn 0 0 -1
vn -0.3090171 0 -0.9510565
vn -0.3090171 0 -0.9510565
vn -0.5877854 0 -0.8090168
vn -0.5877854 0 -0.8090168
vn -0.8090171 0 -0.5877851
vn -0.8090171 0 -0.5877851
vn -0.9510565 0 -0.3090169
vn -0.9510565 0 -0.3090169
vn -1 0 0
vn -1 0 0
vn -1 0 0
vn -1 0 0
vn -0.9510564 0 0.309017
vn -0.9510564 0 0.309017
vn -0.8090169 0 0.5877854
vn -0.8090169 0 0.5877854
vn -0.5877852 0 0.8090171
vn -0.5877852 0 0.8090171
vn -0.3090169 0 0.9510565
vn -0.3090169 0 0.9510565
vn 0 0 1
vn 0 0 1
vn 0.309017 0 0.9510564
vn 0.309017 0 0.9510564
vn 0.5877852 0 0.809017
vn 0.5877852 0 0.809017
vn 0.809017 0 0.5877852
vn 0.809017 0 0.5877852
vn 0.9510565 0 0.3090169
vn 0.9510565 0 0.3090169
vn 1 0 0
vn 1 0 0
vn 1 0 0
vn 1 0 0
vn 0.9510568 0 -0.309016
vn 0.9510568 0 -0.309016
vn 0 -1 0
vn 0 -1 0
vn 0 -1 0
vn 0 -1 0
vn 0 -1 0
vn 0 -1 0
vn 0 -1 0
vn 0 -1 0
vn 0 -1 0
vn 0 -1 0
vn 0 -1 0
vn 0 -1 0
vn 0 -1 0
vn 0 -1 0
vn 0 -1 0
vn 0 -1 0
vn 0 -1 0
vn 0 -1 0
vn 0 -1 0
vn 0 -1 0
vn 0 -1 0
vn 0 1 0
vn 0 1 0
vn 0 1 0
vn 0 1 0
vn 0 1 0
vn 0 1 0
vn 0 1 0
vn 0 1 0
vn 0 1 0
vn 0 1 0
vn 0 1 0
vn 0 1 0
vn 0 1 0
vn 0 1 0
vn 0 1 0
vn 0 1 0
vn 0 1 0
vn 0 1 0
vn 0 1 0
vn 0 1 0
vn 0 1 0

vt 0.1005859 0.0004537106
vt 0.1005859 0.9995117
vt 0.2005615 0.9995117
vt 0.2005615 0.0004537106
vt 0.300293 0.9995117
vt 0.300293 0.0004537106
vt 0.4003906 0.9995117
vt 0.4003906 0.0004537106
vt 0.5 0.9995117
vt 0.5 0.0004537106
vt 0.6000977 0.9995117
vt 0.6000977 0.0004537106
vt 0.7001953 0.9995117
vt 0.7001953 0.0004537106
vt 0.7998047 0.9995117
vt 0.7998047 0.0004537106
vt 0.8999023 0.9995117
vt 0.8999023 0.0004537106
vt 0.9995117 0.9995117
vt 0.9995117 0.0004537106
vt 0.0006937981 0.0004537106
vt 0.0006942749 0.9995117
vt 0.1005859 0.9995117
vt 0.1005859 0.0004537106
vt 0.2005615 0.9995117
vt 0.2005615 0.0004537106
vt 0.300293 0.9995117
vt 0.300293 0.0004537106
vt 0.4003906 0.9995117
vt 0.4003906 0.0004537106
vt 0.5 0.9995117
vt 0.5 0.0004537106
vt 0.6000977 0.9995117
vt 0.6000977 0.0004537106
vt 0.7001953 0.9995117
vt 0.7001953 0.0004537106
vt 0.7998047 0.9995117
vt 0.7998047 0.0004537106
vt 0.8999023 0.9995117
vt 0.8999023 0.0004537106
vt 0.9995117 0.9995117
vt 0.9995117 0.0004537106
vt 0.0006942749 0.0004537106
vt 0.0006937981 0.9995117
vt 0.1005859 0.9995117
vt 0.1005859 0.0004537106
vt 0.09887695 0.7915039
vt 0.5 0.5
vt 0.02838135 0.6533203
vt 0.2086182 0.9013672
vt 0.3469238 0.9716797
vt 0.5 0.9960938
vt 0.6533203 0.9716797
vt 0.7919922 0.9013672
vt 0.9013672 0.7915039
vt 0.972168 0.6533203
vt 0.996582 0.5
vt 0.972168 0.3466797
vt 0.9013672 0.208374
vt 0.7919922 0.09857178
vt 0.6533203 0.02810669
vt 0.5 0.003828049
vt 0.3469238 0.02810669
vt 0.2086182 0.09857178
vt 0.09887695 0.208374
vt 0.02839661 0.3466797
vt 0.004108429 0.5
vt 0.972168 0.6533203
vt 0.5 0.5
vt 0.9013672 0.7915039
vt 0.7919922 0.9013672
vt 0.6533203 0.9716797
vt 0.5 0.9960938
vt 0.3469238 0.9716797
vt 0.2086182 0.9013672
vt 0.09887695 0.7915039
vt 0.02839661 0.6533203
vt 0.004108429 0.5
vt 0.02839661 0.3466797
vt 0.09887695 0.208374
vt 0.2086182 0.09857178
vt 0.3469238 0.02810669
vt 0.5 0.003828049
vt 0.6533203 0.02810669
vt 0.7919922 0.09857178
vt 0.9013672 0.208374
vt 0.972168 0.3466797
vt 0.996582 0.5

g Water_776_193
usemtl Water_776_193
usemap Water_776_193
f 1/1/1 3/3/3 2/2/2
f 1/1/1 4/4/4 3/3/3
f 4/4/4 5/5/5 3/3/3
f 4/4/4 6/6/6 5/5/5
f 6/6/6 7/7/7 5/5/5
f 6/6/6 8/8/8 7/7/7
f 8/8/8 9/9/9 7/7/7
f 8/8/8 10/10/10 9/9/9
f 10/10/10 11/11/11 9/9/9
f 10/10/10 12/12/12 11/11/11
f 12/12/12 13/13/13 11/11/11
f 12/12/12 14/14/14 13/13/13
f 14/14/14 15/15/15 13/13/13
f 14/14/14 16/16/16 15/15/15
f 16/16/16 17/17/17 15/15/15
f 16/16/16 18/18/18 17/17/17
f 18/18/18 19/19/19 17/17/17
f 18/18/18 20/20/20 19/19/19
f 21/21/21 23/23/23 22/22/22
f 21/21/21 24/24/24 23/23/23
f 24/24/24 25/25/25 23/23/23
f 24/24/24 26/26/26 25/25/25
f 26/26/26 27/27/27 25/25/25
f 26/26/26 28/28/28 27/27/27
f 28/28/28 29/29/29 27/27/27
f 28/28/28 30/30/30 29/29/29
f 30/30/30 31/31/31 29/29/29
f 30/30/30 32/32/32 31/31/31
f 32/32/32 33/33/33 31/31/31
f 32/32/32 34/34/34 33/33/33
f 34/34/34 35/35/35 33/33/33
f 34/34/34 36/36/36 35/35/35
f 36/36/36 37/37/37 35/35/35
f 36/36/36 38/38/38 37/37/37
f 38/38/38 39/39/39 37/37/37
f 38/38/38 40/40/40 39/39/39
f 40/40/40 41/41/41 39/39/39
f 40/40/40 42/42/42 41/41/41
f 43/43/43 45/45/45 44/44/44
f 43/43/43 46/46/46 45/45/45
f 47/47/47 49/49/49 48/48/48
f 50/50/50 47/47/47 48/48/48
f 51/51/51 50/50/50 48/48/48
f 52/52/52 51/51/51 48/48/48
f 53/53/53 52/52/52 48/48/48
f 54/54/54 53/53/53 48/48/48
f 55/55/55 54/54/54 48/48/48
f 56/56/56 55/55/55 48/48/48
f 57/57/57 56/56/56 48/48/48
f 58/58/58 57/57/57 48/48/48
f 59/59/59 58/58/58 48/48/48
f 60/60/60 59/59/59 48/48/48
f 61/61/61 60/60/60 48/48/48
f 62/62/62 61/61/61 48/48/48
f 63/63/63 62/62/62 48/48/48
f 64/64/64 63/63/63 48/48/48
f 65/65/65 64/64/64 48/48/48
f 66/66/66 65/65/65 48/48/48
f 67/67/67 66/66/66 48/48/48
f 49/49/49 67/67/67 48/48/48
f 68/68/68 70/70/70 69/69/69
f 70/70/70 71/71/71 69/69/69
f 71/71/71 72/72/72 69/69/69
f 72/72/72 73/73/73 69/69/69
f 73/73/73 74/74/74 69/69/69
f 74/74/74 75/75/75 69/69/69
f 75/75/75 76/76/76 69/69/69
f 76/76/76 77/77/77 69/69/69
f 77/77/77 78/78/78 69/69/69
f 78/78/78 79/79/79 69/69/69
f 79/79/79 80/80/80 69/69/69
f 80/80/80 81/81/81 69/69/69
f 81/81/81 82/82/82 69/69/69
f 82/82/82 83/83/83 69/69/69
f 83/83/83 84/84/84 69/69/69
f 84/84/84 85/85/85 69/69/69
f 85/85/85 86/86/86 69/69/69
f 86/86/86 87/87/87 69/69/69
f 87/87/87 88/88/88 69/69/69
f 88/88/88 68/68/68 69/69/69
